<?xml version="1.0" encoding="UTF-8" standalone="no"?>
<!DOCTYPE svg PUBLIC "-//W3C//DTD SVG 1.1//EN"
 "http://www.w3.org/Graphics/SVG/1.1/DTD/svg11.dtd">
<!-- Generated by graphviz version 2.43.0 (0)
 -->
<!-- Title: %3 Pages: 1 -->
<svg width="82pt" height="135pt"
 viewBox="0.00 0.00 82.00 135.00" xmlns="http://www.w3.org/2000/svg" xmlns:xlink="http://www.w3.org/1999/xlink">
<g id="graph0" class="graph" transform="scale(1 1) rotate(0) translate(4 131)">
<title>%3</title>
<polygon fill="white" stroke="transparent" points="-4,4 -4,-131 78,-131 78,4 -4,4"/>
<!-- 0 -->
<g id="node1" class="node">
<title>0</title>
<polygon fill="lightblue" stroke="black" points="69,-38 5,-38 5,0 69,0 69,-38"/>
<text text-anchor="middle" x="37" y="-22.8" font-family="Times,serif" font-size="14.00">Ruby</text>
<text text-anchor="middle" x="37" y="-7.8" font-family="Times,serif" font-size="14.00">scrape</text>
</g>
<!-- 1 -->
<g id="node2" class="node">
<title>1</title>
<polygon fill="palegreen" stroke="black" points="74,-127 0,-127 0,-89 74,-89 74,-127"/>
<text text-anchor="middle" x="37" y="-111.8" font-family="Times,serif" font-size="14.00">Wiki</text>
<text text-anchor="middle" x="37" y="-96.8" font-family="Times,serif" font-size="14.00">sitemap</text>
</g>
<!-- 1&#45;&gt;0 -->
<g id="edge1" class="edge">
<title>1&#45;&gt;0</title>
<g id="a_edge1"><a xlink:href="https://github.com/WardCunningham/search/blob/master/scrape.rb#L21" xlink:title="get">
<path fill="none" stroke="black" d="M37,-78.82C37,-65.41 37,-49.78 37,-38"/>
<polygon fill="black" stroke="black" points="33.5,-78.97 37,-88.97 40.5,-78.97 33.5,-78.97"/>
</a>
</g>
<g id="a_edge1&#45;label"><a xlink:href="https://github.com/WardCunningham/search/blob/master/scrape.rb#L21" xlink:title="get">
<text text-anchor="middle" x="49" y="-59.8" font-family="Times,serif" font-size="14.00">get</text>
</a>
</g>
</g>
</g>
</svg>
