<?xml version="1.0" encoding="UTF-8" standalone="no"?>
<!DOCTYPE svg PUBLIC "-//W3C//DTD SVG 1.1//EN"
 "http://www.w3.org/Graphics/SVG/1.1/DTD/svg11.dtd">
<!-- Generated by graphviz version 2.43.0 (0)
 -->
<!-- Title: %3 Pages: 1 -->
<svg width="542pt" height="135pt"
 viewBox="0.00 0.00 542.00 135.00" xmlns="http://www.w3.org/2000/svg" xmlns:xlink="http://www.w3.org/1999/xlink">
<g id="graph0" class="graph" transform="scale(1 1) rotate(0) translate(4 131)">
<title>%3</title>
<polygon fill="white" stroke="transparent" points="-4,4 -4,-131 538,-131 538,4 -4,4"/>
<!-- 0 -->
<g id="node1" class="node">
<title>0</title>
<polygon fill="palegreen" stroke="black" points="97.5,-127 41.5,-127 41.5,-89 97.5,-89 97.5,-127"/>
<text text-anchor="middle" x="69.5" y="-111.8" font-family="Times,serif" font-size="14.00">View</text>
<text text-anchor="middle" x="69.5" y="-96.8" font-family="Times,serif" font-size="14.00">beam</text>
</g>
<!-- 0&#45;&gt;0 -->
<g id="edge2" class="edge">
<title>0&#45;&gt;0</title>
<g id="a_edge2"><a xlink:href="https://github.com/WardCunningham/search/blob/master/README.html#L118" xlink:title="recomment">
<path fill="none" stroke="black" d="M97.8,-116.25C107.59,-116.34 115.5,-113.59 115.5,-108 115.5,-104.6 112.56,-102.25 108.05,-100.95"/>
<polygon fill="black" stroke="black" points="108.14,-97.43 97.8,-99.75 107.33,-104.39 108.14,-97.43"/>
</a>
</g>
<g id="a_edge2&#45;label"><a xlink:href="https://github.com/WardCunningham/search/blob/master/README.html#L118" xlink:title="recomment">
<text text-anchor="middle" x="156.5" y="-104.3" font-family="Times,serif" font-size="14.00">recomment</text>
</a>
</g>
</g>
<!-- 1 -->
<g id="node2" class="node">
<title>1</title>
<polygon fill="palegreen" stroke="black" points="61,-38 0,-38 0,0 61,0 61,-38"/>
<text text-anchor="middle" x="30.5" y="-22.8" font-family="Times,serif" font-size="14.00">View</text>
<text text-anchor="middle" x="30.5" y="-7.8" font-family="Times,serif" font-size="14.00">target</text>
</g>
<!-- 0&#45;&gt;1 -->
<g id="edge1" class="edge">
<title>0&#45;&gt;1</title>
<g id="a_edge1"><a xlink:href="https://github.com/WardCunningham/search/blob/master/README.html#L118" xlink:title="add">
<path fill="none" stroke="black" d="M61.42,-88.97C56.03,-76.96 48.85,-60.94 42.77,-47.36"/>
<polygon fill="black" stroke="black" points="45.85,-45.7 38.57,-38 39.47,-48.56 45.85,-45.7"/>
</a>
</g>
<g id="a_edge1&#45;label"><a xlink:href="https://github.com/WardCunningham/search/blob/master/README.html#L118" xlink:title="add">
<text text-anchor="middle" x="66" y="-59.8" font-family="Times,serif" font-size="14.00">add</text>
</a>
</g>
</g>
<!-- 2 -->
<g id="node3" class="node">
<title>2</title>
<polygon fill="palegreen" stroke="black" points="140,-38 79,-38 79,0 140,0 140,-38"/>
<text text-anchor="middle" x="109.5" y="-22.8" font-family="Times,serif" font-size="14.00">Graph</text>
<text text-anchor="middle" x="109.5" y="-7.8" font-family="Times,serif" font-size="14.00">chose</text>
</g>
<!-- 0&#45;&gt;2 -->
<g id="edge3" class="edge">
<title>0&#45;&gt;2</title>
<g id="a_edge3"><a xlink:href="https://github.com/WardCunningham/search/blob/master/README.html#L156" xlink:title="compose">
<path fill="none" stroke="black" d="M77.79,-88.97C83.31,-76.96 90.68,-60.94 96.92,-47.36"/>
<polygon fill="black" stroke="black" points="100.23,-48.55 101.22,-38 93.87,-45.63 100.23,-48.55"/>
</a>
</g>
<g id="a_edge3&#45;label"><a xlink:href="https://github.com/WardCunningham/search/blob/master/README.html#L156" xlink:title="compose">
<text text-anchor="middle" x="123" y="-59.8" font-family="Times,serif" font-size="14.00">compose</text>
</a>
</g>
</g>
<!-- 3 -->
<g id="node4" class="node">
<title>3</title>
<polygon fill="palegreen" stroke="black" points="295,-127 216,-127 216,-89 295,-89 295,-127"/>
<text text-anchor="middle" x="255.5" y="-111.8" font-family="Times,serif" font-size="14.00">Graph</text>
<text text-anchor="middle" x="255.5" y="-96.8" font-family="Times,serif" font-size="14.00">compose</text>
</g>
<!-- 4 -->
<g id="node5" class="node">
<title>4</title>
<polygon fill="palegreen" stroke="black" points="374,-127 313,-127 313,-89 374,-89 374,-127"/>
<text text-anchor="middle" x="343.5" y="-111.8" font-family="Times,serif" font-size="14.00">Graph</text>
<text text-anchor="middle" x="343.5" y="-96.8" font-family="Times,serif" font-size="14.00">dotify</text>
</g>
<!-- 5 -->
<g id="node6" class="node">
<title>5</title>
<polygon fill="palegreen" stroke="black" points="453,-127 392,-127 392,-89 453,-89 453,-127"/>
<text text-anchor="middle" x="422.5" y="-111.8" font-family="Times,serif" font-size="14.00">Graph</text>
<text text-anchor="middle" x="422.5" y="-96.8" font-family="Times,serif" font-size="14.00">ditify</text>
</g>
<!-- 6 -->
<g id="node7" class="node">
<title>6</title>
<polygon fill="palegreen" stroke="black" points="534,-127 471,-127 471,-89 534,-89 534,-127"/>
<text text-anchor="middle" x="502.5" y="-111.8" font-family="Times,serif" font-size="14.00">Target</text>
<text text-anchor="middle" x="502.5" y="-96.8" font-family="Times,serif" font-size="14.00">svg</text>
</g>
</g>
</svg>
