<?xml version="1.0" encoding="UTF-8" standalone="no"?>
<!DOCTYPE svg PUBLIC "-//W3C//DTD SVG 1.1//EN"
 "http://www.w3.org/Graphics/SVG/1.1/DTD/svg11.dtd">
<!-- Generated by graphviz version 2.43.0 (0)
 -->
<!-- Title: %3 Pages: 1 -->
<svg width="84pt" height="135pt"
 viewBox="0.00 0.00 84.00 135.00" xmlns="http://www.w3.org/2000/svg" xmlns:xlink="http://www.w3.org/1999/xlink">
<g id="graph0" class="graph" transform="scale(1 1) rotate(0) translate(4 131)">
<title>%3</title>
<polygon fill="white" stroke="transparent" points="-4,4 -4,-131 80,-131 80,4 -4,4"/>
<!-- 0 -->
<g id="node1" class="node">
<title>0</title>
<polygon fill="palegreen" stroke="black" points="76,-127 0,-127 0,-89 76,-89 76,-127"/>
<text text-anchor="middle" x="38" y="-111.8" font-family="Times,serif" font-size="14.00">Module</text>
<text text-anchor="middle" x="38" y="-96.8" font-family="Times,serif" font-size="14.00">creating</text>
</g>
<!-- 1 -->
<g id="node2" class="node">
<title>1</title>
<polygon fill="palegreen" stroke="black" points="66,-38 10,-38 10,0 66,0 66,-38"/>
<text text-anchor="middle" x="38" y="-22.8" font-family="Times,serif" font-size="14.00">View</text>
<text text-anchor="middle" x="38" y="-7.8" font-family="Times,serif" font-size="14.00">beam</text>
</g>
<!-- 0&#45;&gt;1 -->
<g id="edge1" class="edge">
<title>0&#45;&gt;1</title>
<g id="a_edge1"><a xlink:href="https://github.com/WardCunningham/search/blob/master/README.html#L55" xlink:title="start">
<path fill="none" stroke="black" d="M38,-88.97C38,-77.19 38,-61.56 38,-48.16"/>
<polygon fill="black" stroke="black" points="41.5,-48 38,-38 34.5,-48 41.5,-48"/>
</a>
</g>
<g id="a_edge1&#45;label"><a xlink:href="https://github.com/WardCunningham/search/blob/master/README.html#L55" xlink:title="start">
<text text-anchor="middle" x="55.5" y="-59.8" font-family="Times,serif" font-size="14.00">start</text>
</a>
</g>
</g>
</g>
</svg>
