<?xml version="1.0" encoding="UTF-8" standalone="no"?>
<!DOCTYPE svg PUBLIC "-//W3C//DTD SVG 1.1//EN"
 "http://www.w3.org/Graphics/SVG/1.1/DTD/svg11.dtd">
<!-- Generated by graphviz version 2.43.0 (0)
 -->
<!-- Title: %3 Pages: 1 -->
<svg width="424pt" height="313pt"
 viewBox="0.00 0.00 424.00 313.00" xmlns="http://www.w3.org/2000/svg" xmlns:xlink="http://www.w3.org/1999/xlink">
<g id="graph0" class="graph" transform="scale(1 1) rotate(0) translate(4 309)">
<title>%3</title>
<polygon fill="white" stroke="transparent" points="-4,4 -4,-309 420,-309 420,4 -4,4"/>
<!-- 0 -->
<g id="node1" class="node">
<title>0</title>
<polygon fill="palegreen" stroke="black" points="132.5,-305 78.5,-305 78.5,-267 132.5,-267 132.5,-305"/>
<text text-anchor="middle" x="105.5" y="-289.8" font-family="Times,serif" font-size="14.00">Shell</text>
<text text-anchor="middle" x="105.5" y="-274.8" font-family="Times,serif" font-size="14.00">cron</text>
</g>
<!-- 1 -->
<g id="node2" class="node">
<title>1</title>
<polygon fill="palegreen" stroke="black" points="89,-216 0,-216 0,-178 89,-178 89,-216"/>
<text text-anchor="middle" x="44.5" y="-200.8" font-family="Times,serif" font-size="14.00">Logs</text>
<text text-anchor="middle" x="44.5" y="-185.8" font-family="Times,serif" font-size="14.00">Now&#45;0000</text>
</g>
<!-- 0&#45;&gt;1 -->
<g id="edge1" class="edge">
<title>0&#45;&gt;1</title>
<path fill="none" stroke="black" d="M92.86,-266.97C84.27,-254.73 72.77,-238.32 63.13,-224.58"/>
<polygon fill="black" stroke="black" points="65.73,-222.18 57.12,-216 60,-226.2 65.73,-222.18"/>
<text text-anchor="middle" x="98.5" y="-237.8" font-family="Times,serif" font-size="14.00">write</text>
</g>
<!-- 2 -->
<g id="node3" class="node">
<title>2</title>
<polygon fill="palegreen" stroke="black" points="184,-216 107,-216 107,-178 184,-178 184,-216"/>
<text text-anchor="middle" x="145.5" y="-200.8" font-family="Times,serif" font-size="14.00">Public</text>
<text text-anchor="middle" x="145.5" y="-185.8" font-family="Times,serif" font-size="14.00">sites.tgz</text>
</g>
<!-- 0&#45;&gt;2 -->
<g id="edge2" class="edge">
<title>0&#45;&gt;2</title>
<path fill="none" stroke="black" d="M113.79,-266.97C119.31,-254.96 126.68,-238.94 132.92,-225.36"/>
<polygon fill="black" stroke="black" points="136.23,-226.55 137.22,-216 129.87,-223.63 136.23,-226.55"/>
<text text-anchor="middle" x="147.5" y="-237.8" font-family="Times,serif" font-size="14.00">write</text>
</g>
<!-- 3 -->
<g id="node4" class="node">
<title>3</title>
<polygon fill="palegreen" stroke="black" points="76.5,-127 12.5,-127 12.5,-89 76.5,-89 76.5,-127"/>
<text text-anchor="middle" x="44.5" y="-111.8" font-family="Times,serif" font-size="14.00">Ruby</text>
<text text-anchor="middle" x="44.5" y="-96.8" font-family="Times,serif" font-size="14.00">counts</text>
</g>
<!-- 1&#45;&gt;3 -->
<g id="edge3" class="edge">
<title>1&#45;&gt;3</title>
<path fill="none" stroke="black" d="M44.5,-167.82C44.5,-154.41 44.5,-138.78 44.5,-127"/>
<polygon fill="black" stroke="black" points="41,-167.97 44.5,-177.97 48,-167.97 41,-167.97"/>
<text text-anchor="middle" x="61" y="-148.8" font-family="Times,serif" font-size="14.00">read</text>
</g>
<!-- 4 -->
<g id="node5" class="node">
<title>4</title>
<polygon fill="palegreen" stroke="black" points="89,-38 0,-38 0,0 89,0 89,-38"/>
<text text-anchor="middle" x="44.5" y="-22.8" font-family="Times,serif" font-size="14.00">Search</text>
<text text-anchor="middle" x="44.5" y="-7.8" font-family="Times,serif" font-size="14.00">counts.txt</text>
</g>
<!-- 3&#45;&gt;4 -->
<g id="edge4" class="edge">
<title>3&#45;&gt;4</title>
<path fill="none" stroke="black" d="M44.5,-88.97C44.5,-77.19 44.5,-61.56 44.5,-48.16"/>
<polygon fill="black" stroke="black" points="48,-48 44.5,-38 41,-48 48,-48"/>
<text text-anchor="middle" x="63.5" y="-59.8" font-family="Times,serif" font-size="14.00">write</text>
</g>
<!-- 5 -->
<g id="node6" class="node">
<title>5</title>
<polygon fill="palegreen" stroke="black" points="275,-305 218,-305 218,-267 275,-267 275,-305"/>
<text text-anchor="middle" x="246.5" y="-289.8" font-family="Times,serif" font-size="14.00">Ruby</text>
<text text-anchor="middle" x="246.5" y="-274.8" font-family="Times,serif" font-size="14.00">found</text>
</g>
<!-- 6 -->
<g id="node7" class="node">
<title>6</title>
<polygon fill="palegreen" stroke="black" points="291,-216 202,-216 202,-178 291,-178 291,-216"/>
<text text-anchor="middle" x="246.5" y="-200.8" font-family="Times,serif" font-size="14.00">Activity</text>
<text text-anchor="middle" x="246.5" y="-185.8" font-family="Times,serif" font-size="14.00">Now&#45;0000</text>
</g>
<!-- 5&#45;&gt;6 -->
<g id="edge5" class="edge">
<title>5&#45;&gt;6</title>
<path fill="none" stroke="black" d="M246.5,-266.97C246.5,-255.19 246.5,-239.56 246.5,-226.16"/>
<polygon fill="black" stroke="black" points="250,-226 246.5,-216 243,-226 250,-226"/>
<text text-anchor="middle" x="265.5" y="-237.8" font-family="Times,serif" font-size="14.00">write</text>
</g>
<!-- 7 -->
<g id="node8" class="node">
<title>7</title>
<polygon fill="palegreen" stroke="black" points="394.5,-305 330.5,-305 330.5,-267 394.5,-267 394.5,-305"/>
<text text-anchor="middle" x="362.5" y="-289.8" font-family="Times,serif" font-size="14.00">Ruby</text>
<text text-anchor="middle" x="362.5" y="-274.8" font-family="Times,serif" font-size="14.00">scrape</text>
</g>
<!-- 8 -->
<g id="node9" class="node">
<title>8</title>
<polygon fill="palegreen" stroke="black" points="416,-216 309,-216 309,-178 416,-178 416,-216"/>
<text text-anchor="middle" x="362.5" y="-200.8" font-family="Times,serif" font-size="14.00">Public</text>
<text text-anchor="middle" x="362.5" y="-185.8" font-family="Times,serif" font-size="14.00">scraped.json</text>
</g>
<!-- 7&#45;&gt;8 -->
<g id="edge6" class="edge">
<title>7&#45;&gt;8</title>
<path fill="none" stroke="black" d="M362.5,-266.97C362.5,-255.19 362.5,-239.56 362.5,-226.16"/>
<polygon fill="black" stroke="black" points="366,-226 362.5,-216 359,-226 366,-226"/>
<text text-anchor="middle" x="385.5" y="-237.8" font-family="Times,serif" font-size="14.00">writes</text>
</g>
</g>
</svg>
