<?xml version="1.0" encoding="UTF-8" standalone="no"?>
<!DOCTYPE svg PUBLIC "-//W3C//DTD SVG 1.1//EN"
 "http://www.w3.org/Graphics/SVG/1.1/DTD/svg11.dtd">
<!-- Generated by graphviz version 2.43.0 (0)
 -->
<!-- Title: %3 Pages: 1 -->
<svg width="574pt" height="166pt"
 viewBox="0.00 0.00 573.59 166.48" xmlns="http://www.w3.org/2000/svg" xmlns:xlink="http://www.w3.org/1999/xlink">
<g id="graph0" class="graph" transform="scale(1 1) rotate(0) translate(4 162.48)">
<title>%3</title>
<polygon fill="white" stroke="transparent" points="-4,4 -4,-162.48 569.59,-162.48 569.59,4 -4,4"/>
<!-- 0 -->
<g id="node1" class="node">
<title>0</title>
<ellipse fill="none" stroke="black" cx="130.93" cy="-131.61" rx="37.45" ry="26.74"/>
<text text-anchor="middle" x="130.93" y="-135.41" font-family="Times,serif" font-size="14.00">Shell</text>
<text text-anchor="middle" x="130.93" y="-120.41" font-family="Times,serif" font-size="14.00">cron</text>
</g>
<!-- 1 -->
<g id="node2" class="node">
<title>1</title>
<ellipse fill="none" stroke="black" cx="62.93" cy="-26.87" rx="62.87" ry="26.74"/>
<text text-anchor="middle" x="62.93" y="-30.67" font-family="Times,serif" font-size="14.00">Logs</text>
<text text-anchor="middle" x="62.93" y="-15.67" font-family="Times,serif" font-size="14.00">Now&#45;0000</text>
</g>
<!-- 0&#45;&gt;1 -->
<g id="edge1" class="edge">
<title>0&#45;&gt;1</title>
<path fill="none" stroke="black" d="M115.33,-107.04C106.42,-93.57 95.09,-76.45 85.24,-61.58"/>
<polygon fill="black" stroke="black" points="88.09,-59.53 79.65,-53.13 82.25,-63.4 88.09,-59.53"/>
<text text-anchor="middle" x="124.93" y="-75.54" font-family="Times,serif" font-size="14.00">writes</text>
</g>
<!-- 2 -->
<g id="node3" class="node">
<title>2</title>
<ellipse fill="none" stroke="black" cx="197.93" cy="-26.87" rx="54.39" ry="26.74"/>
<text text-anchor="middle" x="197.93" y="-30.67" font-family="Times,serif" font-size="14.00">Public</text>
<text text-anchor="middle" x="197.93" y="-15.67" font-family="Times,serif" font-size="14.00">sites.tgz</text>
</g>
<!-- 0&#45;&gt;2 -->
<g id="edge2" class="edge">
<title>0&#45;&gt;2</title>
<path fill="none" stroke="black" d="M146.3,-107.04C155.15,-93.47 166.42,-76.2 176.16,-61.25"/>
<polygon fill="black" stroke="black" points="179.17,-63.05 181.7,-52.76 173.3,-59.23 179.17,-63.05"/>
<text text-anchor="middle" x="191.93" y="-75.54" font-family="Times,serif" font-size="14.00">writes</text>
</g>
<!-- 3 -->
<g id="node4" class="node">
<title>3</title>
<ellipse fill="none" stroke="black" cx="332.93" cy="-131.61" rx="40.11" ry="26.74"/>
<text text-anchor="middle" x="332.93" y="-135.41" font-family="Times,serif" font-size="14.00">Ruby</text>
<text text-anchor="middle" x="332.93" y="-120.41" font-family="Times,serif" font-size="14.00">found</text>
</g>
<!-- 4 -->
<g id="node5" class="node">
<title>4</title>
<ellipse fill="none" stroke="black" cx="332.93" cy="-26.87" rx="62.87" ry="26.74"/>
<text text-anchor="middle" x="332.93" y="-30.67" font-family="Times,serif" font-size="14.00">Activity</text>
<text text-anchor="middle" x="332.93" y="-15.67" font-family="Times,serif" font-size="14.00">Now&#45;0000</text>
</g>
<!-- 3&#45;&gt;4 -->
<g id="edge3" class="edge">
<title>3&#45;&gt;4</title>
<path fill="none" stroke="black" d="M332.93,-104.68C332.93,-92.4 332.93,-77.51 332.93,-64.12"/>
<polygon fill="black" stroke="black" points="336.43,-63.79 332.93,-53.79 329.43,-63.79 336.43,-63.79"/>
<text text-anchor="middle" x="351.93" y="-75.54" font-family="Times,serif" font-size="14.00">write</text>
</g>
<!-- 5 -->
<g id="node6" class="node">
<title>5</title>
<ellipse fill="none" stroke="black" cx="489.93" cy="-131.61" rx="45.01" ry="26.74"/>
<text text-anchor="middle" x="489.93" y="-135.41" font-family="Times,serif" font-size="14.00">Ruby</text>
<text text-anchor="middle" x="489.93" y="-120.41" font-family="Times,serif" font-size="14.00">scrape</text>
</g>
<!-- 6 -->
<g id="node7" class="node">
<title>6</title>
<ellipse fill="none" stroke="black" cx="489.93" cy="-26.87" rx="75.82" ry="26.74"/>
<text text-anchor="middle" x="489.93" y="-30.67" font-family="Times,serif" font-size="14.00">Public</text>
<text text-anchor="middle" x="489.93" y="-15.67" font-family="Times,serif" font-size="14.00">scraped.json</text>
</g>
<!-- 5&#45;&gt;6 -->
<g id="edge4" class="edge">
<title>5&#45;&gt;6</title>
<path fill="none" stroke="black" d="M489.93,-104.68C489.93,-92.4 489.93,-77.51 489.93,-64.12"/>
<polygon fill="black" stroke="black" points="493.43,-63.79 489.93,-53.79 486.43,-63.79 493.43,-63.79"/>
<text text-anchor="middle" x="512.93" y="-75.54" font-family="Times,serif" font-size="14.00">writes</text>
</g>
</g>
</svg>
