<?xml version="1.0" encoding="UTF-8" standalone="no"?>
<!DOCTYPE svg PUBLIC "-//W3C//DTD SVG 1.1//EN"
 "http://www.w3.org/Graphics/SVG/1.1/DTD/svg11.dtd">
<!-- Generated by graphviz version 2.43.0 (0)
 -->
<!-- Title: %3 Pages: 1 -->
<svg width="424pt" height="135pt"
 viewBox="0.00 0.00 424.00 135.00" xmlns="http://www.w3.org/2000/svg" xmlns:xlink="http://www.w3.org/1999/xlink">
<g id="graph0" class="graph" transform="scale(1 1) rotate(0) translate(4 131)">
<title>%3</title>
<polygon fill="white" stroke="transparent" points="-4,4 -4,-131 420,-131 420,4 -4,4"/>
<!-- 0 -->
<g id="node1" class="node">
<title>0</title>
<polygon fill="palegreen" stroke="black" points="122.5,-127 68.5,-127 68.5,-89 122.5,-89 122.5,-127"/>
<text text-anchor="middle" x="95.5" y="-111.8" font-family="Times,serif" font-size="14.00">Shell</text>
<text text-anchor="middle" x="95.5" y="-96.8" font-family="Times,serif" font-size="14.00">cron</text>
</g>
<!-- 1 -->
<g id="node2" class="node">
<title>1</title>
<polygon fill="palegreen" stroke="black" points="89,-38 0,-38 0,0 89,0 89,-38"/>
<text text-anchor="middle" x="44.5" y="-22.8" font-family="Times,serif" font-size="14.00">Logs</text>
<text text-anchor="middle" x="44.5" y="-7.8" font-family="Times,serif" font-size="14.00">Now&#45;0000</text>
</g>
<!-- 0&#45;&gt;1 -->
<g id="edge1" class="edge">
<title>0&#45;&gt;1</title>
<path fill="none" stroke="black" d="M80.74,-88.82C76.54,-83.26 72.13,-77.02 68.5,-71 64.1,-63.69 59.91,-55.44 56.31,-47.75"/>
<polygon fill="black" stroke="black" points="59.39,-46.07 52.07,-38.4 53.01,-48.96 59.39,-46.07"/>
<text text-anchor="middle" x="91.5" y="-59.8" font-family="Times,serif" font-size="14.00">writes</text>
</g>
<!-- 2 -->
<g id="node3" class="node">
<title>2</title>
<polygon fill="palegreen" stroke="black" points="184,-38 107,-38 107,0 184,0 184,-38"/>
<text text-anchor="middle" x="145.5" y="-22.8" font-family="Times,serif" font-size="14.00">Public</text>
<text text-anchor="middle" x="145.5" y="-7.8" font-family="Times,serif" font-size="14.00">sites.tgz</text>
</g>
<!-- 0&#45;&gt;2 -->
<g id="edge2" class="edge">
<title>0&#45;&gt;2</title>
<path fill="none" stroke="black" d="M105.86,-88.97C112.83,-76.84 122.15,-60.63 130,-46.97"/>
<polygon fill="black" stroke="black" points="133.2,-48.42 135.15,-38 127.14,-44.93 133.2,-48.42"/>
<text text-anchor="middle" x="146.5" y="-59.8" font-family="Times,serif" font-size="14.00">writes</text>
</g>
<!-- 3 -->
<g id="node4" class="node">
<title>3</title>
<polygon fill="palegreen" stroke="black" points="275,-127 218,-127 218,-89 275,-89 275,-127"/>
<text text-anchor="middle" x="246.5" y="-111.8" font-family="Times,serif" font-size="14.00">Ruby</text>
<text text-anchor="middle" x="246.5" y="-96.8" font-family="Times,serif" font-size="14.00">found</text>
</g>
<!-- 4 -->
<g id="node5" class="node">
<title>4</title>
<polygon fill="palegreen" stroke="black" points="291,-38 202,-38 202,0 291,0 291,-38"/>
<text text-anchor="middle" x="246.5" y="-22.8" font-family="Times,serif" font-size="14.00">Activity</text>
<text text-anchor="middle" x="246.5" y="-7.8" font-family="Times,serif" font-size="14.00">Now&#45;0000</text>
</g>
<!-- 3&#45;&gt;4 -->
<g id="edge3" class="edge">
<title>3&#45;&gt;4</title>
<path fill="none" stroke="black" d="M246.5,-88.97C246.5,-77.19 246.5,-61.56 246.5,-48.16"/>
<polygon fill="black" stroke="black" points="250,-48 246.5,-38 243,-48 250,-48"/>
<text text-anchor="middle" x="265.5" y="-59.8" font-family="Times,serif" font-size="14.00">write</text>
</g>
<!-- 5 -->
<g id="node6" class="node">
<title>5</title>
<polygon fill="palegreen" stroke="black" points="394.5,-127 330.5,-127 330.5,-89 394.5,-89 394.5,-127"/>
<text text-anchor="middle" x="362.5" y="-111.8" font-family="Times,serif" font-size="14.00">Ruby</text>
<text text-anchor="middle" x="362.5" y="-96.8" font-family="Times,serif" font-size="14.00">scrape</text>
</g>
<!-- 6 -->
<g id="node7" class="node">
<title>6</title>
<polygon fill="palegreen" stroke="black" points="416,-38 309,-38 309,0 416,0 416,-38"/>
<text text-anchor="middle" x="362.5" y="-22.8" font-family="Times,serif" font-size="14.00">Public</text>
<text text-anchor="middle" x="362.5" y="-7.8" font-family="Times,serif" font-size="14.00">scraped.json</text>
</g>
<!-- 5&#45;&gt;6 -->
<g id="edge4" class="edge">
<title>5&#45;&gt;6</title>
<path fill="none" stroke="black" d="M362.5,-88.97C362.5,-77.19 362.5,-61.56 362.5,-48.16"/>
<polygon fill="black" stroke="black" points="366,-48 362.5,-38 359,-48 366,-48"/>
<text text-anchor="middle" x="385.5" y="-59.8" font-family="Times,serif" font-size="14.00">writes</text>
</g>
</g>
</svg>
