<?xml version="1.0" encoding="UTF-8" standalone="no"?>
<!DOCTYPE svg PUBLIC "-//W3C//DTD SVG 1.1//EN"
 "http://www.w3.org/Graphics/SVG/1.1/DTD/svg11.dtd">
<!-- Generated by graphviz version 2.43.0 (0)
 -->
<!-- Title: %3 Pages: 1 -->
<svg width="71pt" height="135pt"
 viewBox="0.00 0.00 71.00 135.00" xmlns="http://www.w3.org/2000/svg" xmlns:xlink="http://www.w3.org/1999/xlink">
<g id="graph0" class="graph" transform="scale(1 1) rotate(0) translate(4 131)">
<title>%3</title>
<polygon fill="white" stroke="transparent" points="-4,4 -4,-131 67,-131 67,4 -4,4"/>
<!-- 0 -->
<g id="node1" class="node">
<title>0</title>
<polygon fill="palegreen" stroke="black" points="62,-127 1,-127 1,-89 62,-89 62,-127"/>
<text text-anchor="middle" x="31.5" y="-111.8" font-family="Times,serif" font-size="14.00">Graph</text>
<text text-anchor="middle" x="31.5" y="-96.8" font-family="Times,serif" font-size="14.00">dotify</text>
</g>
<!-- 1 -->
<g id="node2" class="node">
<title>1</title>
<polygon fill="palegreen" stroke="black" points="63,-38 0,-38 0,0 63,0 63,-38"/>
<text text-anchor="middle" x="31.5" y="-22.8" font-family="Times,serif" font-size="14.00">Target</text>
<text text-anchor="middle" x="31.5" y="-7.8" font-family="Times,serif" font-size="14.00">svg</text>
</g>
<!-- 0&#45;&gt;1 -->
<g id="edge1" class="edge">
<title>0&#45;&gt;1</title>
<g id="a_edge1"><a xlink:href="https://github.com/WardCunningham/search/blob/master/README.html#L155" xlink:title="set">
<path fill="none" stroke="black" d="M31.5,-88.97C31.5,-77.19 31.5,-61.56 31.5,-48.16"/>
<polygon fill="black" stroke="black" points="35,-48 31.5,-38 28,-48 35,-48"/>
</a>
</g>
<g id="a_edge1&#45;label"><a xlink:href="https://github.com/WardCunningham/search/blob/master/README.html#L155" xlink:title="set">
<text text-anchor="middle" x="42.5" y="-59.8" font-family="Times,serif" font-size="14.00">set</text>
</a>
</g>
</g>
</g>
</svg>
