<?xml version="1.0" encoding="UTF-8" standalone="no"?>
<!DOCTYPE svg PUBLIC "-//W3C//DTD SVG 1.1//EN"
 "http://www.w3.org/Graphics/SVG/1.1/DTD/svg11.dtd">
<!-- Generated by graphviz version 2.43.0 (0)
 -->
<!-- Title: %3 Pages: 1 -->
<svg width="324pt" height="224pt"
 viewBox="0.00 0.00 324.00 224.00" xmlns="http://www.w3.org/2000/svg" xmlns:xlink="http://www.w3.org/1999/xlink">
<g id="graph0" class="graph" transform="scale(1 1) rotate(0) translate(4 220)">
<title>%3</title>
<polygon fill="white" stroke="transparent" points="-4,4 -4,-220 320,-220 320,4 -4,4"/>
<!-- 0 -->
<g id="node1" class="node">
<title>0</title>
<polygon fill="palegreen" stroke="black" points="201.5,-127 127.5,-127 127.5,-89 201.5,-89 201.5,-127"/>
<text text-anchor="middle" x="164.5" y="-111.8" font-family="Times,serif" font-size="14.00">Window</text>
<text text-anchor="middle" x="164.5" y="-96.8" font-family="Times,serif" font-size="14.00">drop</text>
</g>
<!-- 1 -->
<g id="node2" class="node">
<title>1</title>
<polygon fill="palegreen" stroke="black" points="97.5,-38 17.5,-38 17.5,0 97.5,0 97.5,-38"/>
<text text-anchor="middle" x="57.5" y="-22.8" font-family="Times,serif" font-size="14.00">Function</text>
<text text-anchor="middle" x="57.5" y="-7.8" font-family="Times,serif" font-size="14.00">files</text>
</g>
<!-- 0&#45;&gt;1 -->
<g id="edge1" class="edge">
<title>0&#45;&gt;1</title>
<g id="a_edge1"><a xlink:href="https://github.com/WardCunningham/search/blob/master/README.html#L60" xlink:title="run">
<path fill="none" stroke="black" d="M142.33,-88.97C126.55,-76.14 105.15,-58.74 87.8,-44.63"/>
<polygon fill="black" stroke="black" points="89.61,-41.6 79.64,-38 85.19,-47.03 89.61,-41.6"/>
</a>
</g>
<g id="a_edge1&#45;label"><a xlink:href="https://github.com/WardCunningham/search/blob/master/README.html#L60" xlink:title="run">
<text text-anchor="middle" x="130" y="-59.8" font-family="Times,serif" font-size="14.00">run</text>
</a>
</g>
</g>
<!-- 3 -->
<g id="node4" class="node">
<title>3</title>
<polygon fill="palegreen" stroke="black" points="208.5,-38 116.5,-38 116.5,0 208.5,0 208.5,-38"/>
<text text-anchor="middle" x="162.5" y="-22.8" font-family="Times,serif" font-size="14.00">View</text>
<text text-anchor="middle" x="162.5" y="-7.8" font-family="Times,serif" font-size="14.00">newPoems</text>
</g>
<!-- 0&#45;&gt;3 -->
<g id="edge3" class="edge">
<title>0&#45;&gt;3</title>
<g id="a_edge3"><a xlink:href="https://github.com/WardCunningham/search/blob/master/README.html#L70" xlink:title="run">
<path fill="none" stroke="black" d="M164.09,-88.97C163.81,-77.19 163.46,-61.56 163.15,-48.16"/>
<polygon fill="black" stroke="black" points="166.64,-47.92 162.91,-38 159.64,-48.08 166.64,-47.92"/>
</a>
</g>
<g id="a_edge3&#45;label"><a xlink:href="https://github.com/WardCunningham/search/blob/master/README.html#L70" xlink:title="run">
<text text-anchor="middle" x="177" y="-59.8" font-family="Times,serif" font-size="14.00">run</text>
</a>
</g>
</g>
<!-- 5 -->
<g id="node6" class="node">
<title>5</title>
<polygon fill="palegreen" stroke="black" points="316,-38 227,-38 227,0 316,0 316,-38"/>
<text text-anchor="middle" x="271.5" y="-22.8" font-family="Times,serif" font-size="14.00">Display</text>
<text text-anchor="middle" x="271.5" y="-7.8" font-family="Times,serif" font-size="14.00">composite</text>
</g>
<!-- 0&#45;&gt;5 -->
<g id="edge5" class="edge">
<title>0&#45;&gt;5</title>
<g id="a_edge5"><a xlink:href="https://github.com/WardCunningham/search/blob/master/README.html#L83" xlink:title="run">
<path fill="none" stroke="black" d="M186.67,-88.97C202.45,-76.14 223.85,-58.74 241.2,-44.63"/>
<polygon fill="black" stroke="black" points="243.81,-47.03 249.36,-38 239.39,-41.6 243.81,-47.03"/>
</a>
</g>
<g id="a_edge5&#45;label"><a xlink:href="https://github.com/WardCunningham/search/blob/master/README.html#L83" xlink:title="run">
<text text-anchor="middle" x="236" y="-59.8" font-family="Times,serif" font-size="14.00">run</text>
</a>
</g>
</g>
<!-- 2 -->
<g id="node3" class="node">
<title>2</title>
<polygon fill="palegreen" stroke="black" points="153.5,-216 97.5,-216 97.5,-178 153.5,-178 153.5,-216"/>
<text text-anchor="middle" x="125.5" y="-200.8" font-family="Times,serif" font-size="14.00">View</text>
<text text-anchor="middle" x="125.5" y="-185.8" font-family="Times,serif" font-size="14.00">beam</text>
</g>
<!-- 2&#45;&gt;0 -->
<g id="edge2" class="edge">
<title>2&#45;&gt;0</title>
<g id="a_edge2"><a xlink:href="https://github.com/WardCunningham/search/blob/master/README.html#L63" xlink:title="get">
<path fill="none" stroke="black" d="M137.78,-168.61C143.87,-155.03 151.05,-139.01 156.43,-127"/>
<polygon fill="black" stroke="black" points="134.48,-167.42 133.58,-177.97 140.87,-170.28 134.48,-167.42"/>
</a>
</g>
<g id="a_edge2&#45;label"><a xlink:href="https://github.com/WardCunningham/search/blob/master/README.html#L63" xlink:title="get">
<text text-anchor="middle" x="159.5" y="-148.8" font-family="Times,serif" font-size="14.00">get</text>
</a>
</g>
</g>
<!-- 4 -->
<g id="node5" class="node">
<title>4</title>
<polygon fill="palegreen" stroke="black" points="233,-216 172,-216 172,-178 233,-178 233,-216"/>
<text text-anchor="middle" x="202.5" y="-200.8" font-family="Times,serif" font-size="14.00">View</text>
<text text-anchor="middle" x="202.5" y="-185.8" font-family="Times,serif" font-size="14.00">target</text>
</g>
<!-- 4&#45;&gt;0 -->
<g id="edge4" class="edge">
<title>4&#45;&gt;0</title>
<g id="a_edge4"><a xlink:href="https://github.com/WardCunningham/search/blob/master/README.html#L77" xlink:title="get">
<path fill="none" stroke="black" d="M190.54,-168.61C184.61,-155.03 177.61,-139.01 172.36,-127"/>
<polygon fill="black" stroke="black" points="187.42,-170.21 194.63,-177.97 193.83,-167.41 187.42,-170.21"/>
</a>
</g>
<g id="a_edge4&#45;label"><a xlink:href="https://github.com/WardCunningham/search/blob/master/README.html#L77" xlink:title="get">
<text text-anchor="middle" x="198.5" y="-148.8" font-family="Times,serif" font-size="14.00">get</text>
</a>
</g>
</g>
<!-- 6 -->
<g id="node7" class="node">
<title>6</title>
<polygon fill="palegreen" stroke="black" points="109,-127 0,-127 0,-89 109,-89 109,-127"/>
<text text-anchor="middle" x="54.5" y="-111.8" font-family="Times,serif" font-size="14.00">Window</text>
<text text-anchor="middle" x="54.5" y="-96.8" font-family="Times,serif" font-size="14.00">dataTransfer</text>
</g>
<!-- 6&#45;&gt;1 -->
<g id="edge6" class="edge">
<title>6&#45;&gt;1</title>
<g id="a_edge6"><a xlink:href="https://github.com/WardCunningham/search/blob/master/README.html#L322" xlink:title="get">
<path fill="none" stroke="black" d="M55.47,-78.82C55.93,-65.41 56.47,-49.78 56.88,-38"/>
<polygon fill="black" stroke="black" points="51.97,-78.86 55.12,-88.97 58.96,-79.1 51.97,-78.86"/>
</a>
</g>
<g id="a_edge6&#45;label"><a xlink:href="https://github.com/WardCunningham/search/blob/master/README.html#L322" xlink:title="get">
<text text-anchor="middle" x="68.5" y="-59.8" font-family="Times,serif" font-size="14.00">get</text>
</a>
</g>
</g>
</g>
</svg>
