<?xml version="1.0" encoding="UTF-8" standalone="no"?>
<!DOCTYPE svg PUBLIC "-//W3C//DTD SVG 1.1//EN"
 "http://www.w3.org/Graphics/SVG/1.1/DTD/svg11.dtd">
<!-- Generated by graphviz version 2.43.0 (0)
 -->
<!-- Title: %3 Pages: 1 -->
<svg width="82pt" height="135pt"
 viewBox="0.00 0.00 82.00 135.00" xmlns="http://www.w3.org/2000/svg" xmlns:xlink="http://www.w3.org/1999/xlink">
<g id="graph0" class="graph" transform="scale(1 1) rotate(0) translate(4 131)">
<title>%3</title>
<polygon fill="white" stroke="transparent" points="-4,4 -4,-131 78,-131 78,4 -4,4"/>
<!-- 0 -->
<g id="node1" class="node">
<title>0</title>
<polygon fill="palegreen" stroke="black" points="74,-127 0,-127 0,-89 74,-89 74,-127"/>
<text text-anchor="middle" x="37" y="-111.8" font-family="Times,serif" font-size="14.00">Window</text>
<text text-anchor="middle" x="37" y="-96.8" font-family="Times,serif" font-size="14.00">drop</text>
</g>
<!-- 1 -->
<g id="node2" class="node">
<title>1</title>
<polygon fill="palegreen" stroke="black" points="65,-38 9,-38 9,0 65,0 65,-38"/>
<text text-anchor="middle" x="37" y="-22.8" font-family="Times,serif" font-size="14.00">View</text>
<text text-anchor="middle" x="37" y="-7.8" font-family="Times,serif" font-size="14.00">beam</text>
</g>
<!-- 0&#45;&gt;1 -->
<g id="edge1" class="edge">
<title>0&#45;&gt;1</title>
<g id="a_edge1"><a xlink:href="https://github.com/WardCunningham/search/blob/master/README.html#L75" xlink:title="add">
<path fill="none" stroke="black" d="M37,-88.97C37,-77.19 37,-61.56 37,-48.16"/>
<polygon fill="black" stroke="black" points="40.5,-48 37,-38 33.5,-48 40.5,-48"/>
</a>
</g>
<g id="a_edge1&#45;label"><a xlink:href="https://github.com/WardCunningham/search/blob/master/README.html#L75" xlink:title="add">
<text text-anchor="middle" x="50.5" y="-59.8" font-family="Times,serif" font-size="14.00">add</text>
</a>
</g>
</g>
</g>
</svg>
