<?xml version="1.0" encoding="UTF-8" standalone="no"?>
<!DOCTYPE svg PUBLIC "-//W3C//DTD SVG 1.1//EN"
 "http://www.w3.org/Graphics/SVG/1.1/DTD/svg11.dtd">
<!-- Generated by graphviz version 2.43.0 (0)
 -->
<!-- Title: %3 Pages: 1 -->
<svg width="144pt" height="135pt"
 viewBox="0.00 0.00 143.50 135.00" xmlns="http://www.w3.org/2000/svg" xmlns:xlink="http://www.w3.org/1999/xlink">
<g id="graph0" class="graph" transform="scale(1 1) rotate(0) translate(4 131)">
<title>%3</title>
<polygon fill="white" stroke="transparent" points="-4,4 -4,-131 139.5,-131 139.5,4 -4,4"/>
<!-- 0 -->
<g id="node1" class="node">
<title>0</title>
<polygon fill="palegreen" stroke="black" points="103,-127 29,-127 29,-89 103,-89 103,-127"/>
<text text-anchor="middle" x="66" y="-111.8" font-family="Times,serif" font-size="14.00">Window</text>
<text text-anchor="middle" x="66" y="-96.8" font-family="Times,serif" font-size="14.00">drop</text>
</g>
<!-- 1 -->
<g id="node2" class="node">
<title>1</title>
<polygon fill="palegreen" stroke="black" points="56,-38 0,-38 0,0 56,0 56,-38"/>
<text text-anchor="middle" x="28" y="-22.8" font-family="Times,serif" font-size="14.00">View</text>
<text text-anchor="middle" x="28" y="-7.8" font-family="Times,serif" font-size="14.00">beam</text>
</g>
<!-- 0&#45;&gt;1 -->
<g id="edge1" class="edge">
<title>0&#45;&gt;1</title>
<g id="a_edge1"><a xlink:href="https://github.com/WardCunningham/search/blob/master/README.html#L78" xlink:title="add">
<path fill="none" stroke="black" d="M58.13,-88.97C52.88,-76.96 45.88,-60.94 39.95,-47.36"/>
<polygon fill="black" stroke="black" points="43.07,-45.77 35.86,-38 36.66,-48.57 43.07,-45.77"/>
</a>
</g>
<g id="a_edge1&#45;label"><a xlink:href="https://github.com/WardCunningham/search/blob/master/README.html#L78" xlink:title="add">
<text text-anchor="middle" x="63.5" y="-59.8" font-family="Times,serif" font-size="14.00">add</text>
</a>
</g>
</g>
<!-- 2 -->
<g id="node3" class="node">
<title>2</title>
<polygon fill="palegreen" stroke="black" points="135.5,-38 74.5,-38 74.5,0 135.5,0 135.5,-38"/>
<text text-anchor="middle" x="105" y="-22.8" font-family="Times,serif" font-size="14.00">View</text>
<text text-anchor="middle" x="105" y="-7.8" font-family="Times,serif" font-size="14.00">target</text>
</g>
<!-- 0&#45;&gt;2 -->
<g id="edge2" class="edge">
<title>0&#45;&gt;2</title>
<g id="a_edge2"><a xlink:href="https://github.com/WardCunningham/search/blob/master/README.html#L95" xlink:title="add">
<path fill="none" stroke="black" d="M74.08,-88.97C79.47,-76.96 86.65,-60.94 92.73,-47.36"/>
<polygon fill="black" stroke="black" points="96.03,-48.56 96.93,-38 89.65,-45.7 96.03,-48.56"/>
</a>
</g>
<g id="a_edge2&#45;label"><a xlink:href="https://github.com/WardCunningham/search/blob/master/README.html#L95" xlink:title="add">
<text text-anchor="middle" x="100.5" y="-59.8" font-family="Times,serif" font-size="14.00">add</text>
</a>
</g>
</g>
</g>
</svg>
