<?xml version="1.0" encoding="UTF-8" standalone="no"?>
<!DOCTYPE svg PUBLIC "-//W3C//DTD SVG 1.1//EN"
 "http://www.w3.org/Graphics/SVG/1.1/DTD/svg11.dtd">
<!-- Generated by graphviz version 2.43.0 (0)
 -->
<!-- Title: %3 Pages: 1 -->
<svg width="158pt" height="135pt"
 viewBox="0.00 0.00 157.50 135.00" xmlns="http://www.w3.org/2000/svg" xmlns:xlink="http://www.w3.org/1999/xlink">
<g id="graph0" class="graph" transform="scale(1 1) rotate(0) translate(4 131)">
<title>%3</title>
<polygon fill="white" stroke="transparent" points="-4,4 -4,-131 153.5,-131 153.5,4 -4,4"/>
<!-- 0 -->
<g id="node1" class="node">
<title>0</title>
<polygon fill="palegreen" stroke="black" points="121.5,-127 32.5,-127 32.5,-89 121.5,-89 121.5,-127"/>
<text text-anchor="middle" x="77" y="-111.8" font-family="Times,serif" font-size="14.00">Display</text>
<text text-anchor="middle" x="77" y="-96.8" font-family="Times,serif" font-size="14.00">composite</text>
</g>
<!-- 1 -->
<g id="node2" class="node">
<title>1</title>
<polygon fill="palegreen" stroke="black" points="70,-38 0,-38 0,0 70,0 70,-38"/>
<text text-anchor="middle" x="35" y="-22.8" font-family="Times,serif" font-size="14.00">Display</text>
<text text-anchor="middle" x="35" y="-7.8" font-family="Times,serif" font-size="14.00">svg</text>
</g>
<!-- 0&#45;&gt;1 -->
<g id="edge1" class="edge">
<title>0&#45;&gt;1</title>
<g id="a_edge1"><a xlink:href="https://github.com/WardCunningham/search/blob/master/README.html#L144" xlink:title="dotify">
<path fill="none" stroke="black" d="M64.95,-88.67C61.52,-83.11 57.93,-76.9 55,-71 51.35,-63.66 47.89,-55.47 44.91,-47.85"/>
<polygon fill="black" stroke="black" points="48.1,-46.39 41.28,-38.27 41.55,-48.86 48.1,-46.39"/>
</a>
</g>
<g id="a_edge1&#45;label"><a xlink:href="https://github.com/WardCunningham/search/blob/master/README.html#L144" xlink:title="dotify">
<text text-anchor="middle" x="76" y="-59.8" font-family="Times,serif" font-size="14.00">dotify</text>
</a>
</g>
</g>
<!-- 2 -->
<g id="node3" class="node">
<title>2</title>
<polygon fill="palegreen" stroke="black" points="149.5,-38 88.5,-38 88.5,0 149.5,0 149.5,-38"/>
<text text-anchor="middle" x="119" y="-22.8" font-family="Times,serif" font-size="14.00">Graph</text>
<text text-anchor="middle" x="119" y="-7.8" font-family="Times,serif" font-size="14.00">dotify</text>
</g>
<!-- 0&#45;&gt;2 -->
<g id="edge2" class="edge">
<title>0&#45;&gt;2</title>
<g id="a_edge2"><a xlink:href="https://github.com/WardCunningham/search/blob/master/README.html#L144" xlink:title="calls">
<path fill="none" stroke="black" d="M87.53,-88.87C90.7,-83.21 94.1,-76.9 97,-71 100.71,-63.46 104.45,-55.14 107.76,-47.44"/>
<polygon fill="black" stroke="black" points="111.02,-48.71 111.69,-38.14 104.57,-45.98 111.02,-48.71"/>
</a>
</g>
<g id="a_edge2&#45;label"><a xlink:href="https://github.com/WardCunningham/search/blob/master/README.html#L144" xlink:title="calls">
<text text-anchor="middle" x="119.5" y="-59.8" font-family="Times,serif" font-size="14.00">calls</text>
</a>
</g>
</g>
</g>
</svg>
