<?xml version="1.0" encoding="UTF-8" standalone="no"?>
<!DOCTYPE svg PUBLIC "-//W3C//DTD SVG 1.1//EN"
 "http://www.w3.org/Graphics/SVG/1.1/DTD/svg11.dtd">
<!-- Generated by graphviz version 2.43.0 (0)
 -->
<!-- Title: %3 Pages: 1 -->
<svg width="426pt" height="580pt"
 viewBox="0.00 0.00 425.50 580.00" xmlns="http://www.w3.org/2000/svg" xmlns:xlink="http://www.w3.org/1999/xlink">
<g id="graph0" class="graph" transform="scale(1 1) rotate(0) translate(4 576)">
<title>%3</title>
<polygon fill="white" stroke="transparent" points="-4,4 -4,-576 421.5,-576 421.5,4 -4,4"/>
<!-- 0 -->
<g id="node1" class="node">
<title>0</title>
<polygon fill="lightblue" stroke="black" points="251.5,-572 197.5,-572 197.5,-534 251.5,-534 251.5,-572"/>
<text text-anchor="middle" x="224.5" y="-556.8" font-family="Times,serif" font-size="14.00">Shell</text>
<text text-anchor="middle" x="224.5" y="-541.8" font-family="Times,serif" font-size="14.00">cron</text>
</g>
<!-- 1 -->
<g id="node2" class="node">
<title>1</title>
<polygon fill="lightblue" stroke="black" points="324.5,-305 260.5,-305 260.5,-267 324.5,-267 324.5,-305"/>
<text text-anchor="middle" x="292.5" y="-289.8" font-family="Times,serif" font-size="14.00">Ruby</text>
<text text-anchor="middle" x="292.5" y="-274.8" font-family="Times,serif" font-size="14.00">scrape</text>
</g>
<!-- 0&#45;&gt;1 -->
<g id="edge1" class="edge">
<title>0&#45;&gt;1</title>
<g id="a_edge1"><a xlink:href="https://github.com/WardCunningham/search/blob/master/cron.sh#L7" xlink:title="run">
<path fill="none" stroke="black" d="M251.2,-533.72C257.01,-528.6 262.58,-522.61 266.5,-516 304.31,-452.29 301.03,-360.94 296.32,-315.27"/>
<polygon fill="black" stroke="black" points="299.78,-314.74 295.17,-305.2 292.82,-315.53 299.78,-314.74"/>
</a>
</g>
<g id="a_edge1&#45;label"><a xlink:href="https://github.com/WardCunningham/search/blob/master/cron.sh#L7" xlink:title="run">
<text text-anchor="middle" x="309" y="-415.8" font-family="Times,serif" font-size="14.00">run</text>
</a>
</g>
</g>
<!-- 2 -->
<g id="node3" class="node">
<title>2</title>
<polygon fill="lightblue" stroke="black" points="224,-127 165,-127 165,-89 224,-89 224,-127"/>
<text text-anchor="middle" x="194.5" y="-111.8" font-family="Times,serif" font-size="14.00">Ruby</text>
<text text-anchor="middle" x="194.5" y="-96.8" font-family="Times,serif" font-size="14.00">rollup</text>
</g>
<!-- 0&#45;&gt;2 -->
<g id="edge2" class="edge">
<title>0&#45;&gt;2</title>
<g id="a_edge2"><a xlink:href="https://github.com/WardCunningham/search/blob/master/cron.sh#L18" xlink:title="run">
<path fill="none" stroke="black" d="M197.25,-549.9C150.39,-544.65 59.5,-526.53 59.5,-465 59.5,-465 59.5,-465 59.5,-196 59.5,-150.12 115.28,-127.27 155.13,-116.81"/>
<polygon fill="black" stroke="black" points="156,-120.2 164.87,-114.41 154.33,-113.4 156,-120.2"/>
</a>
</g>
<g id="a_edge2&#45;label"><a xlink:href="https://github.com/WardCunningham/search/blob/master/cron.sh#L18" xlink:title="run">
<text text-anchor="middle" x="72" y="-326.8" font-family="Times,serif" font-size="14.00">run</text>
</a>
</g>
</g>
<!-- 3 -->
<g id="node4" class="node">
<title>3</title>
<polygon fill="palegreen" stroke="black" points="167,-483 88,-483 88,-445 167,-445 167,-483"/>
<text text-anchor="middle" x="127.5" y="-467.8" font-family="Times,serif" font-size="14.00">Search</text>
<text text-anchor="middle" x="127.5" y="-452.8" font-family="Times,serif" font-size="14.00">slugs.txt</text>
</g>
<!-- 0&#45;&gt;3 -->
<g id="edge3" class="edge">
<title>0&#45;&gt;3</title>
<g id="a_edge3"><a xlink:href="https://github.com/WardCunningham/search/blob/master/cron.sh#L21" xlink:title="write">
<path fill="none" stroke="black" d="M202.99,-533.85C196.37,-528.18 189.09,-521.88 182.5,-516 173.18,-507.69 163.12,-498.45 154.19,-490.14"/>
<polygon fill="black" stroke="black" points="156.37,-487.39 146.68,-483.12 151.6,-492.51 156.37,-487.39"/>
</a>
</g>
<g id="a_edge3&#45;label"><a xlink:href="https://github.com/WardCunningham/search/blob/master/cron.sh#L21" xlink:title="write">
<text text-anchor="middle" x="201.5" y="-504.8" font-family="Times,serif" font-size="14.00">write</text>
</a>
</g>
</g>
<!-- 4 -->
<g id="node5" class="node">
<title>4</title>
<polygon fill="palegreen" stroke="black" points="264,-483 185,-483 185,-445 264,-445 264,-483"/>
<text text-anchor="middle" x="224.5" y="-467.8" font-family="Times,serif" font-size="14.00">Sites</text>
<text text-anchor="middle" x="224.5" y="-452.8" font-family="Times,serif" font-size="14.00">slugs.txt</text>
</g>
<!-- 0&#45;&gt;4 -->
<g id="edge4" class="edge">
<title>0&#45;&gt;4</title>
<g id="a_edge4"><a xlink:href="https://github.com/WardCunningham/search/blob/master/cron.sh#L21" xlink:title="write">
<path fill="none" stroke="black" d="M224.5,-533.97C224.5,-522.19 224.5,-506.56 224.5,-493.16"/>
<polygon fill="black" stroke="black" points="228,-493 224.5,-483 221,-493 228,-493"/>
</a>
</g>
<g id="a_edge4&#45;label"><a xlink:href="https://github.com/WardCunningham/search/blob/master/cron.sh#L21" xlink:title="write">
<text text-anchor="middle" x="243.5" y="-504.8" font-family="Times,serif" font-size="14.00">write</text>
</a>
</g>
</g>
<!-- 5 -->
<g id="node6" class="node">
<title>5</title>
<polygon fill="lightblue" stroke="black" points="390,-483 333,-483 333,-445 390,-445 390,-483"/>
<text text-anchor="middle" x="361.5" y="-467.8" font-family="Times,serif" font-size="14.00">Ruby</text>
<text text-anchor="middle" x="361.5" y="-452.8" font-family="Times,serif" font-size="14.00">found</text>
</g>
<!-- 0&#45;&gt;5 -->
<g id="edge5" class="edge">
<title>0&#45;&gt;5</title>
<g id="a_edge5"><a xlink:href="https://github.com/WardCunningham/search/blob/master/cron.sh#L39" xlink:title="run">
<path fill="none" stroke="black" d="M251.85,-541.86C267.55,-535.48 287.3,-526.48 303.5,-516 315.05,-508.53 326.65,-498.85 336.42,-489.94"/>
<polygon fill="black" stroke="black" points="338.91,-492.41 343.81,-483.02 334.12,-487.3 338.91,-492.41"/>
</a>
</g>
<g id="a_edge5&#45;label"><a xlink:href="https://github.com/WardCunningham/search/blob/master/cron.sh#L39" xlink:title="run">
<text text-anchor="middle" x="334" y="-504.8" font-family="Times,serif" font-size="14.00">run</text>
</a>
</g>
</g>
<!-- 8 -->
<g id="node9" class="node">
<title>8</title>
<polygon fill="palegreen" stroke="black" points="335,-216 250,-216 250,-178 335,-178 335,-216"/>
<text text-anchor="middle" x="292.5" y="-200.8" font-family="Times,serif" font-size="14.00">Pages</text>
<text text-anchor="middle" x="292.5" y="-185.8" font-family="Times,serif" font-size="14.00">words.txt</text>
</g>
<!-- 1&#45;&gt;8 -->
<g id="edge16" class="edge">
<title>1&#45;&gt;8</title>
<g id="a_edge16"><a xlink:href="https://github.com/WardCunningham/search/blob/master/scrape.rb#L38" xlink:title="write">
<path fill="none" stroke="black" d="M292.5,-266.97C292.5,-255.19 292.5,-239.56 292.5,-226.16"/>
<polygon fill="black" stroke="black" points="296,-226 292.5,-216 289,-226 296,-226"/>
</a>
</g>
<g id="a_edge16&#45;label"><a xlink:href="https://github.com/WardCunningham/search/blob/master/scrape.rb#L38" xlink:title="write">
<text text-anchor="middle" x="311.5" y="-237.8" font-family="Times,serif" font-size="14.00">write</text>
</a>
</g>
</g>
<!-- 9 -->
<g id="node10" class="node">
<title>9</title>
<polygon fill="palegreen" stroke="black" points="232,-216 157,-216 157,-178 232,-178 232,-216"/>
<text text-anchor="middle" x="194.5" y="-200.8" font-family="Times,serif" font-size="14.00">Pages</text>
<text text-anchor="middle" x="194.5" y="-185.8" font-family="Times,serif" font-size="14.00">sites.txt</text>
</g>
<!-- 1&#45;&gt;9 -->
<g id="edge17" class="edge">
<title>1&#45;&gt;9</title>
<g id="a_edge17"><a xlink:href="https://github.com/WardCunningham/search/blob/master/scrape.rb#L38" xlink:title="write">
<path fill="none" stroke="black" d="M271.03,-266.81C264.41,-261.15 257.12,-254.85 250.5,-249 240.95,-240.57 230.61,-231.21 221.45,-222.84"/>
<polygon fill="black" stroke="black" points="223.8,-220.25 214.07,-216.08 219.08,-225.42 223.8,-220.25"/>
</a>
</g>
<g id="a_edge17&#45;label"><a xlink:href="https://github.com/WardCunningham/search/blob/master/scrape.rb#L38" xlink:title="write">
<text text-anchor="middle" x="269.5" y="-237.8" font-family="Times,serif" font-size="14.00">write</text>
</a>
</g>
</g>
<!-- 10 -->
<g id="node11" class="node">
<title>10</title>
<polygon fill="palegreen" stroke="black" points="85,-38 0,-38 0,0 85,0 85,-38"/>
<text text-anchor="middle" x="42.5" y="-22.8" font-family="Times,serif" font-size="14.00">Sites</text>
<text text-anchor="middle" x="42.5" y="-7.8" font-family="Times,serif" font-size="14.00">words.txt</text>
</g>
<!-- 2&#45;&gt;10 -->
<g id="edge11" class="edge">
<title>2&#45;&gt;10</title>
<g id="a_edge11"><a xlink:href="https://github.com/WardCunningham/search/blob/master/rollup.rb#L5" xlink:title="write">
<path fill="none" stroke="black" d="M164.93,-92.46C152.34,-86.1 137.58,-78.41 124.5,-71 109.28,-62.37 92.85,-52.31 78.71,-43.41"/>
<polygon fill="black" stroke="black" points="80.56,-40.43 70.24,-38.04 76.82,-46.35 80.56,-40.43"/>
</a>
</g>
<g id="a_edge11&#45;label"><a xlink:href="https://github.com/WardCunningham/search/blob/master/rollup.rb#L5" xlink:title="write">
<text text-anchor="middle" x="143.5" y="-59.8" font-family="Times,serif" font-size="14.00">write</text>
</a>
</g>
</g>
<!-- 11 -->
<g id="node12" class="node">
<title>11</title>
<polygon fill="palegreen" stroke="black" points="188,-38 103,-38 103,0 188,0 188,-38"/>
<text text-anchor="middle" x="145.5" y="-22.8" font-family="Times,serif" font-size="14.00">Search</text>
<text text-anchor="middle" x="145.5" y="-7.8" font-family="Times,serif" font-size="14.00">words.txt</text>
</g>
<!-- 2&#45;&gt;11 -->
<g id="edge12" class="edge">
<title>2&#45;&gt;11</title>
<g id="a_edge12"><a xlink:href="https://github.com/WardCunningham/search/blob/master/rollup.rb#L5" xlink:title="write">
<path fill="none" stroke="black" d="M184.35,-88.97C177.51,-76.84 168.38,-60.63 160.69,-46.97"/>
<polygon fill="black" stroke="black" points="163.6,-45 155.64,-38 157.5,-48.43 163.6,-45"/>
</a>
</g>
<g id="a_edge12&#45;label"><a xlink:href="https://github.com/WardCunningham/search/blob/master/rollup.rb#L5" xlink:title="write">
<text text-anchor="middle" x="191.5" y="-59.8" font-family="Times,serif" font-size="14.00">write</text>
</a>
</g>
</g>
<!-- 12 -->
<g id="node13" class="node">
<title>12</title>
<polygon fill="palegreen" stroke="black" points="281,-38 206,-38 206,0 281,0 281,-38"/>
<text text-anchor="middle" x="243.5" y="-22.8" font-family="Times,serif" font-size="14.00">Sites</text>
<text text-anchor="middle" x="243.5" y="-7.8" font-family="Times,serif" font-size="14.00">sites.txt</text>
</g>
<!-- 2&#45;&gt;12 -->
<g id="edge13" class="edge">
<title>2&#45;&gt;12</title>
<g id="a_edge13"><a xlink:href="https://github.com/WardCunningham/search/blob/master/rollup.rb#L6" xlink:title="write">
<path fill="none" stroke="black" d="M204.65,-88.97C211.49,-76.84 220.62,-60.63 228.31,-46.97"/>
<polygon fill="black" stroke="black" points="231.5,-48.43 233.36,-38 225.4,-45 231.5,-48.43"/>
</a>
</g>
<g id="a_edge13&#45;label"><a xlink:href="https://github.com/WardCunningham/search/blob/master/rollup.rb#L6" xlink:title="write">
<text text-anchor="middle" x="240.5" y="-59.8" font-family="Times,serif" font-size="14.00">write</text>
</a>
</g>
</g>
<!-- 13 -->
<g id="node14" class="node">
<title>13</title>
<polygon fill="palegreen" stroke="black" points="374,-38 299,-38 299,0 374,0 374,-38"/>
<text text-anchor="middle" x="336.5" y="-22.8" font-family="Times,serif" font-size="14.00">Search</text>
<text text-anchor="middle" x="336.5" y="-7.8" font-family="Times,serif" font-size="14.00">sites.txt</text>
</g>
<!-- 2&#45;&gt;13 -->
<g id="edge14" class="edge">
<title>2&#45;&gt;13</title>
<g id="a_edge14"><a xlink:href="https://github.com/WardCunningham/search/blob/master/rollup.rb#L6" xlink:title="write">
<path fill="none" stroke="black" d="M224.17,-92.58C236.53,-86.3 250.91,-78.64 263.5,-71 277.14,-62.72 291.64,-52.83 304.1,-43.98"/>
<polygon fill="black" stroke="black" points="306.28,-46.72 312.36,-38.04 302.2,-41.03 306.28,-46.72"/>
</a>
</g>
<g id="a_edge14&#45;label"><a xlink:href="https://github.com/WardCunningham/search/blob/master/rollup.rb#L6" xlink:title="write">
<text text-anchor="middle" x="304.5" y="-59.8" font-family="Times,serif" font-size="14.00">write</text>
</a>
</g>
</g>
<!-- 6 -->
<g id="node7" class="node">
<title>6</title>
<polygon fill="palegreen" stroke="black" points="374.5,-394 320.5,-394 320.5,-356 374.5,-356 374.5,-394"/>
<text text-anchor="middle" x="347.5" y="-378.8" font-family="Times,serif" font-size="14.00">Sites</text>
<text text-anchor="middle" x="347.5" y="-363.8" font-family="Times,serif" font-size="14.00">dir</text>
</g>
<!-- 5&#45;&gt;6 -->
<g id="edge8" class="edge">
<title>5&#45;&gt;6</title>
<g id="a_edge8"><a xlink:href="https://github.com/WardCunningham/search/blob/master/found.rb#L16" xlink:title="make">
<path fill="none" stroke="black" d="M373,-444.93C377.79,-435.12 381.42,-422.82 377.5,-412 376.3,-408.69 374.65,-405.46 372.73,-402.4"/>
<polygon fill="black" stroke="black" points="375.49,-400.24 366.78,-394.21 369.83,-404.36 375.49,-400.24"/>
</a>
</g>
<g id="a_edge8&#45;label"><a xlink:href="https://github.com/WardCunningham/search/blob/master/found.rb#L16" xlink:title="make">
<text text-anchor="middle" x="398" y="-415.8" font-family="Times,serif" font-size="14.00">make</text>
</a>
</g>
</g>
<!-- 6&#45;&gt;1 -->
<g id="edge15" class="edge">
<title>6&#45;&gt;1</title>
<g id="a_edge15"><a xlink:href="https://github.com/WardCunningham/search/blob/master/scrape.rb#L12" xlink:title="read">
<path fill="none" stroke="black" d="M330.68,-347.4C321.99,-333.65 311.62,-317.25 303.88,-305"/>
<polygon fill="black" stroke="black" points="327.8,-349.39 336.1,-355.97 333.72,-345.65 327.8,-349.39"/>
</a>
</g>
<g id="a_edge15&#45;label"><a xlink:href="https://github.com/WardCunningham/search/blob/master/scrape.rb#L12" xlink:title="read">
<text text-anchor="middle" x="339" y="-326.8" font-family="Times,serif" font-size="14.00">read</text>
</a>
</g>
</g>
<!-- 6&#45;&gt;5 -->
<g id="edge6" class="edge">
<title>6&#45;&gt;5</title>
<g id="a_edge6"><a xlink:href="https://github.com/WardCunningham/search/blob/master/found.rb#L6" xlink:title="read">
<path fill="none" stroke="black" d="M343.05,-404.21C342.63,-411.69 342.86,-419.71 344.5,-427 345.86,-433.07 348.37,-439.32 351.04,-444.88"/>
<polygon fill="black" stroke="black" points="346.55,-404.42 344.01,-394.14 339.58,-403.76 346.55,-404.42"/>
</a>
</g>
<g id="a_edge6&#45;label"><a xlink:href="https://github.com/WardCunningham/search/blob/master/found.rb#L6" xlink:title="read">
<text text-anchor="middle" x="361" y="-415.8" font-family="Times,serif" font-size="14.00">read</text>
</a>
</g>
</g>
<!-- 7 -->
<g id="node8" class="node">
<title>7</title>
<polygon fill="palegreen" stroke="black" points="408.5,-572 338.5,-572 338.5,-534 408.5,-534 408.5,-572"/>
<text text-anchor="middle" x="373.5" y="-556.8" font-family="Times,serif" font-size="14.00">Retired</text>
<text text-anchor="middle" x="373.5" y="-541.8" font-family="Times,serif" font-size="14.00">dir</text>
</g>
<!-- 7&#45;&gt;5 -->
<g id="edge7" class="edge">
<title>7&#45;&gt;5</title>
<g id="a_edge7"><a xlink:href="https://github.com/WardCunningham/search/blob/master/found.rb#L6" xlink:title="read">
<path fill="none" stroke="black" d="M369.61,-523.82C367.76,-510.41 365.61,-494.78 363.98,-483"/>
<polygon fill="black" stroke="black" points="366.18,-524.55 371.01,-533.97 373.11,-523.59 366.18,-524.55"/>
</a>
</g>
<g id="a_edge7&#45;label"><a xlink:href="https://github.com/WardCunningham/search/blob/master/found.rb#L6" xlink:title="read">
<text text-anchor="middle" x="384" y="-504.8" font-family="Times,serif" font-size="14.00">read</text>
</a>
</g>
</g>
<!-- 8&#45;&gt;2 -->
<g id="edge9" class="edge">
<title>8&#45;&gt;2</title>
<g id="a_edge9"><a xlink:href="https://github.com/WardCunningham/search/blob/master/rollup.rb#L3" xlink:title="read">
<path fill="none" stroke="black" d="M264.29,-170.96C248.47,-156.91 229.1,-139.71 214.78,-127"/>
<polygon fill="black" stroke="black" points="262.39,-173.95 272.19,-177.97 267.04,-168.72 262.39,-173.95"/>
</a>
</g>
<g id="a_edge9&#45;label"><a xlink:href="https://github.com/WardCunningham/search/blob/master/rollup.rb#L3" xlink:title="read">
<text text-anchor="middle" x="265" y="-148.8" font-family="Times,serif" font-size="14.00">read</text>
</a>
</g>
</g>
<!-- 9&#45;&gt;2 -->
<g id="edge10" class="edge">
<title>9&#45;&gt;2</title>
<g id="a_edge10"><a xlink:href="https://github.com/WardCunningham/search/blob/master/rollup.rb#L4" xlink:title="read">
<path fill="none" stroke="black" d="M194.5,-167.82C194.5,-154.41 194.5,-138.78 194.5,-127"/>
<polygon fill="black" stroke="black" points="191,-167.97 194.5,-177.97 198,-167.97 191,-167.97"/>
</a>
</g>
<g id="a_edge10&#45;label"><a xlink:href="https://github.com/WardCunningham/search/blob/master/rollup.rb#L4" xlink:title="read">
<text text-anchor="middle" x="211" y="-148.8" font-family="Times,serif" font-size="14.00">read</text>
</a>
</g>
</g>
</g>
</svg>
