<?xml version="1.0" encoding="UTF-8" standalone="no"?>
<!DOCTYPE svg PUBLIC "-//W3C//DTD SVG 1.1//EN"
 "http://www.w3.org/Graphics/SVG/1.1/DTD/svg11.dtd">
<!-- Generated by graphviz version 2.43.0 (0)
 -->
<!-- Title: %3 Pages: 1 -->
<svg width="1212pt" height="481pt"
 viewBox="0.00 0.00 1211.89 480.70" xmlns="http://www.w3.org/2000/svg" xmlns:xlink="http://www.w3.org/1999/xlink">
<g id="graph0" class="graph" transform="scale(1 1) rotate(0) translate(4 476.7)">
<title>%3</title>
<polygon fill="white" stroke="transparent" points="-4,4 -4,-476.7 1207.89,-476.7 1207.89,4 -4,4"/>
<!-- 0 -->
<g id="node1" class="node">
<title>0</title>
<ellipse fill="none" stroke="black" cx="539.86" cy="-445.83" rx="37.45" ry="26.74"/>
<text text-anchor="middle" x="539.86" y="-449.63" font-family="Times,serif" font-size="14.00">Shell</text>
<text text-anchor="middle" x="539.86" y="-434.63" font-family="Times,serif" font-size="14.00">cron</text>
</g>
<!-- 1 -->
<g id="node2" class="node">
<title>1</title>
<ellipse fill="none" stroke="black" cx="960.86" cy="-341.09" rx="45.01" ry="26.74"/>
<text text-anchor="middle" x="960.86" y="-344.89" font-family="Times,serif" font-size="14.00">Ruby</text>
<text text-anchor="middle" x="960.86" y="-329.89" font-family="Times,serif" font-size="14.00">scrape</text>
</g>
<!-- 0&#45;&gt;1 -->
<g id="edge1" class="edge">
<title>0&#45;&gt;1</title>
<path fill="none" stroke="black" d="M577.17,-442.84C655.65,-438.23 835.15,-425.29 890.86,-400.96 906.26,-394.23 920.89,-383.01 932.75,-372.16"/>
<polygon fill="black" stroke="black" points="935.31,-374.56 940.13,-365.13 930.48,-369.49 935.31,-374.56"/>
<text text-anchor="middle" x="926.36" y="-389.76" font-family="Times,serif" font-size="14.00">run</text>
</g>
<!-- 2 -->
<g id="node3" class="node">
<title>2</title>
<ellipse fill="none" stroke="black" cx="960.86" cy="-131.61" rx="41.94" ry="26.74"/>
<text text-anchor="middle" x="960.86" y="-135.41" font-family="Times,serif" font-size="14.00">Ruby</text>
<text text-anchor="middle" x="960.86" y="-120.41" font-family="Times,serif" font-size="14.00">rollup</text>
</g>
<!-- 0&#45;&gt;2 -->
<g id="edge2" class="edge">
<title>0&#45;&gt;2</title>
<path fill="none" stroke="black" d="M576.79,-440.82C652.37,-431.88 820.94,-407.87 860.86,-367.96 912.09,-316.75 866.9,-274.48 898.86,-209.48 907.27,-192.37 920.07,-175.63 931.86,-162.16"/>
<polygon fill="black" stroke="black" points="934.55,-164.4 938.65,-154.62 929.35,-159.71 934.55,-164.4"/>
<text text-anchor="middle" x="899.36" y="-285.02" font-family="Times,serif" font-size="14.00">run</text>
</g>
<!-- 3 -->
<g id="node4" class="node">
<title>3</title>
<ellipse fill="none" stroke="black" cx="55.86" cy="-341.09" rx="55.72" ry="26.74"/>
<text text-anchor="middle" x="55.86" y="-344.89" font-family="Times,serif" font-size="14.00">Search</text>
<text text-anchor="middle" x="55.86" y="-329.89" font-family="Times,serif" font-size="14.00">slugs.txt</text>
</g>
<!-- 0&#45;&gt;3 -->
<g id="edge3" class="edge">
<title>0&#45;&gt;3</title>
<path fill="none" stroke="black" d="M502.75,-440.94C428.82,-432.56 258.41,-410.05 120.86,-367.96 116.05,-366.49 111.09,-364.81 106.16,-363.04"/>
<polygon fill="black" stroke="black" points="107.35,-359.75 96.76,-359.54 104.91,-366.31 107.35,-359.75"/>
<text text-anchor="middle" x="264.86" y="-389.76" font-family="Times,serif" font-size="14.00">write</text>
</g>
<!-- 4 -->
<g id="node5" class="node">
<title>4</title>
<ellipse fill="none" stroke="black" cx="185.86" cy="-341.09" rx="55.72" ry="26.74"/>
<text text-anchor="middle" x="185.86" y="-344.89" font-family="Times,serif" font-size="14.00">Sites</text>
<text text-anchor="middle" x="185.86" y="-329.89" font-family="Times,serif" font-size="14.00">slugs.txt</text>
</g>
<!-- 0&#45;&gt;4 -->
<g id="edge4" class="edge">
<title>0&#45;&gt;4</title>
<path fill="none" stroke="black" d="M504.3,-436.89C449.34,-424.27 340.73,-397.99 250.86,-367.96 246.28,-366.43 241.55,-364.75 236.83,-363"/>
<polygon fill="black" stroke="black" points="237.81,-359.63 227.21,-359.35 235.32,-366.17 237.81,-359.63"/>
<text text-anchor="middle" x="372.86" y="-389.76" font-family="Times,serif" font-size="14.00">write</text>
</g>
<!-- 5 -->
<g id="node6" class="node">
<title>5</title>
<ellipse fill="none" stroke="black" cx="313.86" cy="-341.09" rx="54.39" ry="26.74"/>
<text text-anchor="middle" x="313.86" y="-344.89" font-family="Times,serif" font-size="14.00">Ruby</text>
<text text-anchor="middle" x="313.86" y="-329.89" font-family="Times,serif" font-size="14.00">site&#45;web</text>
</g>
<!-- 0&#45;&gt;5 -->
<g id="edge5" class="edge">
<title>0&#45;&gt;5</title>
<path fill="none" stroke="black" d="M508.44,-430.54C470.5,-413.3 406.31,-384.12 362.09,-364.02"/>
<polygon fill="black" stroke="black" points="363.53,-360.83 352.98,-359.87 360.63,-367.2 363.53,-360.83"/>
<text text-anchor="middle" x="457.36" y="-389.76" font-family="Times,serif" font-size="14.00">runs</text>
</g>
<!-- 6 -->
<g id="node7" class="node">
<title>6</title>
<ellipse fill="none" stroke="black" cx="463.86" cy="-341.09" rx="77.56" ry="26.74"/>
<text text-anchor="middle" x="463.86" y="-344.89" font-family="Times,serif" font-size="14.00">Public</text>
<text text-anchor="middle" x="463.86" y="-329.89" font-family="Times,serif" font-size="14.00">site&#45;web.json</text>
</g>
<!-- 0&#45;&gt;6 -->
<g id="edge6" class="edge">
<title>0&#45;&gt;6</title>
<path fill="none" stroke="black" d="M522.81,-421.77C512.69,-408.1 499.69,-390.52 488.47,-375.36"/>
<polygon fill="black" stroke="black" points="491.22,-373.19 482.46,-367.23 485.59,-377.35 491.22,-373.19"/>
<text text-anchor="middle" x="525.86" y="-389.76" font-family="Times,serif" font-size="14.00">write</text>
</g>
<!-- 7 -->
<g id="node8" class="node">
<title>7</title>
<ellipse fill="none" stroke="black" cx="615.86" cy="-341.09" rx="56.64" ry="26.74"/>
<text text-anchor="middle" x="615.86" y="-344.89" font-family="Times,serif" font-size="14.00">Ruby</text>
<text text-anchor="middle" x="615.86" y="-329.89" font-family="Times,serif" font-size="14.00">slug&#45;web</text>
</g>
<!-- 0&#45;&gt;7 -->
<g id="edge7" class="edge">
<title>0&#45;&gt;7</title>
<path fill="none" stroke="black" d="M556.92,-421.77C567.11,-408 580.22,-390.27 591.49,-375.03"/>
<polygon fill="black" stroke="black" points="594.4,-376.99 597.54,-366.86 588.77,-372.82 594.4,-376.99"/>
<text text-anchor="middle" x="599.36" y="-389.76" font-family="Times,serif" font-size="14.00">runs</text>
</g>
<!-- 8 -->
<g id="node9" class="node">
<title>8</title>
<ellipse fill="none" stroke="black" cx="770.86" cy="-341.09" rx="80.72" ry="26.74"/>
<text text-anchor="middle" x="770.86" y="-344.89" font-family="Times,serif" font-size="14.00">Public</text>
<text text-anchor="middle" x="770.86" y="-329.89" font-family="Times,serif" font-size="14.00">slug&#45;web.json</text>
</g>
<!-- 0&#45;&gt;8 -->
<g id="edge8" class="edge">
<title>0&#45;&gt;8</title>
<path fill="none" stroke="black" d="M571.5,-430.76C608.18,-414.44 669.35,-387.24 714.28,-367.25"/>
<polygon fill="black" stroke="black" points="715.89,-370.37 723.61,-363.11 713.05,-363.97 715.89,-370.37"/>
<text text-anchor="middle" x="688.86" y="-389.76" font-family="Times,serif" font-size="14.00">write</text>
</g>
<!-- 9 -->
<g id="node10" class="node">
<title>9</title>
<ellipse fill="none" stroke="black" cx="1091.86" cy="-236.35" rx="60.21" ry="26.74"/>
<text text-anchor="middle" x="1091.86" y="-240.15" font-family="Times,serif" font-size="14.00">Pages</text>
<text text-anchor="middle" x="1091.86" y="-225.15" font-family="Times,serif" font-size="14.00">words.txt</text>
</g>
<!-- 1&#45;&gt;9 -->
<g id="edge17" class="edge">
<title>1&#45;&gt;9</title>
<path fill="none" stroke="black" d="M987.37,-319.3C1006.73,-304.12 1033.23,-283.33 1054.7,-266.5"/>
<polygon fill="black" stroke="black" points="1056.95,-269.18 1062.66,-260.26 1052.63,-263.67 1056.95,-269.18"/>
<text text-anchor="middle" x="1052.86" y="-285.02" font-family="Times,serif" font-size="14.00">write</text>
</g>
<!-- 10 -->
<g id="node11" class="node">
<title>10</title>
<ellipse fill="none" stroke="black" cx="960.86" cy="-236.35" rx="53.07" ry="26.74"/>
<text text-anchor="middle" x="960.86" y="-240.15" font-family="Times,serif" font-size="14.00">Pages</text>
<text text-anchor="middle" x="960.86" y="-225.15" font-family="Times,serif" font-size="14.00">sites.txt</text>
</g>
<!-- 1&#45;&gt;10 -->
<g id="edge18" class="edge">
<title>1&#45;&gt;10</title>
<path fill="none" stroke="black" d="M960.86,-314.16C960.86,-301.88 960.86,-286.99 960.86,-273.6"/>
<polygon fill="black" stroke="black" points="964.36,-273.27 960.86,-263.27 957.36,-273.27 964.36,-273.27"/>
<text text-anchor="middle" x="979.86" y="-285.02" font-family="Times,serif" font-size="14.00">write</text>
</g>
<!-- 11 -->
<g id="node12" class="node">
<title>11</title>
<ellipse fill="none" stroke="black" cx="757.86" cy="-26.87" rx="60.21" ry="26.74"/>
<text text-anchor="middle" x="757.86" y="-30.67" font-family="Times,serif" font-size="14.00">Sites</text>
<text text-anchor="middle" x="757.86" y="-15.67" font-family="Times,serif" font-size="14.00">words.txt</text>
</g>
<!-- 2&#45;&gt;11 -->
<g id="edge11" class="edge">
<title>2&#45;&gt;11</title>
<path fill="none" stroke="black" d="M928.7,-114.33C895.72,-97.64 844.03,-71.48 806.14,-52.3"/>
<polygon fill="black" stroke="black" points="807.32,-48.98 796.82,-47.59 804.16,-55.23 807.32,-48.98"/>
<text text-anchor="middle" x="889.86" y="-75.54" font-family="Times,serif" font-size="14.00">write</text>
</g>
<!-- 12 -->
<g id="node13" class="node">
<title>12</title>
<ellipse fill="none" stroke="black" cx="895.86" cy="-26.87" rx="60.21" ry="26.74"/>
<text text-anchor="middle" x="895.86" y="-30.67" font-family="Times,serif" font-size="14.00">Search</text>
<text text-anchor="middle" x="895.86" y="-15.67" font-family="Times,serif" font-size="14.00">words.txt</text>
</g>
<!-- 2&#45;&gt;12 -->
<g id="edge12" class="edge">
<title>2&#45;&gt;12</title>
<path fill="none" stroke="black" d="M945.62,-106.52C937.17,-93.16 926.52,-76.33 917.25,-61.68"/>
<polygon fill="black" stroke="black" points="919.99,-59.46 911.68,-52.88 914.07,-63.2 919.99,-59.46"/>
<text text-anchor="middle" x="950.86" y="-75.54" font-family="Times,serif" font-size="14.00">write</text>
</g>
<!-- 13 -->
<g id="node14" class="node">
<title>13</title>
<ellipse fill="none" stroke="black" cx="1026.86" cy="-26.87" rx="53.07" ry="26.74"/>
<text text-anchor="middle" x="1026.86" y="-30.67" font-family="Times,serif" font-size="14.00">Sites</text>
<text text-anchor="middle" x="1026.86" y="-15.67" font-family="Times,serif" font-size="14.00">sites.txt</text>
</g>
<!-- 2&#45;&gt;13 -->
<g id="edge13" class="edge">
<title>2&#45;&gt;13</title>
<path fill="none" stroke="black" d="M976.34,-106.52C985.06,-92.94 996.09,-75.77 1005.62,-60.94"/>
<polygon fill="black" stroke="black" points="1008.57,-62.83 1011.03,-52.52 1002.68,-59.04 1008.57,-62.83"/>
<text text-anchor="middle" x="1015.86" y="-75.54" font-family="Times,serif" font-size="14.00">write</text>
</g>
<!-- 14 -->
<g id="node15" class="node">
<title>14</title>
<ellipse fill="none" stroke="black" cx="1150.86" cy="-26.87" rx="53.07" ry="26.74"/>
<text text-anchor="middle" x="1150.86" y="-30.67" font-family="Times,serif" font-size="14.00">Search</text>
<text text-anchor="middle" x="1150.86" y="-15.67" font-family="Times,serif" font-size="14.00">sites.txt</text>
</g>
<!-- 2&#45;&gt;14 -->
<g id="edge14" class="edge">
<title>2&#45;&gt;14</title>
<path fill="none" stroke="black" d="M992.24,-113.64C1023.39,-96.8 1071.44,-70.81 1106.5,-51.86"/>
<polygon fill="black" stroke="black" points="1108.43,-54.79 1115.56,-46.96 1105.1,-48.64 1108.43,-54.79"/>
<text text-anchor="middle" x="1085.86" y="-75.54" font-family="Times,serif" font-size="14.00">write</text>
</g>
<!-- 9&#45;&gt;2 -->
<g id="edge9" class="edge">
<title>9&#45;&gt;2</title>
<path fill="none" stroke="black" d="M1062.79,-212.55C1042.69,-196.79 1015.89,-175.77 994.81,-159.23"/>
<polygon fill="black" stroke="black" points="996.78,-156.33 986.75,-152.91 992.46,-161.84 996.78,-156.33"/>
<text text-anchor="middle" x="1050.36" y="-180.28" font-family="Times,serif" font-size="14.00">read</text>
</g>
<!-- 10&#45;&gt;2 -->
<g id="edge10" class="edge">
<title>10&#45;&gt;2</title>
<path fill="none" stroke="black" d="M960.86,-209.42C960.86,-197.14 960.86,-182.25 960.86,-168.86"/>
<polygon fill="black" stroke="black" points="964.36,-168.53 960.86,-158.53 957.36,-168.53 964.36,-168.53"/>
<text text-anchor="middle" x="977.36" y="-180.28" font-family="Times,serif" font-size="14.00">read</text>
</g>
<!-- 15 -->
<g id="node16" class="node">
<title>15</title>
<ellipse fill="none" stroke="black" cx="960.86" cy="-445.83" rx="37.45" ry="26.74"/>
<text text-anchor="middle" x="960.86" y="-449.63" font-family="Times,serif" font-size="14.00">Sites</text>
<text text-anchor="middle" x="960.86" y="-434.63" font-family="Times,serif" font-size="14.00">dir</text>
</g>
<!-- 15&#45;&gt;1 -->
<g id="edge15" class="edge">
<title>15&#45;&gt;1</title>
<path fill="none" stroke="black" d="M960.86,-418.9C960.86,-406.62 960.86,-391.73 960.86,-378.34"/>
<polygon fill="black" stroke="black" points="964.36,-378.01 960.86,-368.01 957.36,-378.01 964.36,-378.01"/>
<text text-anchor="middle" x="977.36" y="-389.76" font-family="Times,serif" font-size="14.00">read</text>
</g>
<!-- 16 -->
<g id="node17" class="node">
<title>16</title>
<ellipse fill="none" stroke="black" cx="1068.86" cy="-445.83" rx="52.15" ry="26.74"/>
<text text-anchor="middle" x="1068.86" y="-449.63" font-family="Times,serif" font-size="14.00">Wiki</text>
<text text-anchor="middle" x="1068.86" y="-434.63" font-family="Times,serif" font-size="14.00">sitemap</text>
</g>
<!-- 16&#45;&gt;1 -->
<g id="edge16" class="edge">
<title>16&#45;&gt;1</title>
<path fill="none" stroke="black" d="M1044.62,-421.77C1028.98,-406.9 1008.5,-387.41 991.7,-371.43"/>
<polygon fill="black" stroke="black" points="993.93,-368.72 984.28,-364.36 989.11,-373.79 993.93,-368.72"/>
<text text-anchor="middle" x="1039.36" y="-389.76" font-family="Times,serif" font-size="14.00">fetch</text>
</g>
</g>
</svg>
