<?xml version="1.0" encoding="UTF-8" standalone="no"?>
<!DOCTYPE svg PUBLIC "-//W3C//DTD SVG 1.1//EN"
 "http://www.w3.org/Graphics/SVG/1.1/DTD/svg11.dtd">
<!-- Generated by graphviz version 2.43.0 (0)
 -->
<!-- Title: %3 Pages: 1 -->
<svg width="1264pt" height="271pt"
 viewBox="0.00 0.00 1263.60 271.22" xmlns="http://www.w3.org/2000/svg" xmlns:xlink="http://www.w3.org/1999/xlink">
<g id="graph0" class="graph" transform="scale(1 1) rotate(0) translate(4 267.22)">
<title>%3</title>
<polygon fill="white" stroke="transparent" points="-4,4 -4,-267.22 1259.6,-267.22 1259.6,4 -4,4"/>
<!-- 0 -->
<g id="node1" class="node">
<title>0</title>
<ellipse fill="none" stroke="black" cx="919.1" cy="-236.35" rx="37.45" ry="26.74"/>
<text text-anchor="middle" x="919.1" y="-240.15" font-family="Times,serif" font-size="14.00">Shell</text>
<text text-anchor="middle" x="919.1" y="-225.15" font-family="Times,serif" font-size="14.00">cron</text>
</g>
<!-- 1 -->
<g id="node2" class="node">
<title>1</title>
<ellipse fill="none" stroke="black" cx="735.1" cy="-131.61" rx="45.01" ry="26.74"/>
<text text-anchor="middle" x="735.1" y="-135.41" font-family="Times,serif" font-size="14.00">Ruby</text>
<text text-anchor="middle" x="735.1" y="-120.41" font-family="Times,serif" font-size="14.00">scrape</text>
</g>
<!-- 0&#45;&gt;1 -->
<g id="edge1" class="edge">
<title>0&#45;&gt;1</title>
<path fill="none" stroke="black" d="M889.95,-219.07C859.34,-201.98 810.97,-174.97 776.43,-155.69"/>
<polygon fill="black" stroke="black" points="777.97,-152.54 767.53,-150.72 774.56,-158.65 777.97,-152.54"/>
<text text-anchor="middle" x="851.6" y="-180.28" font-family="Times,serif" font-size="14.00">run</text>
</g>
<!-- 2 -->
<g id="node3" class="node">
<title>2</title>
<ellipse fill="none" stroke="black" cx="446.1" cy="-131.61" rx="41.94" ry="26.74"/>
<text text-anchor="middle" x="446.1" y="-135.41" font-family="Times,serif" font-size="14.00">Ruby</text>
<text text-anchor="middle" x="446.1" y="-120.41" font-family="Times,serif" font-size="14.00">rollup</text>
</g>
<!-- 0&#45;&gt;2 -->
<g id="edge2" class="edge">
<title>0&#45;&gt;2</title>
<path fill="none" stroke="black" d="M883.55,-227.63C800.01,-209.48 591.06,-164.1 495.37,-143.31"/>
<polygon fill="black" stroke="black" points="495.88,-139.84 485.37,-141.14 494.4,-146.68 495.88,-139.84"/>
<text text-anchor="middle" x="723.6" y="-180.28" font-family="Times,serif" font-size="14.00">run</text>
</g>
<!-- 3 -->
<g id="node4" class="node">
<title>3</title>
<ellipse fill="none" stroke="black" cx="854.1" cy="-131.61" rx="55.72" ry="26.74"/>
<text text-anchor="middle" x="854.1" y="-135.41" font-family="Times,serif" font-size="14.00">Search</text>
<text text-anchor="middle" x="854.1" y="-120.41" font-family="Times,serif" font-size="14.00">slugs.txt</text>
</g>
<!-- 0&#45;&gt;3 -->
<g id="edge3" class="edge">
<title>0&#45;&gt;3</title>
<path fill="none" stroke="black" d="M904.03,-211.52C895.58,-198.17 884.9,-181.29 875.59,-166.58"/>
<polygon fill="black" stroke="black" points="878.31,-164.32 870,-157.74 872.39,-168.07 878.31,-164.32"/>
<text text-anchor="middle" x="910.1" y="-180.28" font-family="Times,serif" font-size="14.00">write</text>
</g>
<!-- 4 -->
<g id="node5" class="node">
<title>4</title>
<ellipse fill="none" stroke="black" cx="984.1" cy="-131.61" rx="55.72" ry="26.74"/>
<text text-anchor="middle" x="984.1" y="-135.41" font-family="Times,serif" font-size="14.00">Sites</text>
<text text-anchor="middle" x="984.1" y="-120.41" font-family="Times,serif" font-size="14.00">slugs.txt</text>
</g>
<!-- 0&#45;&gt;4 -->
<g id="edge4" class="edge">
<title>0&#45;&gt;4</title>
<path fill="none" stroke="black" d="M934.18,-211.52C942.63,-198.17 953.3,-181.29 962.62,-166.58"/>
<polygon fill="black" stroke="black" points="965.81,-168.07 968.2,-157.74 959.9,-164.32 965.81,-168.07"/>
<text text-anchor="middle" x="975.1" y="-180.28" font-family="Times,serif" font-size="14.00">write</text>
</g>
<!-- 5 -->
<g id="node6" class="node">
<title>5</title>
<ellipse fill="none" stroke="black" cx="1098.1" cy="-131.61" rx="40.11" ry="26.74"/>
<text text-anchor="middle" x="1098.1" y="-135.41" font-family="Times,serif" font-size="14.00">Ruby</text>
<text text-anchor="middle" x="1098.1" y="-120.41" font-family="Times,serif" font-size="14.00">found</text>
</g>
<!-- 0&#45;&gt;5 -->
<g id="edge5" class="edge">
<title>0&#45;&gt;5</title>
<path fill="none" stroke="black" d="M948.47,-219.27C963.38,-211.05 981.76,-200.83 998.1,-191.48 1018.54,-179.79 1041.16,-166.5 1059.71,-155.52"/>
<polygon fill="black" stroke="black" points="1061.65,-158.44 1068.46,-150.32 1058.08,-152.42 1061.65,-158.44"/>
<text text-anchor="middle" x="1035.6" y="-180.28" font-family="Times,serif" font-size="14.00">run</text>
</g>
<!-- 6 -->
<g id="node7" class="node">
<title>6</title>
<ellipse fill="none" stroke="black" cx="1206.1" cy="-131.61" rx="49.49" ry="26.74"/>
<text text-anchor="middle" x="1206.1" y="-135.41" font-family="Times,serif" font-size="14.00">Ruby</text>
<text text-anchor="middle" x="1206.1" y="-120.41" font-family="Times,serif" font-size="14.00">activity</text>
</g>
<!-- 0&#45;&gt;6 -->
<g id="edge6" class="edge">
<title>0&#45;&gt;6</title>
<path fill="none" stroke="black" d="M953.47,-224.91C998.43,-210.99 1079.44,-185.02 1147.1,-158.48 1151.09,-156.92 1155.2,-155.25 1159.31,-153.53"/>
<polygon fill="black" stroke="black" points="1161,-156.61 1168.84,-149.48 1158.26,-150.17 1161,-156.61"/>
<text text-anchor="middle" x="1114.6" y="-180.28" font-family="Times,serif" font-size="14.00">runs</text>
</g>
<!-- 9 -->
<g id="node10" class="node">
<title>9</title>
<ellipse fill="none" stroke="black" cx="708.1" cy="-26.87" rx="60.21" ry="26.74"/>
<text text-anchor="middle" x="708.1" y="-30.67" font-family="Times,serif" font-size="14.00">Pages</text>
<text text-anchor="middle" x="708.1" y="-15.67" font-family="Times,serif" font-size="14.00">words.txt</text>
</g>
<!-- 1&#45;&gt;9 -->
<g id="edge18" class="edge">
<title>1&#45;&gt;9</title>
<path fill="none" stroke="black" d="M728.36,-104.95C725.1,-92.54 721.13,-77.43 717.57,-63.9"/>
<polygon fill="black" stroke="black" points="720.88,-62.7 714.95,-53.92 714.11,-64.48 720.88,-62.7"/>
<text text-anchor="middle" x="743.1" y="-75.54" font-family="Times,serif" font-size="14.00">write</text>
</g>
<!-- 10 -->
<g id="node11" class="node">
<title>10</title>
<ellipse fill="none" stroke="black" cx="577.1" cy="-26.87" rx="53.07" ry="26.74"/>
<text text-anchor="middle" x="577.1" y="-30.67" font-family="Times,serif" font-size="14.00">Pages</text>
<text text-anchor="middle" x="577.1" y="-15.67" font-family="Times,serif" font-size="14.00">sites.txt</text>
</g>
<!-- 1&#45;&gt;10 -->
<g id="edge19" class="edge">
<title>1&#45;&gt;10</title>
<path fill="none" stroke="black" d="M705.39,-111.29C680.54,-95.13 644.87,-71.94 617.45,-54.1"/>
<polygon fill="black" stroke="black" points="619.15,-51.04 608.86,-48.52 615.33,-56.9 619.15,-51.04"/>
<text text-anchor="middle" x="685.1" y="-75.54" font-family="Times,serif" font-size="14.00">write</text>
</g>
<!-- 15 -->
<g id="node16" class="node">
<title>15</title>
<ellipse fill="none" stroke="black" cx="824.1" cy="-26.87" rx="37.45" ry="26.74"/>
<text text-anchor="middle" x="824.1" y="-30.67" font-family="Times,serif" font-size="14.00">Sites</text>
<text text-anchor="middle" x="824.1" y="-15.67" font-family="Times,serif" font-size="14.00">dir</text>
</g>
<!-- 1&#45;&gt;15 -->
<g id="edge16" class="edge">
<title>1&#45;&gt;15</title>
<path fill="none" stroke="black" d="M755.3,-107.3C767.96,-92.68 784.42,-73.68 798.06,-57.93"/>
<polygon fill="black" stroke="black" points="801,-59.88 804.9,-50.03 795.71,-55.3 801,-59.88"/>
<text text-anchor="middle" x="801.6" y="-75.54" font-family="Times,serif" font-size="14.00">read</text>
</g>
<!-- 16 -->
<g id="node17" class="node">
<title>16</title>
<ellipse fill="none" stroke="black" cx="932.1" cy="-26.87" rx="52.15" ry="26.74"/>
<text text-anchor="middle" x="932.1" y="-30.67" font-family="Times,serif" font-size="14.00">Wiki</text>
<text text-anchor="middle" x="932.1" y="-15.67" font-family="Times,serif" font-size="14.00">sitemap</text>
</g>
<!-- 1&#45;&gt;16 -->
<g id="edge17" class="edge">
<title>1&#45;&gt;16</title>
<path fill="none" stroke="black" d="M769.08,-113.72C785.2,-105.64 804.69,-95.79 822.1,-86.74 843.94,-75.39 868.06,-62.53 888.13,-51.72"/>
<polygon fill="black" stroke="black" points="889.91,-54.74 897.05,-46.91 886.58,-48.58 889.91,-54.74"/>
<text text-anchor="middle" x="868.6" y="-75.54" font-family="Times,serif" font-size="14.00">fetch</text>
</g>
<!-- 2&#45;&gt;9 -->
<g id="edge10" class="edge">
<title>2&#45;&gt;9</title>
<path fill="none" stroke="black" d="M481.17,-116.86C525.54,-99.46 602.41,-69.32 654.24,-48.99"/>
<polygon fill="black" stroke="black" points="655.59,-52.22 663.62,-45.31 653.03,-45.71 655.59,-52.22"/>
<text text-anchor="middle" x="609.6" y="-75.54" font-family="Times,serif" font-size="14.00">read</text>
</g>
<!-- 2&#45;&gt;10 -->
<g id="edge11" class="edge">
<title>2&#45;&gt;10</title>
<path fill="none" stroke="black" d="M471.99,-110.31C491.69,-94.86 519.05,-73.4 540.92,-56.25"/>
<polygon fill="black" stroke="black" points="543.3,-58.83 549.01,-49.9 538.98,-53.32 543.3,-58.83"/>
<text text-anchor="middle" x="536.6" y="-75.54" font-family="Times,serif" font-size="14.00">read</text>
</g>
<!-- 11 -->
<g id="node12" class="node">
<title>11</title>
<ellipse fill="none" stroke="black" cx="446.1" cy="-26.87" rx="60.21" ry="26.74"/>
<text text-anchor="middle" x="446.1" y="-30.67" font-family="Times,serif" font-size="14.00">Sites</text>
<text text-anchor="middle" x="446.1" y="-15.67" font-family="Times,serif" font-size="14.00">words.txt</text>
</g>
<!-- 2&#45;&gt;11 -->
<g id="edge12" class="edge">
<title>2&#45;&gt;11</title>
<path fill="none" stroke="black" d="M446.1,-104.68C446.1,-92.4 446.1,-77.51 446.1,-64.12"/>
<polygon fill="black" stroke="black" points="449.6,-63.79 446.1,-53.79 442.6,-63.79 449.6,-63.79"/>
<text text-anchor="middle" x="465.1" y="-75.54" font-family="Times,serif" font-size="14.00">write</text>
</g>
<!-- 12 -->
<g id="node13" class="node">
<title>12</title>
<ellipse fill="none" stroke="black" cx="60.1" cy="-26.87" rx="60.21" ry="26.74"/>
<text text-anchor="middle" x="60.1" y="-30.67" font-family="Times,serif" font-size="14.00">Search</text>
<text text-anchor="middle" x="60.1" y="-15.67" font-family="Times,serif" font-size="14.00">words.txt</text>
</g>
<!-- 2&#45;&gt;12 -->
<g id="edge13" class="edge">
<title>2&#45;&gt;12</title>
<path fill="none" stroke="black" d="M406.58,-122.87C346.12,-110.62 227.34,-84.93 129.1,-53.74 124.2,-52.18 119.13,-50.48 114.08,-48.71"/>
<polygon fill="black" stroke="black" points="115.01,-45.32 104.41,-45.25 112.65,-51.91 115.01,-45.32"/>
<text text-anchor="middle" x="261.1" y="-75.54" font-family="Times,serif" font-size="14.00">write</text>
</g>
<!-- 13 -->
<g id="node14" class="node">
<title>13</title>
<ellipse fill="none" stroke="black" cx="191.1" cy="-26.87" rx="53.07" ry="26.74"/>
<text text-anchor="middle" x="191.1" y="-30.67" font-family="Times,serif" font-size="14.00">Sites</text>
<text text-anchor="middle" x="191.1" y="-15.67" font-family="Times,serif" font-size="14.00">sites.txt</text>
</g>
<!-- 2&#45;&gt;13 -->
<g id="edge14" class="edge">
<title>2&#45;&gt;13</title>
<path fill="none" stroke="black" d="M410.5,-117.38C387.72,-108.83 357.58,-97.35 331.1,-86.74 300.81,-74.59 267.07,-60.43 240.31,-49.04"/>
<polygon fill="black" stroke="black" points="241.36,-45.68 230.79,-44.97 238.61,-52.12 241.36,-45.68"/>
<text text-anchor="middle" x="350.1" y="-75.54" font-family="Times,serif" font-size="14.00">write</text>
</g>
<!-- 14 -->
<g id="node15" class="node">
<title>14</title>
<ellipse fill="none" stroke="black" cx="315.1" cy="-26.87" rx="53.07" ry="26.74"/>
<text text-anchor="middle" x="315.1" y="-30.67" font-family="Times,serif" font-size="14.00">Search</text>
<text text-anchor="middle" x="315.1" y="-15.67" font-family="Times,serif" font-size="14.00">sites.txt</text>
</g>
<!-- 2&#45;&gt;14 -->
<g id="edge15" class="edge">
<title>2&#45;&gt;14</title>
<path fill="none" stroke="black" d="M420.22,-110.31C400.52,-94.86 373.15,-73.4 351.28,-56.25"/>
<polygon fill="black" stroke="black" points="353.23,-53.32 343.2,-49.9 348.91,-58.83 353.23,-53.32"/>
<text text-anchor="middle" x="408.1" y="-75.54" font-family="Times,serif" font-size="14.00">write</text>
</g>
<!-- 7 -->
<g id="node8" class="node">
<title>7</title>
<ellipse fill="none" stroke="black" cx="1052.1" cy="-26.87" rx="50.09" ry="18"/>
<text text-anchor="middle" x="1052.1" y="-23.17" font-family="Times,serif" font-size="14.00">Sites.dir</text>
</g>
<!-- 5&#45;&gt;7 -->
<g id="edge7" class="edge">
<title>5&#45;&gt;7</title>
<path fill="none" stroke="black" d="M1069.28,-112.46C1060.85,-105.53 1052.68,-96.84 1048.1,-86.74 1043.63,-76.87 1043.54,-65.11 1044.97,-54.71"/>
<polygon fill="black" stroke="black" points="1048.41,-55.34 1046.8,-44.87 1041.53,-54.06 1048.41,-55.34"/>
<text text-anchor="middle" x="1064.6" y="-75.54" font-family="Times,serif" font-size="14.00">read</text>
</g>
<!-- 5&#45;&gt;7 -->
<g id="edge9" class="edge">
<title>5&#45;&gt;7</title>
<path fill="none" stroke="black" d="M1092.46,-104.79C1089.7,-94.28 1085.92,-82.17 1081.1,-71.74 1078.17,-65.39 1074.4,-58.91 1070.55,-52.95"/>
<polygon fill="black" stroke="black" points="1073.45,-50.99 1064.95,-44.67 1067.65,-54.91 1073.45,-50.99"/>
<text text-anchor="middle" x="1106.6" y="-75.54" font-family="Times,serif" font-size="14.00">make</text>
</g>
<!-- 8 -->
<g id="node9" class="node">
<title>8</title>
<ellipse fill="none" stroke="black" cx="1182.1" cy="-26.87" rx="61.99" ry="18"/>
<text text-anchor="middle" x="1182.1" y="-23.17" font-family="Times,serif" font-size="14.00">Retired.dir</text>
</g>
<!-- 5&#45;&gt;8 -->
<g id="edge8" class="edge">
<title>5&#45;&gt;8</title>
<path fill="none" stroke="black" d="M1116.96,-107.55C1130.42,-91.08 1148.51,-68.96 1162.21,-52.2"/>
<polygon fill="black" stroke="black" points="1164.92,-54.41 1168.54,-44.46 1159.5,-49.98 1164.92,-54.41"/>
<text text-anchor="middle" x="1162.6" y="-75.54" font-family="Times,serif" font-size="14.00">read</text>
</g>
</g>
</svg>
