<?xml version="1.0" encoding="UTF-8" standalone="no"?>
<!DOCTYPE svg PUBLIC "-//W3C//DTD SVG 1.1//EN"
 "http://www.w3.org/Graphics/SVG/1.1/DTD/svg11.dtd">
<!-- Generated by graphviz version 2.43.0 (0)
 -->
<!-- Title: %3 Pages: 1 -->
<svg width="951pt" height="224pt"
 viewBox="0.00 0.00 951.00 224.00" xmlns="http://www.w3.org/2000/svg" xmlns:xlink="http://www.w3.org/1999/xlink">
<g id="graph0" class="graph" transform="scale(1 1) rotate(0) translate(4 220)">
<title>%3</title>
<polygon fill="white" stroke="transparent" points="-4,4 -4,-220 947,-220 947,4 -4,4"/>
<!-- 0 -->
<g id="node1" class="node">
<title>0</title>
<polygon fill="palegreen" stroke="black" points="672.5,-216 618.5,-216 618.5,-178 672.5,-178 672.5,-216"/>
<text text-anchor="middle" x="645.5" y="-200.8" font-family="Times,serif" font-size="14.00">Shell</text>
<text text-anchor="middle" x="645.5" y="-185.8" font-family="Times,serif" font-size="14.00">cron</text>
</g>
<!-- 1 -->
<g id="node2" class="node">
<title>1</title>
<polygon fill="palegreen" stroke="black" points="587.5,-127 523.5,-127 523.5,-89 587.5,-89 587.5,-127"/>
<text text-anchor="middle" x="555.5" y="-111.8" font-family="Times,serif" font-size="14.00">Ruby</text>
<text text-anchor="middle" x="555.5" y="-96.8" font-family="Times,serif" font-size="14.00">scrape</text>
</g>
<!-- 0&#45;&gt;1 -->
<g id="edge1" class="edge">
<title>0&#45;&gt;1</title>
<path fill="none" stroke="black" d="M626.85,-177.97C613.7,-165.26 595.91,-148.06 581.38,-134.02"/>
<polygon fill="black" stroke="black" points="583.75,-131.44 574.12,-127 578.88,-136.47 583.75,-131.44"/>
<text text-anchor="middle" x="619" y="-148.8" font-family="Times,serif" font-size="14.00">run</text>
</g>
<!-- 2 -->
<g id="node3" class="node">
<title>2</title>
<polygon fill="palegreen" stroke="black" points="350,-127 291,-127 291,-89 350,-89 350,-127"/>
<text text-anchor="middle" x="320.5" y="-111.8" font-family="Times,serif" font-size="14.00">Ruby</text>
<text text-anchor="middle" x="320.5" y="-96.8" font-family="Times,serif" font-size="14.00">rollup</text>
</g>
<!-- 0&#45;&gt;2 -->
<g id="edge2" class="edge">
<title>0&#45;&gt;2</title>
<path fill="none" stroke="black" d="M618.35,-188.73C560.89,-173.35 426.77,-137.45 359.89,-119.54"/>
<polygon fill="black" stroke="black" points="360.7,-116.14 350.14,-116.93 358.89,-122.9 360.7,-116.14"/>
<text text-anchor="middle" x="515" y="-148.8" font-family="Times,serif" font-size="14.00">run</text>
</g>
<!-- 3 -->
<g id="node4" class="node">
<title>3</title>
<polygon fill="palegreen" stroke="black" points="685,-127 606,-127 606,-89 685,-89 685,-127"/>
<text text-anchor="middle" x="645.5" y="-111.8" font-family="Times,serif" font-size="14.00">Search</text>
<text text-anchor="middle" x="645.5" y="-96.8" font-family="Times,serif" font-size="14.00">slugs.txt</text>
</g>
<!-- 0&#45;&gt;3 -->
<g id="edge3" class="edge">
<title>0&#45;&gt;3</title>
<path fill="none" stroke="black" d="M645.5,-177.97C645.5,-166.19 645.5,-150.56 645.5,-137.16"/>
<polygon fill="black" stroke="black" points="649,-137 645.5,-127 642,-137 649,-137"/>
<text text-anchor="middle" x="664.5" y="-148.8" font-family="Times,serif" font-size="14.00">write</text>
</g>
<!-- 4 -->
<g id="node5" class="node">
<title>4</title>
<polygon fill="palegreen" stroke="black" points="782,-127 703,-127 703,-89 782,-89 782,-127"/>
<text text-anchor="middle" x="742.5" y="-111.8" font-family="Times,serif" font-size="14.00">Sites</text>
<text text-anchor="middle" x="742.5" y="-96.8" font-family="Times,serif" font-size="14.00">slugs.txt</text>
</g>
<!-- 0&#45;&gt;4 -->
<g id="edge4" class="edge">
<title>0&#45;&gt;4</title>
<path fill="none" stroke="black" d="M667.01,-177.85C673.63,-172.18 680.91,-165.88 687.5,-160 696.82,-151.69 706.88,-142.45 715.81,-134.14"/>
<polygon fill="black" stroke="black" points="718.4,-136.51 723.32,-127.12 713.63,-131.39 718.4,-136.51"/>
<text text-anchor="middle" x="722.5" y="-148.8" font-family="Times,serif" font-size="14.00">write</text>
</g>
<!-- 5 -->
<g id="node6" class="node">
<title>5</title>
<polygon fill="palegreen" stroke="black" points="858,-127 801,-127 801,-89 858,-89 858,-127"/>
<text text-anchor="middle" x="829.5" y="-111.8" font-family="Times,serif" font-size="14.00">Ruby</text>
<text text-anchor="middle" x="829.5" y="-96.8" font-family="Times,serif" font-size="14.00">found</text>
</g>
<!-- 0&#45;&gt;5 -->
<g id="edge5" class="edge">
<title>0&#45;&gt;5</title>
<path fill="none" stroke="black" d="M672.83,-187.8C693.28,-181.27 721.69,-171.37 745.5,-160 761.95,-152.14 779.29,-141.96 793.93,-132.77"/>
<polygon fill="black" stroke="black" points="796.11,-135.53 802.65,-127.2 792.34,-129.63 796.11,-135.53"/>
<text text-anchor="middle" x="785" y="-148.8" font-family="Times,serif" font-size="14.00">run</text>
</g>
<!-- 8 -->
<g id="node9" class="node">
<title>8</title>
<polygon fill="palegreen" stroke="black" points="570,-38 485,-38 485,0 570,0 570,-38"/>
<text text-anchor="middle" x="527.5" y="-22.8" font-family="Times,serif" font-size="14.00">Pages</text>
<text text-anchor="middle" x="527.5" y="-7.8" font-family="Times,serif" font-size="14.00">words.txt</text>
</g>
<!-- 1&#45;&gt;8 -->
<g id="edge17" class="edge">
<title>1&#45;&gt;8</title>
<path fill="none" stroke="black" d="M549.7,-88.97C545.87,-77.08 540.78,-61.25 536.43,-47.76"/>
<polygon fill="black" stroke="black" points="539.69,-46.45 533.29,-38 533.03,-48.59 539.69,-46.45"/>
<text text-anchor="middle" x="562.5" y="-59.8" font-family="Times,serif" font-size="14.00">write</text>
</g>
<!-- 9 -->
<g id="node10" class="node">
<title>9</title>
<polygon fill="palegreen" stroke="black" points="467,-38 392,-38 392,0 467,0 467,-38"/>
<text text-anchor="middle" x="429.5" y="-22.8" font-family="Times,serif" font-size="14.00">Pages</text>
<text text-anchor="middle" x="429.5" y="-7.8" font-family="Times,serif" font-size="14.00">sites.txt</text>
</g>
<!-- 1&#45;&gt;9 -->
<g id="edge18" class="edge">
<title>1&#45;&gt;9</title>
<path fill="none" stroke="black" d="M525.94,-88.91C517.03,-83.3 507.29,-77.01 498.5,-71 486.13,-62.54 472.83,-52.86 461.24,-44.21"/>
<polygon fill="black" stroke="black" points="463.24,-41.34 453.14,-38.14 459.04,-46.94 463.24,-41.34"/>
<text text-anchor="middle" x="517.5" y="-59.8" font-family="Times,serif" font-size="14.00">write</text>
</g>
<!-- 14 -->
<g id="node15" class="node">
<title>14</title>
<polygon fill="palegreen" stroke="black" points="642.5,-38 588.5,-38 588.5,0 642.5,0 642.5,-38"/>
<text text-anchor="middle" x="615.5" y="-22.8" font-family="Times,serif" font-size="14.00">Sites</text>
<text text-anchor="middle" x="615.5" y="-7.8" font-family="Times,serif" font-size="14.00">dir</text>
</g>
<!-- 1&#45;&gt;14 -->
<g id="edge15" class="edge">
<title>1&#45;&gt;14</title>
<path fill="none" stroke="black" d="M571.67,-88.77C576.33,-83.22 581.29,-76.99 585.5,-71 590.77,-63.51 596.01,-55.06 600.59,-47.22"/>
<polygon fill="black" stroke="black" points="603.72,-48.8 605.64,-38.39 597.64,-45.33 603.72,-48.8"/>
<text text-anchor="middle" x="612" y="-59.8" font-family="Times,serif" font-size="14.00">read</text>
</g>
<!-- 15 -->
<g id="node16" class="node">
<title>15</title>
<polygon fill="palegreen" stroke="black" points="734.5,-38 660.5,-38 660.5,0 734.5,0 734.5,-38"/>
<text text-anchor="middle" x="697.5" y="-22.8" font-family="Times,serif" font-size="14.00">Wiki</text>
<text text-anchor="middle" x="697.5" y="-7.8" font-family="Times,serif" font-size="14.00">sitemap</text>
</g>
<!-- 1&#45;&gt;15 -->
<g id="edge16" class="edge">
<title>1&#45;&gt;15</title>
<path fill="none" stroke="black" d="M587.56,-92.89C604.9,-85.09 624.39,-75.99 632.5,-71 645.06,-63.28 658.01,-53.53 669.02,-44.64"/>
<polygon fill="black" stroke="black" points="671.53,-47.11 677.02,-38.05 667.08,-41.7 671.53,-47.11"/>
<text text-anchor="middle" x="672" y="-59.8" font-family="Times,serif" font-size="14.00">fetch</text>
</g>
<!-- 2&#45;&gt;8 -->
<g id="edge9" class="edge">
<title>2&#45;&gt;8</title>
<path fill="none" stroke="black" d="M350.17,-97.29C369.2,-90.69 394.23,-81.31 415.5,-71 427.16,-65.35 428.93,-61.83 440.5,-56 451.56,-50.43 463.7,-45 475.31,-40.12"/>
<polygon fill="black" stroke="black" points="476.99,-43.21 484.9,-36.16 474.32,-36.74 476.99,-43.21"/>
<text text-anchor="middle" x="457" y="-59.8" font-family="Times,serif" font-size="14.00">read</text>
</g>
<!-- 2&#45;&gt;9 -->
<g id="edge10" class="edge">
<title>2&#45;&gt;9</title>
<path fill="none" stroke="black" d="M342.16,-88.88C353.99,-79.05 368.96,-66.75 382.5,-56 387.24,-52.23 392.3,-48.29 397.26,-44.46"/>
<polygon fill="black" stroke="black" points="399.67,-47.02 405.47,-38.15 395.4,-41.47 399.67,-47.02"/>
<text text-anchor="middle" x="399" y="-59.8" font-family="Times,serif" font-size="14.00">read</text>
</g>
<!-- 10 -->
<g id="node11" class="node">
<title>10</title>
<polygon fill="palegreen" stroke="black" points="374,-38 289,-38 289,0 374,0 374,-38"/>
<text text-anchor="middle" x="331.5" y="-22.8" font-family="Times,serif" font-size="14.00">Sites</text>
<text text-anchor="middle" x="331.5" y="-7.8" font-family="Times,serif" font-size="14.00">words.txt</text>
</g>
<!-- 2&#45;&gt;10 -->
<g id="edge11" class="edge">
<title>2&#45;&gt;10</title>
<path fill="none" stroke="black" d="M319.76,-88.97C319.63,-79.17 319.91,-66.87 321.5,-56 321.89,-53.32 322.42,-50.57 323.03,-47.82"/>
<polygon fill="black" stroke="black" points="326.43,-48.68 325.51,-38.12 319.64,-46.95 326.43,-48.68"/>
<text text-anchor="middle" x="340.5" y="-59.8" font-family="Times,serif" font-size="14.00">write</text>
</g>
<!-- 11 -->
<g id="node12" class="node">
<title>11</title>
<polygon fill="palegreen" stroke="black" points="85,-38 0,-38 0,0 85,0 85,-38"/>
<text text-anchor="middle" x="42.5" y="-22.8" font-family="Times,serif" font-size="14.00">Search</text>
<text text-anchor="middle" x="42.5" y="-7.8" font-family="Times,serif" font-size="14.00">words.txt</text>
</g>
<!-- 2&#45;&gt;11 -->
<g id="edge12" class="edge">
<title>2&#45;&gt;11</title>
<path fill="none" stroke="black" d="M290.79,-102.45C257.37,-96.88 201.71,-86.28 155.5,-71 132.11,-63.26 107.04,-52.25 86.48,-42.44"/>
<polygon fill="black" stroke="black" points="87.89,-39.23 77.37,-38.03 84.84,-45.53 87.89,-39.23"/>
<text text-anchor="middle" x="174.5" y="-59.8" font-family="Times,serif" font-size="14.00">write</text>
</g>
<!-- 12 -->
<g id="node13" class="node">
<title>12</title>
<polygon fill="palegreen" stroke="black" points="178,-38 103,-38 103,0 178,0 178,-38"/>
<text text-anchor="middle" x="140.5" y="-22.8" font-family="Times,serif" font-size="14.00">Sites</text>
<text text-anchor="middle" x="140.5" y="-7.8" font-family="Times,serif" font-size="14.00">sites.txt</text>
</g>
<!-- 2&#45;&gt;12 -->
<g id="edge13" class="edge">
<title>2&#45;&gt;12</title>
<path fill="none" stroke="black" d="M290.69,-97.81C270.92,-91.3 244.65,-81.82 222.5,-71 206.41,-63.14 189.47,-52.96 175.19,-43.76"/>
<polygon fill="black" stroke="black" points="176.96,-40.74 166.67,-38.2 173.12,-46.6 176.96,-40.74"/>
<text text-anchor="middle" x="241.5" y="-59.8" font-family="Times,serif" font-size="14.00">write</text>
</g>
<!-- 13 -->
<g id="node14" class="node">
<title>13</title>
<polygon fill="palegreen" stroke="black" points="271,-38 196,-38 196,0 271,0 271,-38"/>
<text text-anchor="middle" x="233.5" y="-22.8" font-family="Times,serif" font-size="14.00">Search</text>
<text text-anchor="middle" x="233.5" y="-7.8" font-family="Times,serif" font-size="14.00">sites.txt</text>
</g>
<!-- 2&#45;&gt;13 -->
<g id="edge14" class="edge">
<title>2&#45;&gt;13</title>
<path fill="none" stroke="black" d="M298.19,-88.87C291.67,-83.32 284.66,-77.07 278.5,-71 270.47,-63.08 262.17,-53.98 254.92,-45.67"/>
<polygon fill="black" stroke="black" points="257.51,-43.31 248.33,-38.02 252.2,-47.88 257.51,-43.31"/>
<text text-anchor="middle" x="297.5" y="-59.8" font-family="Times,serif" font-size="14.00">write</text>
</g>
<!-- 6 -->
<g id="node7" class="node">
<title>6</title>
<polygon fill="palegreen" stroke="black" points="830,-37 753,-37 753,-1 830,-1 830,-37"/>
<text text-anchor="middle" x="791.5" y="-15.3" font-family="Times,serif" font-size="14.00">Sites.dir</text>
</g>
<!-- 5&#45;&gt;6 -->
<g id="edge6" class="edge">
<title>5&#45;&gt;6</title>
<path fill="none" stroke="black" d="M800.84,-94.92C790.98,-89.21 781.03,-81.33 775.5,-71 771.41,-63.36 772.44,-54.5 775.39,-46.33"/>
<polygon fill="black" stroke="black" points="778.6,-47.72 779.55,-37.17 772.23,-44.83 778.6,-47.72"/>
<text text-anchor="middle" x="792" y="-59.8" font-family="Times,serif" font-size="14.00">read</text>
</g>
<!-- 5&#45;&gt;6 -->
<g id="edge8" class="edge">
<title>5&#45;&gt;6</title>
<path fill="none" stroke="black" d="M822.33,-88.97C818.37,-79.17 813.3,-66.86 808.5,-56 807.13,-52.9 805.66,-49.67 804.19,-46.47"/>
<polygon fill="black" stroke="black" points="807.22,-44.7 799.81,-37.13 800.88,-47.67 807.22,-44.7"/>
<text text-anchor="middle" x="834" y="-59.8" font-family="Times,serif" font-size="14.00">make</text>
</g>
<!-- 7 -->
<g id="node8" class="node">
<title>7</title>
<polygon fill="palegreen" stroke="black" points="943,-37 848,-37 848,-1 943,-1 943,-37"/>
<text text-anchor="middle" x="895.5" y="-15.3" font-family="Times,serif" font-size="14.00">Retired.dir</text>
</g>
<!-- 5&#45;&gt;7 -->
<g id="edge7" class="edge">
<title>5&#45;&gt;7</title>
<path fill="none" stroke="black" d="M843.82,-88.74C848.23,-83.08 853.09,-76.8 857.5,-71 863.85,-62.65 870.73,-53.48 876.85,-45.24"/>
<polygon fill="black" stroke="black" points="879.77,-47.18 882.92,-37.07 874.15,-43.01 879.77,-47.18"/>
<text text-anchor="middle" x="884" y="-59.8" font-family="Times,serif" font-size="14.00">read</text>
</g>
</g>
</svg>
