<?xml version="1.0" encoding="UTF-8" standalone="no"?>
<!DOCTYPE svg PUBLIC "-//W3C//DTD SVG 1.1//EN"
 "http://www.w3.org/Graphics/SVG/1.1/DTD/svg11.dtd">
<!-- Generated by graphviz version 2.43.0 (0)
 -->
<!-- Title: %3 Pages: 1 -->
<svg width="838pt" height="481pt"
 viewBox="0.00 0.00 837.97 480.70" xmlns="http://www.w3.org/2000/svg" xmlns:xlink="http://www.w3.org/1999/xlink">
<g id="graph0" class="graph" transform="scale(1 1) rotate(0) translate(4 476.7)">
<title>%3</title>
<polygon fill="white" stroke="transparent" points="-4,4 -4,-476.7 833.97,-476.7 833.97,4 -4,4"/>
<!-- 0 -->
<g id="node1" class="node">
<title>0</title>
<ellipse fill="none" stroke="black" cx="602.1" cy="-445.83" rx="37.45" ry="26.74"/>
<text text-anchor="middle" x="602.1" y="-449.63" font-family="Times,serif" font-size="14.00">Shell</text>
<text text-anchor="middle" x="602.1" y="-434.63" font-family="Times,serif" font-size="14.00">cron</text>
</g>
<!-- 1 -->
<g id="node2" class="node">
<title>1</title>
<ellipse fill="none" stroke="black" cx="372.1" cy="-341.09" rx="45.01" ry="26.74"/>
<text text-anchor="middle" x="372.1" y="-344.89" font-family="Times,serif" font-size="14.00">Ruby</text>
<text text-anchor="middle" x="372.1" y="-329.89" font-family="Times,serif" font-size="14.00">scrape</text>
</g>
<!-- 0&#45;&gt;1 -->
<g id="edge1" class="edge">
<title>0&#45;&gt;1</title>
<path fill="none" stroke="black" d="M570.61,-430.76C530.86,-413.01 462.26,-382.36 417.03,-362.16"/>
<polygon fill="black" stroke="black" points="418.31,-358.9 407.75,-358.01 415.45,-365.29 418.31,-358.9"/>
<text text-anchor="middle" x="513.6" y="-389.76" font-family="Times,serif" font-size="14.00">run</text>
</g>
<!-- 2 -->
<g id="node3" class="node">
<title>2</title>
<ellipse fill="none" stroke="black" cx="263.1" cy="-131.61" rx="41.94" ry="26.74"/>
<text text-anchor="middle" x="263.1" y="-135.41" font-family="Times,serif" font-size="14.00">Ruby</text>
<text text-anchor="middle" x="263.1" y="-120.41" font-family="Times,serif" font-size="14.00">rollup</text>
</g>
<!-- 0&#45;&gt;2 -->
<g id="edge2" class="edge">
<title>0&#45;&gt;2</title>
<path fill="none" stroke="black" d="M594.08,-419.31C589.49,-404.4 583.74,-385.18 579.1,-367.96 560.27,-298.02 591.43,-261.57 541.1,-209.48 481.61,-147.91 377.58,-134.29 315.04,-132.04"/>
<polygon fill="black" stroke="black" points="315.09,-128.54 304.99,-131.76 314.89,-135.54 315.09,-128.54"/>
<text text-anchor="middle" x="584.6" y="-285.02" font-family="Times,serif" font-size="14.00">run</text>
</g>
<!-- 3 -->
<g id="node4" class="node">
<title>3</title>
<ellipse fill="none" stroke="black" cx="644.1" cy="-341.09" rx="55.72" ry="26.74"/>
<text text-anchor="middle" x="644.1" y="-344.89" font-family="Times,serif" font-size="14.00">Search</text>
<text text-anchor="middle" x="644.1" y="-329.89" font-family="Times,serif" font-size="14.00">slugs.txt</text>
</g>
<!-- 0&#45;&gt;3 -->
<g id="edge3" class="edge">
<title>0&#45;&gt;3</title>
<path fill="none" stroke="black" d="M612.27,-419.96C617.52,-407.12 624.01,-391.25 629.76,-377.19"/>
<polygon fill="black" stroke="black" points="633.05,-378.39 633.59,-367.8 626.57,-375.74 633.05,-378.39"/>
<text text-anchor="middle" x="645.1" y="-389.76" font-family="Times,serif" font-size="14.00">write</text>
</g>
<!-- 4 -->
<g id="node5" class="node">
<title>4</title>
<ellipse fill="none" stroke="black" cx="774.1" cy="-341.09" rx="55.72" ry="26.74"/>
<text text-anchor="middle" x="774.1" y="-344.89" font-family="Times,serif" font-size="14.00">Sites</text>
<text text-anchor="middle" x="774.1" y="-329.89" font-family="Times,serif" font-size="14.00">slugs.txt</text>
</g>
<!-- 0&#45;&gt;4 -->
<g id="edge4" class="edge">
<title>0&#45;&gt;4</title>
<path fill="none" stroke="black" d="M630.51,-427.87C657.86,-411.52 699.61,-386.59 731.05,-367.81"/>
<polygon fill="black" stroke="black" points="733.25,-370.57 740.04,-362.44 729.66,-364.56 733.25,-370.57"/>
<text text-anchor="middle" x="718.1" y="-389.76" font-family="Times,serif" font-size="14.00">write</text>
</g>
<!-- 5 -->
<g id="node6" class="node">
<title>5</title>
<ellipse fill="none" stroke="black" cx="132.1" cy="-236.35" rx="60.21" ry="26.74"/>
<text text-anchor="middle" x="132.1" y="-240.15" font-family="Times,serif" font-size="14.00">Pages</text>
<text text-anchor="middle" x="132.1" y="-225.15" font-family="Times,serif" font-size="14.00">words.txt</text>
</g>
<!-- 1&#45;&gt;5 -->
<g id="edge13" class="edge">
<title>1&#45;&gt;5</title>
<path fill="none" stroke="black" d="M335.86,-324.69C316.12,-316.29 291.26,-305.7 269.1,-296.22 240.93,-284.17 209.52,-270.67 183.89,-259.65"/>
<polygon fill="black" stroke="black" points="184.93,-256.29 174.36,-255.55 182.17,-262.72 184.93,-256.29"/>
<text text-anchor="middle" x="288.1" y="-285.02" font-family="Times,serif" font-size="14.00">write</text>
</g>
<!-- 6 -->
<g id="node7" class="node">
<title>6</title>
<ellipse fill="none" stroke="black" cx="263.1" cy="-236.35" rx="53.07" ry="26.74"/>
<text text-anchor="middle" x="263.1" y="-240.15" font-family="Times,serif" font-size="14.00">Pages</text>
<text text-anchor="middle" x="263.1" y="-225.15" font-family="Times,serif" font-size="14.00">sites.txt</text>
</g>
<!-- 1&#45;&gt;6 -->
<g id="edge14" class="edge">
<title>1&#45;&gt;6</title>
<path fill="none" stroke="black" d="M348.72,-318.05C333.1,-303.32 312.34,-283.76 295.18,-267.59"/>
<polygon fill="black" stroke="black" points="297.26,-264.74 287.58,-260.42 292.46,-269.83 297.26,-264.74"/>
<text text-anchor="middle" x="344.1" y="-285.02" font-family="Times,serif" font-size="14.00">write</text>
</g>
<!-- 11 -->
<g id="node12" class="node">
<title>11</title>
<ellipse fill="none" stroke="black" cx="372.1" cy="-236.35" rx="37.45" ry="26.74"/>
<text text-anchor="middle" x="372.1" y="-240.15" font-family="Times,serif" font-size="14.00">Sites</text>
<text text-anchor="middle" x="372.1" y="-225.15" font-family="Times,serif" font-size="14.00">dir</text>
</g>
<!-- 1&#45;&gt;11 -->
<g id="edge11" class="edge">
<title>1&#45;&gt;11</title>
<path fill="none" stroke="black" d="M372.1,-314.16C372.1,-301.88 372.1,-286.99 372.1,-273.6"/>
<polygon fill="black" stroke="black" points="375.6,-273.27 372.1,-263.27 368.6,-273.27 375.6,-273.27"/>
<text text-anchor="middle" x="388.6" y="-285.02" font-family="Times,serif" font-size="14.00">read</text>
</g>
<!-- 12 -->
<g id="node13" class="node">
<title>12</title>
<ellipse fill="none" stroke="black" cx="480.1" cy="-236.35" rx="52.15" ry="26.74"/>
<text text-anchor="middle" x="480.1" y="-240.15" font-family="Times,serif" font-size="14.00">Wiki</text>
<text text-anchor="middle" x="480.1" y="-225.15" font-family="Times,serif" font-size="14.00">sitemap</text>
</g>
<!-- 1&#45;&gt;12 -->
<g id="edge12" class="edge">
<title>1&#45;&gt;12</title>
<path fill="none" stroke="black" d="M395.54,-317.8C411.03,-303.06 431.53,-283.56 448.47,-267.45"/>
<polygon fill="black" stroke="black" points="451.13,-269.74 455.97,-260.31 446.31,-264.67 451.13,-269.74"/>
<text text-anchor="middle" x="451.6" y="-285.02" font-family="Times,serif" font-size="14.00">fetch</text>
</g>
<!-- 7 -->
<g id="node8" class="node">
<title>7</title>
<ellipse fill="none" stroke="black" cx="60.1" cy="-26.87" rx="60.21" ry="26.74"/>
<text text-anchor="middle" x="60.1" y="-30.67" font-family="Times,serif" font-size="14.00">Sites</text>
<text text-anchor="middle" x="60.1" y="-15.67" font-family="Times,serif" font-size="14.00">words.txt</text>
</g>
<!-- 2&#45;&gt;7 -->
<g id="edge7" class="edge">
<title>2&#45;&gt;7</title>
<path fill="none" stroke="black" d="M230.94,-114.33C197.96,-97.64 146.27,-71.48 108.38,-52.3"/>
<polygon fill="black" stroke="black" points="109.57,-48.98 99.06,-47.59 106.41,-55.23 109.57,-48.98"/>
<text text-anchor="middle" x="193.1" y="-75.54" font-family="Times,serif" font-size="14.00">write</text>
</g>
<!-- 8 -->
<g id="node9" class="node">
<title>8</title>
<ellipse fill="none" stroke="black" cx="198.1" cy="-26.87" rx="60.21" ry="26.74"/>
<text text-anchor="middle" x="198.1" y="-30.67" font-family="Times,serif" font-size="14.00">Search</text>
<text text-anchor="middle" x="198.1" y="-15.67" font-family="Times,serif" font-size="14.00">words.txt</text>
</g>
<!-- 2&#45;&gt;8 -->
<g id="edge8" class="edge">
<title>2&#45;&gt;8</title>
<path fill="none" stroke="black" d="M247.86,-106.52C239.41,-93.16 228.77,-76.33 219.49,-61.68"/>
<polygon fill="black" stroke="black" points="222.23,-59.46 213.93,-52.88 216.32,-63.2 222.23,-59.46"/>
<text text-anchor="middle" x="254.1" y="-75.54" font-family="Times,serif" font-size="14.00">write</text>
</g>
<!-- 9 -->
<g id="node10" class="node">
<title>9</title>
<ellipse fill="none" stroke="black" cx="329.1" cy="-26.87" rx="53.07" ry="26.74"/>
<text text-anchor="middle" x="329.1" y="-30.67" font-family="Times,serif" font-size="14.00">Sites</text>
<text text-anchor="middle" x="329.1" y="-15.67" font-family="Times,serif" font-size="14.00">sites.txt</text>
</g>
<!-- 2&#45;&gt;9 -->
<g id="edge9" class="edge">
<title>2&#45;&gt;9</title>
<path fill="none" stroke="black" d="M278.58,-106.52C287.31,-92.94 298.34,-75.77 307.86,-60.94"/>
<polygon fill="black" stroke="black" points="310.81,-62.83 313.27,-52.52 304.92,-59.04 310.81,-62.83"/>
<text text-anchor="middle" x="319.1" y="-75.54" font-family="Times,serif" font-size="14.00">write</text>
</g>
<!-- 10 -->
<g id="node11" class="node">
<title>10</title>
<ellipse fill="none" stroke="black" cx="453.1" cy="-26.87" rx="53.07" ry="26.74"/>
<text text-anchor="middle" x="453.1" y="-30.67" font-family="Times,serif" font-size="14.00">Search</text>
<text text-anchor="middle" x="453.1" y="-15.67" font-family="Times,serif" font-size="14.00">sites.txt</text>
</g>
<!-- 2&#45;&gt;10 -->
<g id="edge10" class="edge">
<title>2&#45;&gt;10</title>
<path fill="none" stroke="black" d="M294.48,-113.64C325.63,-96.8 373.69,-70.81 408.74,-51.86"/>
<polygon fill="black" stroke="black" points="410.67,-54.79 417.8,-46.96 407.34,-48.64 410.67,-54.79"/>
<text text-anchor="middle" x="389.1" y="-75.54" font-family="Times,serif" font-size="14.00">write</text>
</g>
<!-- 5&#45;&gt;2 -->
<g id="edge5" class="edge">
<title>5&#45;&gt;2</title>
<path fill="none" stroke="black" d="M161.18,-212.55C181.27,-196.79 208.08,-175.77 229.16,-159.23"/>
<polygon fill="black" stroke="black" points="231.51,-161.84 237.22,-152.91 227.19,-156.33 231.51,-161.84"/>
<text text-anchor="middle" x="222.6" y="-180.28" font-family="Times,serif" font-size="14.00">read</text>
</g>
<!-- 6&#45;&gt;2 -->
<g id="edge6" class="edge">
<title>6&#45;&gt;2</title>
<path fill="none" stroke="black" d="M263.1,-209.42C263.1,-197.14 263.1,-182.25 263.1,-168.86"/>
<polygon fill="black" stroke="black" points="266.6,-168.53 263.1,-158.53 259.6,-168.53 266.6,-168.53"/>
<text text-anchor="middle" x="279.6" y="-180.28" font-family="Times,serif" font-size="14.00">read</text>
</g>
</g>
</svg>
