<?xml version="1.0" encoding="UTF-8" standalone="no"?>
<!DOCTYPE svg PUBLIC "-//W3C//DTD SVG 1.1//EN"
 "http://www.w3.org/Graphics/SVG/1.1/DTD/svg11.dtd">
<!-- Generated by graphviz version 2.43.0 (0)
 -->
<!-- Title: %3 Pages: 1 -->
<svg width="476pt" height="580pt"
 viewBox="0.00 0.00 475.50 580.00" xmlns="http://www.w3.org/2000/svg" xmlns:xlink="http://www.w3.org/1999/xlink">
<g id="graph0" class="graph" transform="scale(1 1) rotate(0) translate(4 576)">
<title>%3</title>
<polygon fill="white" stroke="transparent" points="-4,4 -4,-576 471.5,-576 471.5,4 -4,4"/>
<!-- 0 -->
<g id="node1" class="node">
<title>0</title>
<polygon fill="lightblue" stroke="black" points="301.5,-572 247.5,-572 247.5,-534 301.5,-534 301.5,-572"/>
<text text-anchor="middle" x="274.5" y="-556.8" font-family="Times,serif" font-size="14.00">Shell</text>
<text text-anchor="middle" x="274.5" y="-541.8" font-family="Times,serif" font-size="14.00">cron</text>
</g>
<!-- 1 -->
<g id="node2" class="node">
<title>1</title>
<polygon fill="lightblue" stroke="black" points="374.5,-305 310.5,-305 310.5,-267 374.5,-267 374.5,-305"/>
<text text-anchor="middle" x="342.5" y="-289.8" font-family="Times,serif" font-size="14.00">Ruby</text>
<text text-anchor="middle" x="342.5" y="-274.8" font-family="Times,serif" font-size="14.00">scrape</text>
</g>
<!-- 0&#45;&gt;1 -->
<g id="edge1" class="edge">
<title>0&#45;&gt;1</title>
<g id="a_edge1"><a xlink:href="https://github.com/WardCunningham/search/blob/master/cron.sh#L7" xlink:title="run">
<path fill="none" stroke="black" d="M301.2,-533.72C307.01,-528.6 312.58,-522.61 316.5,-516 354.31,-452.29 351.03,-360.94 346.32,-315.27"/>
<polygon fill="black" stroke="black" points="349.78,-314.74 345.17,-305.2 342.82,-315.53 349.78,-314.74"/>
</a>
</g>
<g id="a_edge1&#45;label"><a xlink:href="https://github.com/WardCunningham/search/blob/master/cron.sh#L7" xlink:title="run">
<text text-anchor="middle" x="359" y="-415.8" font-family="Times,serif" font-size="14.00">run</text>
</a>
</g>
</g>
<!-- 2 -->
<g id="node3" class="node">
<title>2</title>
<polygon fill="lightblue" stroke="black" points="224,-127 165,-127 165,-89 224,-89 224,-127"/>
<text text-anchor="middle" x="194.5" y="-111.8" font-family="Times,serif" font-size="14.00">Ruby</text>
<text text-anchor="middle" x="194.5" y="-96.8" font-family="Times,serif" font-size="14.00">rollup</text>
</g>
<!-- 0&#45;&gt;2 -->
<g id="edge2" class="edge">
<title>0&#45;&gt;2</title>
<g id="a_edge2"><a xlink:href="https://github.com/WardCunningham/search/blob/master/cron.sh#L18" xlink:title="run">
<path fill="none" stroke="black" d="M247.25,-549.9C200.39,-544.65 109.5,-526.53 109.5,-465 109.5,-465 109.5,-465 109.5,-196 109.5,-167.16 133.69,-144.34 156.25,-129.31"/>
<polygon fill="black" stroke="black" points="158.18,-132.24 164.77,-123.94 154.45,-126.32 158.18,-132.24"/>
</a>
</g>
<g id="a_edge2&#45;label"><a xlink:href="https://github.com/WardCunningham/search/blob/master/cron.sh#L18" xlink:title="run">
<text text-anchor="middle" x="122" y="-326.8" font-family="Times,serif" font-size="14.00">run</text>
</a>
</g>
</g>
<!-- 3 -->
<g id="node4" class="node">
<title>3</title>
<polygon fill="palegreen" stroke="black" points="217,-483 138,-483 138,-445 217,-445 217,-483"/>
<text text-anchor="middle" x="177.5" y="-467.8" font-family="Times,serif" font-size="14.00">Search</text>
<text text-anchor="middle" x="177.5" y="-452.8" font-family="Times,serif" font-size="14.00">slugs.txt</text>
</g>
<!-- 0&#45;&gt;3 -->
<g id="edge3" class="edge">
<title>0&#45;&gt;3</title>
<g id="a_edge3"><a xlink:href="https://github.com/WardCunningham/search/blob/master/cron.sh#L21" xlink:title="write">
<path fill="none" stroke="black" d="M252.99,-533.85C246.37,-528.18 239.09,-521.88 232.5,-516 223.18,-507.69 213.12,-498.45 204.19,-490.14"/>
<polygon fill="black" stroke="black" points="206.37,-487.39 196.68,-483.12 201.6,-492.51 206.37,-487.39"/>
</a>
</g>
<g id="a_edge3&#45;label"><a xlink:href="https://github.com/WardCunningham/search/blob/master/cron.sh#L21" xlink:title="write">
<text text-anchor="middle" x="251.5" y="-504.8" font-family="Times,serif" font-size="14.00">write</text>
</a>
</g>
</g>
<!-- 4 -->
<g id="node5" class="node">
<title>4</title>
<polygon fill="palegreen" stroke="black" points="314,-483 235,-483 235,-445 314,-445 314,-483"/>
<text text-anchor="middle" x="274.5" y="-467.8" font-family="Times,serif" font-size="14.00">Sites</text>
<text text-anchor="middle" x="274.5" y="-452.8" font-family="Times,serif" font-size="14.00">slugs.txt</text>
</g>
<!-- 0&#45;&gt;4 -->
<g id="edge4" class="edge">
<title>0&#45;&gt;4</title>
<g id="a_edge4"><a xlink:href="https://github.com/WardCunningham/search/blob/master/cron.sh#L21" xlink:title="write">
<path fill="none" stroke="black" d="M274.5,-533.97C274.5,-522.19 274.5,-506.56 274.5,-493.16"/>
<polygon fill="black" stroke="black" points="278,-493 274.5,-483 271,-493 278,-493"/>
</a>
</g>
<g id="a_edge4&#45;label"><a xlink:href="https://github.com/WardCunningham/search/blob/master/cron.sh#L21" xlink:title="write">
<text text-anchor="middle" x="293.5" y="-504.8" font-family="Times,serif" font-size="14.00">write</text>
</a>
</g>
</g>
<!-- 5 -->
<g id="node6" class="node">
<title>5</title>
<polygon fill="lightblue" stroke="black" points="440,-483 383,-483 383,-445 440,-445 440,-483"/>
<text text-anchor="middle" x="411.5" y="-467.8" font-family="Times,serif" font-size="14.00">Ruby</text>
<text text-anchor="middle" x="411.5" y="-452.8" font-family="Times,serif" font-size="14.00">found</text>
</g>
<!-- 0&#45;&gt;5 -->
<g id="edge5" class="edge">
<title>0&#45;&gt;5</title>
<g id="a_edge5"><a xlink:href="https://github.com/WardCunningham/search/blob/master/cron.sh#L39" xlink:title="run">
<path fill="none" stroke="black" d="M301.85,-541.86C317.55,-535.48 337.3,-526.48 353.5,-516 365.05,-508.53 376.65,-498.85 386.42,-489.94"/>
<polygon fill="black" stroke="black" points="388.91,-492.41 393.81,-483.02 384.12,-487.3 388.91,-492.41"/>
</a>
</g>
<g id="a_edge5&#45;label"><a xlink:href="https://github.com/WardCunningham/search/blob/master/cron.sh#L39" xlink:title="run">
<text text-anchor="middle" x="384" y="-504.8" font-family="Times,serif" font-size="14.00">run</text>
</a>
</g>
</g>
<!-- 8 -->
<g id="node9" class="node">
<title>8</title>
<polygon fill="palegreen" stroke="black" points="428,-216 343,-216 343,-178 428,-178 428,-216"/>
<text text-anchor="middle" x="385.5" y="-200.8" font-family="Times,serif" font-size="14.00">Pages</text>
<text text-anchor="middle" x="385.5" y="-185.8" font-family="Times,serif" font-size="14.00">words.txt</text>
</g>
<!-- 1&#45;&gt;8 -->
<g id="edge17" class="edge">
<title>1&#45;&gt;8</title>
<g id="a_edge17"><a xlink:href="https://github.com/WardCunningham/search/blob/master/scrape.rb#L38" xlink:title="write">
<path fill="none" stroke="black" d="M351.41,-266.97C357.41,-254.84 365.42,-238.63 372.17,-224.97"/>
<polygon fill="black" stroke="black" points="375.31,-226.52 376.6,-216 369.03,-223.42 375.31,-226.52"/>
</a>
</g>
<g id="a_edge17&#45;label"><a xlink:href="https://github.com/WardCunningham/search/blob/master/scrape.rb#L38" xlink:title="write">
<text text-anchor="middle" x="385.5" y="-237.8" font-family="Times,serif" font-size="14.00">write</text>
</a>
</g>
</g>
<!-- 9 -->
<g id="node10" class="node">
<title>9</title>
<polygon fill="palegreen" stroke="black" points="232,-216 157,-216 157,-178 232,-178 232,-216"/>
<text text-anchor="middle" x="194.5" y="-200.8" font-family="Times,serif" font-size="14.00">Pages</text>
<text text-anchor="middle" x="194.5" y="-185.8" font-family="Times,serif" font-size="14.00">sites.txt</text>
</g>
<!-- 1&#45;&gt;9 -->
<g id="edge18" class="edge">
<title>1&#45;&gt;9</title>
<g id="a_edge18"><a xlink:href="https://github.com/WardCunningham/search/blob/master/scrape.rb#L38" xlink:title="write">
<path fill="none" stroke="black" d="M310.37,-270.35C297.46,-264.15 282.56,-256.61 269.5,-249 255.46,-240.82 240.56,-230.95 227.76,-222.08"/>
<polygon fill="black" stroke="black" points="229.48,-219 219.28,-216.13 225.46,-224.74 229.48,-219"/>
</a>
</g>
<g id="a_edge18&#45;label"><a xlink:href="https://github.com/WardCunningham/search/blob/master/scrape.rb#L38" xlink:title="write">
<text text-anchor="middle" x="288.5" y="-237.8" font-family="Times,serif" font-size="14.00">write</text>
</a>
</g>
</g>
<!-- 14 -->
<g id="node15" class="node">
<title>14</title>
<polygon fill="palegreen" stroke="black" points="324.5,-216 250.5,-216 250.5,-178 324.5,-178 324.5,-216"/>
<text text-anchor="middle" x="287.5" y="-200.8" font-family="Times,serif" font-size="14.00">Wiki</text>
<text text-anchor="middle" x="287.5" y="-185.8" font-family="Times,serif" font-size="14.00">sitemap</text>
</g>
<!-- 1&#45;&gt;14 -->
<g id="edge16" class="edge">
<title>1&#45;&gt;14</title>
<g id="a_edge16"><a xlink:href="https://github.com/WardCunningham/search/blob/master/scrape.rb#L13" xlink:title="get">
<path fill="none" stroke="black" d="M331.1,-266.97C323.36,-254.73 312.99,-238.32 304.3,-224.58"/>
<polygon fill="black" stroke="black" points="307.18,-222.59 298.88,-216 301.27,-226.33 307.18,-222.59"/>
</a>
</g>
<g id="a_edge16&#45;label"><a xlink:href="https://github.com/WardCunningham/search/blob/master/scrape.rb#L13" xlink:title="get">
<text text-anchor="middle" x="329.5" y="-237.8" font-family="Times,serif" font-size="14.00">get</text>
</a>
</g>
</g>
<!-- 10 -->
<g id="node11" class="node">
<title>10</title>
<polygon fill="palegreen" stroke="black" points="85,-38 0,-38 0,0 85,0 85,-38"/>
<text text-anchor="middle" x="42.5" y="-22.8" font-family="Times,serif" font-size="14.00">Sites</text>
<text text-anchor="middle" x="42.5" y="-7.8" font-family="Times,serif" font-size="14.00">words.txt</text>
</g>
<!-- 2&#45;&gt;10 -->
<g id="edge11" class="edge">
<title>2&#45;&gt;10</title>
<g id="a_edge11"><a xlink:href="https://github.com/WardCunningham/search/blob/master/rollup.rb#L5" xlink:title="write">
<path fill="none" stroke="black" d="M164.71,-92.03C152.46,-85.73 138.19,-78.2 125.5,-71 110.27,-62.36 93.79,-52.37 79.55,-43.53"/>
<polygon fill="black" stroke="black" points="81.35,-40.53 71.01,-38.2 77.64,-46.47 81.35,-40.53"/>
</a>
</g>
<g id="a_edge11&#45;label"><a xlink:href="https://github.com/WardCunningham/search/blob/master/rollup.rb#L5" xlink:title="write">
<text text-anchor="middle" x="144.5" y="-59.8" font-family="Times,serif" font-size="14.00">write</text>
</a>
</g>
</g>
<!-- 11 -->
<g id="node12" class="node">
<title>11</title>
<polygon fill="palegreen" stroke="black" points="188,-38 103,-38 103,0 188,0 188,-38"/>
<text text-anchor="middle" x="145.5" y="-22.8" font-family="Times,serif" font-size="14.00">Search</text>
<text text-anchor="middle" x="145.5" y="-7.8" font-family="Times,serif" font-size="14.00">words.txt</text>
</g>
<!-- 2&#45;&gt;11 -->
<g id="edge12" class="edge">
<title>2&#45;&gt;11</title>
<g id="a_edge12"><a xlink:href="https://github.com/WardCunningham/search/blob/master/rollup.rb#L5" xlink:title="write">
<path fill="none" stroke="black" d="M184.35,-88.97C177.51,-76.84 168.38,-60.63 160.69,-46.97"/>
<polygon fill="black" stroke="black" points="163.6,-45 155.64,-38 157.5,-48.43 163.6,-45"/>
</a>
</g>
<g id="a_edge12&#45;label"><a xlink:href="https://github.com/WardCunningham/search/blob/master/rollup.rb#L5" xlink:title="write">
<text text-anchor="middle" x="192.5" y="-59.8" font-family="Times,serif" font-size="14.00">write</text>
</a>
</g>
</g>
<!-- 12 -->
<g id="node13" class="node">
<title>12</title>
<polygon fill="palegreen" stroke="black" points="281,-38 206,-38 206,0 281,0 281,-38"/>
<text text-anchor="middle" x="243.5" y="-22.8" font-family="Times,serif" font-size="14.00">Sites</text>
<text text-anchor="middle" x="243.5" y="-7.8" font-family="Times,serif" font-size="14.00">sites.txt</text>
</g>
<!-- 2&#45;&gt;12 -->
<g id="edge13" class="edge">
<title>2&#45;&gt;12</title>
<g id="a_edge13"><a xlink:href="https://github.com/WardCunningham/search/blob/master/rollup.rb#L6" xlink:title="write">
<path fill="none" stroke="black" d="M205.28,-88.74C208.59,-83.07 212.22,-76.79 215.5,-71 219.89,-63.25 224.57,-54.79 228.83,-47.03"/>
<polygon fill="black" stroke="black" points="232.04,-48.45 233.77,-38 225.9,-45.1 232.04,-48.45"/>
</a>
</g>
<g id="a_edge13&#45;label"><a xlink:href="https://github.com/WardCunningham/search/blob/master/rollup.rb#L6" xlink:title="write">
<text text-anchor="middle" x="241.5" y="-59.8" font-family="Times,serif" font-size="14.00">write</text>
</a>
</g>
</g>
<!-- 13 -->
<g id="node14" class="node">
<title>13</title>
<polygon fill="palegreen" stroke="black" points="374,-38 299,-38 299,0 374,0 374,-38"/>
<text text-anchor="middle" x="336.5" y="-22.8" font-family="Times,serif" font-size="14.00">Search</text>
<text text-anchor="middle" x="336.5" y="-7.8" font-family="Times,serif" font-size="14.00">sites.txt</text>
</g>
<!-- 2&#45;&gt;13 -->
<g id="edge14" class="edge">
<title>2&#45;&gt;13</title>
<g id="a_edge14"><a xlink:href="https://github.com/WardCunningham/search/blob/master/rollup.rb#L6" xlink:title="write">
<path fill="none" stroke="black" d="M224.3,-92.84C236.92,-86.55 251.65,-78.8 264.5,-71 278.01,-62.8 292.33,-52.92 304.61,-44.05"/>
<polygon fill="black" stroke="black" points="306.73,-46.83 312.75,-38.11 302.61,-41.18 306.73,-46.83"/>
</a>
</g>
<g id="a_edge14&#45;label"><a xlink:href="https://github.com/WardCunningham/search/blob/master/rollup.rb#L6" xlink:title="write">
<text text-anchor="middle" x="305.5" y="-59.8" font-family="Times,serif" font-size="14.00">write</text>
</a>
</g>
</g>
<!-- 6 -->
<g id="node7" class="node">
<title>6</title>
<polygon fill="palegreen" stroke="black" points="424.5,-394 370.5,-394 370.5,-356 424.5,-356 424.5,-394"/>
<text text-anchor="middle" x="397.5" y="-378.8" font-family="Times,serif" font-size="14.00">Sites</text>
<text text-anchor="middle" x="397.5" y="-363.8" font-family="Times,serif" font-size="14.00">dir</text>
</g>
<!-- 5&#45;&gt;6 -->
<g id="edge8" class="edge">
<title>5&#45;&gt;6</title>
<g id="a_edge8"><a xlink:href="https://github.com/WardCunningham/search/blob/master/found.rb#L16" xlink:title="make">
<path fill="none" stroke="black" d="M423,-444.93C427.79,-435.12 431.42,-422.82 427.5,-412 426.3,-408.69 424.65,-405.46 422.73,-402.4"/>
<polygon fill="black" stroke="black" points="425.49,-400.24 416.78,-394.21 419.83,-404.36 425.49,-400.24"/>
</a>
</g>
<g id="a_edge8&#45;label"><a xlink:href="https://github.com/WardCunningham/search/blob/master/found.rb#L16" xlink:title="make">
<text text-anchor="middle" x="448" y="-415.8" font-family="Times,serif" font-size="14.00">make</text>
</a>
</g>
</g>
<!-- 6&#45;&gt;1 -->
<g id="edge15" class="edge">
<title>6&#45;&gt;1</title>
<g id="a_edge15"><a xlink:href="https://github.com/WardCunningham/search/blob/master/scrape.rb#L12" xlink:title="read">
<path fill="none" stroke="black" d="M380.68,-347.4C371.99,-333.65 361.62,-317.25 353.88,-305"/>
<polygon fill="black" stroke="black" points="377.8,-349.39 386.1,-355.97 383.72,-345.65 377.8,-349.39"/>
</a>
</g>
<g id="a_edge15&#45;label"><a xlink:href="https://github.com/WardCunningham/search/blob/master/scrape.rb#L12" xlink:title="read">
<text text-anchor="middle" x="389" y="-326.8" font-family="Times,serif" font-size="14.00">read</text>
</a>
</g>
</g>
<!-- 6&#45;&gt;5 -->
<g id="edge6" class="edge">
<title>6&#45;&gt;5</title>
<g id="a_edge6"><a xlink:href="https://github.com/WardCunningham/search/blob/master/found.rb#L6" xlink:title="read">
<path fill="none" stroke="black" d="M393.05,-404.21C392.63,-411.69 392.86,-419.71 394.5,-427 395.86,-433.07 398.37,-439.32 401.04,-444.88"/>
<polygon fill="black" stroke="black" points="396.55,-404.42 394.01,-394.14 389.58,-403.76 396.55,-404.42"/>
</a>
</g>
<g id="a_edge6&#45;label"><a xlink:href="https://github.com/WardCunningham/search/blob/master/found.rb#L6" xlink:title="read">
<text text-anchor="middle" x="411" y="-415.8" font-family="Times,serif" font-size="14.00">read</text>
</a>
</g>
</g>
<!-- 7 -->
<g id="node8" class="node">
<title>7</title>
<polygon fill="palegreen" stroke="black" points="458.5,-572 388.5,-572 388.5,-534 458.5,-534 458.5,-572"/>
<text text-anchor="middle" x="423.5" y="-556.8" font-family="Times,serif" font-size="14.00">Retired</text>
<text text-anchor="middle" x="423.5" y="-541.8" font-family="Times,serif" font-size="14.00">dir</text>
</g>
<!-- 7&#45;&gt;5 -->
<g id="edge7" class="edge">
<title>7&#45;&gt;5</title>
<g id="a_edge7"><a xlink:href="https://github.com/WardCunningham/search/blob/master/found.rb#L6" xlink:title="read">
<path fill="none" stroke="black" d="M419.61,-523.82C417.76,-510.41 415.61,-494.78 413.98,-483"/>
<polygon fill="black" stroke="black" points="416.18,-524.55 421.01,-533.97 423.11,-523.59 416.18,-524.55"/>
</a>
</g>
<g id="a_edge7&#45;label"><a xlink:href="https://github.com/WardCunningham/search/blob/master/found.rb#L6" xlink:title="read">
<text text-anchor="middle" x="434" y="-504.8" font-family="Times,serif" font-size="14.00">read</text>
</a>
</g>
</g>
<!-- 8&#45;&gt;2 -->
<g id="edge9" class="edge">
<title>8&#45;&gt;2</title>
<g id="a_edge9"><a xlink:href="https://github.com/WardCunningham/search/blob/master/rollup.rb#L3" xlink:title="read">
<path fill="none" stroke="black" d="M336.68,-173.76C301.1,-157.56 254.06,-136.13 224.04,-122.45"/>
<polygon fill="black" stroke="black" points="335.37,-177.01 345.92,-177.97 338.28,-170.64 335.37,-177.01"/>
</a>
</g>
<g id="a_edge9&#45;label"><a xlink:href="https://github.com/WardCunningham/search/blob/master/rollup.rb#L3" xlink:title="read">
<text text-anchor="middle" x="317" y="-148.8" font-family="Times,serif" font-size="14.00">read</text>
</a>
</g>
</g>
<!-- 9&#45;&gt;2 -->
<g id="edge10" class="edge">
<title>9&#45;&gt;2</title>
<g id="a_edge10"><a xlink:href="https://github.com/WardCunningham/search/blob/master/rollup.rb#L4" xlink:title="read">
<path fill="none" stroke="black" d="M194.5,-167.82C194.5,-154.41 194.5,-138.78 194.5,-127"/>
<polygon fill="black" stroke="black" points="191,-167.97 194.5,-177.97 198,-167.97 191,-167.97"/>
</a>
</g>
<g id="a_edge10&#45;label"><a xlink:href="https://github.com/WardCunningham/search/blob/master/rollup.rb#L4" xlink:title="read">
<text text-anchor="middle" x="211" y="-148.8" font-family="Times,serif" font-size="14.00">read</text>
</a>
</g>
</g>
</g>
</svg>
