<?xml version="1.0" encoding="UTF-8" standalone="no"?>
<!DOCTYPE svg PUBLIC "-//W3C//DTD SVG 1.1//EN"
 "http://www.w3.org/Graphics/SVG/1.1/DTD/svg11.dtd">
<!-- Generated by graphviz version 2.43.0 (0)
 -->
<!-- Title: %3 Pages: 1 -->
<svg width="602pt" height="481pt"
 viewBox="0.00 0.00 601.89 480.70" xmlns="http://www.w3.org/2000/svg" xmlns:xlink="http://www.w3.org/1999/xlink">
<g id="graph0" class="graph" transform="scale(1 1) rotate(0) translate(4 476.7)">
<title>%3</title>
<polygon fill="white" stroke="transparent" points="-4,4 -4,-476.7 597.89,-476.7 597.89,4 -4,4"/>
<!-- 0 -->
<g id="node1" class="node">
<title>0</title>
<ellipse fill="none" stroke="black" cx="221.86" cy="-445.83" rx="37.45" ry="26.74"/>
<text text-anchor="middle" x="221.86" y="-449.63" font-family="Times,serif" font-size="14.00">Shell</text>
<text text-anchor="middle" x="221.86" y="-434.63" font-family="Times,serif" font-size="14.00">cron</text>
</g>
<!-- 1 -->
<g id="node2" class="node">
<title>1</title>
<ellipse fill="none" stroke="black" cx="350.86" cy="-341.09" rx="45.01" ry="26.74"/>
<text text-anchor="middle" x="350.86" y="-344.89" font-family="Times,serif" font-size="14.00">Ruby</text>
<text text-anchor="middle" x="350.86" y="-329.89" font-family="Times,serif" font-size="14.00">scrape</text>
</g>
<!-- 0&#45;&gt;1 -->
<g id="edge1" class="edge">
<title>0&#45;&gt;1</title>
<path fill="none" stroke="black" d="M247.67,-426.16C258.09,-418.49 270.15,-409.43 280.86,-400.96 293.21,-391.19 306.49,-380.17 318.13,-370.31"/>
<polygon fill="black" stroke="black" points="320.54,-372.86 325.89,-363.71 316,-367.52 320.54,-372.86"/>
<text text-anchor="middle" x="310.36" y="-389.76" font-family="Times,serif" font-size="14.00">run</text>
</g>
<!-- 2 -->
<g id="node3" class="node">
<title>2</title>
<ellipse fill="none" stroke="black" cx="350.86" cy="-131.61" rx="41.94" ry="26.74"/>
<text text-anchor="middle" x="350.86" y="-135.41" font-family="Times,serif" font-size="14.00">Ruby</text>
<text text-anchor="middle" x="350.86" y="-120.41" font-family="Times,serif" font-size="14.00">rollup</text>
</g>
<!-- 0&#45;&gt;2 -->
<g id="edge2" class="edge">
<title>0&#45;&gt;2</title>
<path fill="none" stroke="black" d="M237.63,-421.41C241.42,-414.99 245.15,-407.89 247.86,-400.96 279.57,-319.91 251.41,-288.04 288.86,-209.48 297.06,-192.27 309.84,-175.51 321.66,-162.06"/>
<polygon fill="black" stroke="black" points="324.35,-164.3 328.47,-154.54 319.16,-159.6 324.35,-164.3"/>
<text text-anchor="middle" x="280.36" y="-285.02" font-family="Times,serif" font-size="14.00">run</text>
</g>
<!-- 3 -->
<g id="node4" class="node">
<title>3</title>
<ellipse fill="none" stroke="black" cx="55.86" cy="-341.09" rx="55.72" ry="26.74"/>
<text text-anchor="middle" x="55.86" y="-344.89" font-family="Times,serif" font-size="14.00">Search</text>
<text text-anchor="middle" x="55.86" y="-329.89" font-family="Times,serif" font-size="14.00">slugs.txt</text>
</g>
<!-- 0&#45;&gt;3 -->
<g id="edge3" class="edge">
<title>0&#45;&gt;3</title>
<path fill="none" stroke="black" d="M194.08,-427.63C167.78,-411.36 127.96,-386.71 97.8,-368.05"/>
<polygon fill="black" stroke="black" points="99.52,-365 89.18,-362.71 95.84,-370.95 99.52,-365"/>
<text text-anchor="middle" x="166.86" y="-389.76" font-family="Times,serif" font-size="14.00">write</text>
</g>
<!-- 4 -->
<g id="node5" class="node">
<title>4</title>
<ellipse fill="none" stroke="black" cx="185.86" cy="-341.09" rx="55.72" ry="26.74"/>
<text text-anchor="middle" x="185.86" y="-344.89" font-family="Times,serif" font-size="14.00">Sites</text>
<text text-anchor="middle" x="185.86" y="-329.89" font-family="Times,serif" font-size="14.00">slugs.txt</text>
</g>
<!-- 0&#45;&gt;4 -->
<g id="edge4" class="edge">
<title>0&#45;&gt;4</title>
<path fill="none" stroke="black" d="M213.05,-419.7C208.6,-406.98 203.12,-391.33 198.24,-377.43"/>
<polygon fill="black" stroke="black" points="201.44,-375.96 194.83,-367.68 194.83,-378.27 201.44,-375.96"/>
<text text-anchor="middle" x="224.86" y="-389.76" font-family="Times,serif" font-size="14.00">write</text>
</g>
<!-- 5 -->
<g id="node6" class="node">
<title>5</title>
<ellipse fill="none" stroke="black" cx="481.86" cy="-236.35" rx="60.21" ry="26.74"/>
<text text-anchor="middle" x="481.86" y="-240.15" font-family="Times,serif" font-size="14.00">Pages</text>
<text text-anchor="middle" x="481.86" y="-225.15" font-family="Times,serif" font-size="14.00">words.txt</text>
</g>
<!-- 1&#45;&gt;5 -->
<g id="edge13" class="edge">
<title>1&#45;&gt;5</title>
<path fill="none" stroke="black" d="M377.37,-319.3C396.73,-304.12 423.23,-283.33 444.7,-266.5"/>
<polygon fill="black" stroke="black" points="446.95,-269.18 452.66,-260.26 442.63,-263.67 446.95,-269.18"/>
<text text-anchor="middle" x="442.86" y="-285.02" font-family="Times,serif" font-size="14.00">write</text>
</g>
<!-- 6 -->
<g id="node7" class="node">
<title>6</title>
<ellipse fill="none" stroke="black" cx="350.86" cy="-236.35" rx="53.07" ry="26.74"/>
<text text-anchor="middle" x="350.86" y="-240.15" font-family="Times,serif" font-size="14.00">Pages</text>
<text text-anchor="middle" x="350.86" y="-225.15" font-family="Times,serif" font-size="14.00">sites.txt</text>
</g>
<!-- 1&#45;&gt;6 -->
<g id="edge14" class="edge">
<title>1&#45;&gt;6</title>
<path fill="none" stroke="black" d="M350.86,-314.16C350.86,-301.88 350.86,-286.99 350.86,-273.6"/>
<polygon fill="black" stroke="black" points="354.36,-273.27 350.86,-263.27 347.36,-273.27 354.36,-273.27"/>
<text text-anchor="middle" x="369.86" y="-285.02" font-family="Times,serif" font-size="14.00">write</text>
</g>
<!-- 7 -->
<g id="node8" class="node">
<title>7</title>
<ellipse fill="none" stroke="black" cx="147.86" cy="-26.87" rx="60.21" ry="26.74"/>
<text text-anchor="middle" x="147.86" y="-30.67" font-family="Times,serif" font-size="14.00">Sites</text>
<text text-anchor="middle" x="147.86" y="-15.67" font-family="Times,serif" font-size="14.00">words.txt</text>
</g>
<!-- 2&#45;&gt;7 -->
<g id="edge7" class="edge">
<title>2&#45;&gt;7</title>
<path fill="none" stroke="black" d="M318.7,-114.33C285.72,-97.64 234.03,-71.48 196.14,-52.3"/>
<polygon fill="black" stroke="black" points="197.32,-48.98 186.82,-47.59 194.16,-55.23 197.32,-48.98"/>
<text text-anchor="middle" x="279.86" y="-75.54" font-family="Times,serif" font-size="14.00">write</text>
</g>
<!-- 8 -->
<g id="node9" class="node">
<title>8</title>
<ellipse fill="none" stroke="black" cx="285.86" cy="-26.87" rx="60.21" ry="26.74"/>
<text text-anchor="middle" x="285.86" y="-30.67" font-family="Times,serif" font-size="14.00">Search</text>
<text text-anchor="middle" x="285.86" y="-15.67" font-family="Times,serif" font-size="14.00">words.txt</text>
</g>
<!-- 2&#45;&gt;8 -->
<g id="edge8" class="edge">
<title>2&#45;&gt;8</title>
<path fill="none" stroke="black" d="M335.62,-106.52C327.17,-93.16 316.52,-76.33 307.25,-61.68"/>
<polygon fill="black" stroke="black" points="309.99,-59.46 301.68,-52.88 304.07,-63.2 309.99,-59.46"/>
<text text-anchor="middle" x="340.86" y="-75.54" font-family="Times,serif" font-size="14.00">write</text>
</g>
<!-- 9 -->
<g id="node10" class="node">
<title>9</title>
<ellipse fill="none" stroke="black" cx="416.86" cy="-26.87" rx="53.07" ry="26.74"/>
<text text-anchor="middle" x="416.86" y="-30.67" font-family="Times,serif" font-size="14.00">Sites</text>
<text text-anchor="middle" x="416.86" y="-15.67" font-family="Times,serif" font-size="14.00">sites.txt</text>
</g>
<!-- 2&#45;&gt;9 -->
<g id="edge9" class="edge">
<title>2&#45;&gt;9</title>
<path fill="none" stroke="black" d="M366.34,-106.52C375.06,-92.94 386.09,-75.77 395.62,-60.94"/>
<polygon fill="black" stroke="black" points="398.57,-62.83 401.03,-52.52 392.68,-59.04 398.57,-62.83"/>
<text text-anchor="middle" x="405.86" y="-75.54" font-family="Times,serif" font-size="14.00">write</text>
</g>
<!-- 10 -->
<g id="node11" class="node">
<title>10</title>
<ellipse fill="none" stroke="black" cx="540.86" cy="-26.87" rx="53.07" ry="26.74"/>
<text text-anchor="middle" x="540.86" y="-30.67" font-family="Times,serif" font-size="14.00">Search</text>
<text text-anchor="middle" x="540.86" y="-15.67" font-family="Times,serif" font-size="14.00">sites.txt</text>
</g>
<!-- 2&#45;&gt;10 -->
<g id="edge10" class="edge">
<title>2&#45;&gt;10</title>
<path fill="none" stroke="black" d="M382.24,-113.64C413.39,-96.8 461.44,-70.81 496.5,-51.86"/>
<polygon fill="black" stroke="black" points="498.43,-54.79 505.56,-46.96 495.1,-48.64 498.43,-54.79"/>
<text text-anchor="middle" x="475.86" y="-75.54" font-family="Times,serif" font-size="14.00">write</text>
</g>
<!-- 5&#45;&gt;2 -->
<g id="edge5" class="edge">
<title>5&#45;&gt;2</title>
<path fill="none" stroke="black" d="M452.79,-212.55C432.69,-196.79 405.89,-175.77 384.81,-159.23"/>
<polygon fill="black" stroke="black" points="386.78,-156.33 376.75,-152.91 382.46,-161.84 386.78,-156.33"/>
<text text-anchor="middle" x="440.36" y="-180.28" font-family="Times,serif" font-size="14.00">read</text>
</g>
<!-- 6&#45;&gt;2 -->
<g id="edge6" class="edge">
<title>6&#45;&gt;2</title>
<path fill="none" stroke="black" d="M350.86,-209.42C350.86,-197.14 350.86,-182.25 350.86,-168.86"/>
<polygon fill="black" stroke="black" points="354.36,-168.53 350.86,-158.53 347.36,-168.53 354.36,-168.53"/>
<text text-anchor="middle" x="367.36" y="-180.28" font-family="Times,serif" font-size="14.00">read</text>
</g>
<!-- 11 -->
<g id="node12" class="node">
<title>11</title>
<ellipse fill="none" stroke="black" cx="350.86" cy="-445.83" rx="37.45" ry="26.74"/>
<text text-anchor="middle" x="350.86" y="-449.63" font-family="Times,serif" font-size="14.00">Sites</text>
<text text-anchor="middle" x="350.86" y="-434.63" font-family="Times,serif" font-size="14.00">dir</text>
</g>
<!-- 11&#45;&gt;1 -->
<g id="edge11" class="edge">
<title>11&#45;&gt;1</title>
<path fill="none" stroke="black" d="M350.86,-418.9C350.86,-406.62 350.86,-391.73 350.86,-378.34"/>
<polygon fill="black" stroke="black" points="354.36,-378.01 350.86,-368.01 347.36,-378.01 354.36,-378.01"/>
<text text-anchor="middle" x="367.36" y="-389.76" font-family="Times,serif" font-size="14.00">read</text>
</g>
<!-- 12 -->
<g id="node13" class="node">
<title>12</title>
<ellipse fill="none" stroke="black" cx="458.86" cy="-445.83" rx="52.15" ry="26.74"/>
<text text-anchor="middle" x="458.86" y="-449.63" font-family="Times,serif" font-size="14.00">Wiki</text>
<text text-anchor="middle" x="458.86" y="-434.63" font-family="Times,serif" font-size="14.00">sitemap</text>
</g>
<!-- 12&#45;&gt;1 -->
<g id="edge12" class="edge">
<title>12&#45;&gt;1</title>
<path fill="none" stroke="black" d="M434.62,-421.77C418.98,-406.9 398.5,-387.41 381.7,-371.43"/>
<polygon fill="black" stroke="black" points="383.93,-368.72 374.28,-364.36 379.11,-373.79 383.93,-368.72"/>
<text text-anchor="middle" x="429.36" y="-389.76" font-family="Times,serif" font-size="14.00">fetch</text>
</g>
</g>
</svg>
