<?xml version="1.0" encoding="UTF-8" standalone="no"?>
<!DOCTYPE svg PUBLIC "-//W3C//DTD SVG 1.1//EN"
 "http://www.w3.org/Graphics/SVG/1.1/DTD/svg11.dtd">
<!-- Generated by graphviz version 2.43.0 (0)
 -->
<!-- Title: %3 Pages: 1 -->
<svg width="954pt" height="224pt"
 viewBox="0.00 0.00 953.50 224.00" xmlns="http://www.w3.org/2000/svg" xmlns:xlink="http://www.w3.org/1999/xlink">
<g id="graph0" class="graph" transform="scale(1 1) rotate(0) translate(4 220)">
<title>%3</title>
<polygon fill="white" stroke="transparent" points="-4,4 -4,-220 949.5,-220 949.5,4 -4,4"/>
<!-- 0 -->
<g id="node1" class="node">
<title>0</title>
<polygon fill="palegreen" stroke="black" points="720.5,-216 666.5,-216 666.5,-178 720.5,-178 720.5,-216"/>
<text text-anchor="middle" x="693.5" y="-200.8" font-family="Times,serif" font-size="14.00">Shell</text>
<text text-anchor="middle" x="693.5" y="-185.8" font-family="Times,serif" font-size="14.00">cron</text>
</g>
<!-- 1 -->
<g id="node2" class="node">
<title>1</title>
<polygon fill="palegreen" stroke="black" points="587.5,-127 523.5,-127 523.5,-89 587.5,-89 587.5,-127"/>
<text text-anchor="middle" x="555.5" y="-111.8" font-family="Times,serif" font-size="14.00">Ruby</text>
<text text-anchor="middle" x="555.5" y="-96.8" font-family="Times,serif" font-size="14.00">scrape</text>
</g>
<!-- 0&#45;&gt;1 -->
<g id="edge1" class="edge">
<title>0&#45;&gt;1</title>
<path fill="none" stroke="black" d="M666.24,-178.81C645.2,-165.55 615.88,-147.06 592.69,-132.45"/>
<polygon fill="black" stroke="black" points="594.46,-129.42 584.13,-127.05 590.73,-135.35 594.46,-129.42"/>
<text text-anchor="middle" x="646" y="-148.8" font-family="Times,serif" font-size="14.00">run</text>
</g>
<!-- 2 -->
<g id="node3" class="node">
<title>2</title>
<polygon fill="palegreen" stroke="black" points="350,-127 291,-127 291,-89 350,-89 350,-127"/>
<text text-anchor="middle" x="320.5" y="-111.8" font-family="Times,serif" font-size="14.00">Ruby</text>
<text text-anchor="middle" x="320.5" y="-96.8" font-family="Times,serif" font-size="14.00">rollup</text>
</g>
<!-- 0&#45;&gt;2 -->
<g id="edge2" class="edge">
<title>0&#45;&gt;2</title>
<path fill="none" stroke="black" d="M666.37,-189.67C601.37,-174.51 436.44,-136.04 360.23,-118.27"/>
<polygon fill="black" stroke="black" points="360.62,-114.76 350.08,-115.9 359.03,-121.58 360.62,-114.76"/>
<text text-anchor="middle" x="542" y="-148.8" font-family="Times,serif" font-size="14.00">run</text>
</g>
<!-- 3 -->
<g id="node4" class="node">
<title>3</title>
<polygon fill="palegreen" stroke="black" points="685,-127 606,-127 606,-89 685,-89 685,-127"/>
<text text-anchor="middle" x="645.5" y="-111.8" font-family="Times,serif" font-size="14.00">Search</text>
<text text-anchor="middle" x="645.5" y="-96.8" font-family="Times,serif" font-size="14.00">slugs.txt</text>
</g>
<!-- 0&#45;&gt;3 -->
<g id="edge3" class="edge">
<title>0&#45;&gt;3</title>
<path fill="none" stroke="black" d="M683.55,-177.97C676.86,-165.84 667.92,-149.63 660.38,-135.97"/>
<polygon fill="black" stroke="black" points="663.33,-134.07 655.43,-127 657.2,-137.45 663.33,-134.07"/>
<text text-anchor="middle" x="691.5" y="-148.8" font-family="Times,serif" font-size="14.00">write</text>
</g>
<!-- 4 -->
<g id="node5" class="node">
<title>4</title>
<polygon fill="palegreen" stroke="black" points="782,-127 703,-127 703,-89 782,-89 782,-127"/>
<text text-anchor="middle" x="742.5" y="-111.8" font-family="Times,serif" font-size="14.00">Sites</text>
<text text-anchor="middle" x="742.5" y="-96.8" font-family="Times,serif" font-size="14.00">slugs.txt</text>
</g>
<!-- 0&#45;&gt;4 -->
<g id="edge4" class="edge">
<title>0&#45;&gt;4</title>
<path fill="none" stroke="black" d="M704.28,-177.74C707.59,-172.07 711.22,-165.79 714.5,-160 718.89,-152.25 723.57,-143.79 727.83,-136.03"/>
<polygon fill="black" stroke="black" points="731.04,-137.45 732.77,-127 724.9,-134.1 731.04,-137.45"/>
<text text-anchor="middle" x="741.5" y="-148.8" font-family="Times,serif" font-size="14.00">write</text>
</g>
<!-- 5 -->
<g id="node6" class="node">
<title>5</title>
<polygon fill="palegreen" stroke="black" points="857,-127 800,-127 800,-89 857,-89 857,-127"/>
<text text-anchor="middle" x="828.5" y="-111.8" font-family="Times,serif" font-size="14.00">Ruby</text>
<text text-anchor="middle" x="828.5" y="-96.8" font-family="Times,serif" font-size="14.00">found</text>
</g>
<!-- 0&#45;&gt;5 -->
<g id="edge5" class="edge">
<title>0&#45;&gt;5</title>
<path fill="none" stroke="black" d="M720.51,-183.9C734.07,-177.43 750.55,-168.96 764.5,-160 776.69,-152.17 789.33,-142.48 800.12,-133.66"/>
<polygon fill="black" stroke="black" points="802.52,-136.21 807.98,-127.13 798.05,-130.83 802.52,-136.21"/>
<text text-anchor="middle" x="798" y="-148.8" font-family="Times,serif" font-size="14.00">run</text>
</g>
<!-- 6 -->
<g id="node7" class="node">
<title>6</title>
<polygon fill="palegreen" stroke="black" points="945.5,-127 875.5,-127 875.5,-89 945.5,-89 945.5,-127"/>
<text text-anchor="middle" x="910.5" y="-111.8" font-family="Times,serif" font-size="14.00">Ruby</text>
<text text-anchor="middle" x="910.5" y="-96.8" font-family="Times,serif" font-size="14.00">activity</text>
</g>
<!-- 0&#45;&gt;6 -->
<g id="edge6" class="edge">
<title>0&#45;&gt;6</title>
<path fill="none" stroke="black" d="M720.94,-189.5C745.82,-183.22 783.27,-172.79 814.5,-160 833.66,-152.15 854.02,-141.67 871.04,-132.25"/>
<polygon fill="black" stroke="black" points="873.12,-135.09 880.12,-127.14 869.69,-128.99 873.12,-135.09"/>
<text text-anchor="middle" x="861" y="-148.8" font-family="Times,serif" font-size="14.00">runs</text>
</g>
<!-- 9 -->
<g id="node10" class="node">
<title>9</title>
<polygon fill="palegreen" stroke="black" points="570,-38 485,-38 485,0 570,0 570,-38"/>
<text text-anchor="middle" x="527.5" y="-22.8" font-family="Times,serif" font-size="14.00">Pages</text>
<text text-anchor="middle" x="527.5" y="-7.8" font-family="Times,serif" font-size="14.00">words.txt</text>
</g>
<!-- 1&#45;&gt;9 -->
<g id="edge18" class="edge">
<title>1&#45;&gt;9</title>
<path fill="none" stroke="black" d="M549.7,-88.97C545.87,-77.08 540.78,-61.25 536.43,-47.76"/>
<polygon fill="black" stroke="black" points="539.69,-46.45 533.29,-38 533.03,-48.59 539.69,-46.45"/>
<text text-anchor="middle" x="562.5" y="-59.8" font-family="Times,serif" font-size="14.00">write</text>
</g>
<!-- 10 -->
<g id="node11" class="node">
<title>10</title>
<polygon fill="palegreen" stroke="black" points="467,-38 392,-38 392,0 467,0 467,-38"/>
<text text-anchor="middle" x="429.5" y="-22.8" font-family="Times,serif" font-size="14.00">Pages</text>
<text text-anchor="middle" x="429.5" y="-7.8" font-family="Times,serif" font-size="14.00">sites.txt</text>
</g>
<!-- 1&#45;&gt;10 -->
<g id="edge19" class="edge">
<title>1&#45;&gt;10</title>
<path fill="none" stroke="black" d="M525.94,-88.91C517.03,-83.3 507.29,-77.01 498.5,-71 486.13,-62.54 472.83,-52.86 461.24,-44.21"/>
<polygon fill="black" stroke="black" points="463.24,-41.34 453.14,-38.14 459.04,-46.94 463.24,-41.34"/>
<text text-anchor="middle" x="517.5" y="-59.8" font-family="Times,serif" font-size="14.00">write</text>
</g>
<!-- 15 -->
<g id="node16" class="node">
<title>15</title>
<polygon fill="palegreen" stroke="black" points="642.5,-38 588.5,-38 588.5,0 642.5,0 642.5,-38"/>
<text text-anchor="middle" x="615.5" y="-22.8" font-family="Times,serif" font-size="14.00">Sites</text>
<text text-anchor="middle" x="615.5" y="-7.8" font-family="Times,serif" font-size="14.00">dir</text>
</g>
<!-- 1&#45;&gt;15 -->
<g id="edge16" class="edge">
<title>1&#45;&gt;15</title>
<path fill="none" stroke="black" d="M571.67,-88.77C576.33,-83.22 581.29,-76.99 585.5,-71 590.77,-63.51 596.01,-55.06 600.59,-47.22"/>
<polygon fill="black" stroke="black" points="603.72,-48.8 605.64,-38.39 597.64,-45.33 603.72,-48.8"/>
<text text-anchor="middle" x="612" y="-59.8" font-family="Times,serif" font-size="14.00">read</text>
</g>
<!-- 16 -->
<g id="node17" class="node">
<title>16</title>
<polygon fill="palegreen" stroke="black" points="734.5,-38 660.5,-38 660.5,0 734.5,0 734.5,-38"/>
<text text-anchor="middle" x="697.5" y="-22.8" font-family="Times,serif" font-size="14.00">Wiki</text>
<text text-anchor="middle" x="697.5" y="-7.8" font-family="Times,serif" font-size="14.00">sitemap</text>
</g>
<!-- 1&#45;&gt;16 -->
<g id="edge17" class="edge">
<title>1&#45;&gt;16</title>
<path fill="none" stroke="black" d="M587.56,-92.89C604.9,-85.09 624.39,-75.99 632.5,-71 645.06,-63.28 658.01,-53.53 669.02,-44.64"/>
<polygon fill="black" stroke="black" points="671.53,-47.11 677.02,-38.05 667.08,-41.7 671.53,-47.11"/>
<text text-anchor="middle" x="672" y="-59.8" font-family="Times,serif" font-size="14.00">fetch</text>
</g>
<!-- 2&#45;&gt;9 -->
<g id="edge10" class="edge">
<title>2&#45;&gt;9</title>
<path fill="none" stroke="black" d="M350.17,-97.29C369.2,-90.69 394.23,-81.31 415.5,-71 427.16,-65.35 428.93,-61.83 440.5,-56 451.56,-50.43 463.7,-45 475.31,-40.12"/>
<polygon fill="black" stroke="black" points="476.99,-43.21 484.9,-36.16 474.32,-36.74 476.99,-43.21"/>
<text text-anchor="middle" x="457" y="-59.8" font-family="Times,serif" font-size="14.00">read</text>
</g>
<!-- 2&#45;&gt;10 -->
<g id="edge11" class="edge">
<title>2&#45;&gt;10</title>
<path fill="none" stroke="black" d="M342.16,-88.88C353.99,-79.05 368.96,-66.75 382.5,-56 387.24,-52.23 392.3,-48.29 397.26,-44.46"/>
<polygon fill="black" stroke="black" points="399.67,-47.02 405.47,-38.15 395.4,-41.47 399.67,-47.02"/>
<text text-anchor="middle" x="399" y="-59.8" font-family="Times,serif" font-size="14.00">read</text>
</g>
<!-- 11 -->
<g id="node12" class="node">
<title>11</title>
<polygon fill="palegreen" stroke="black" points="374,-38 289,-38 289,0 374,0 374,-38"/>
<text text-anchor="middle" x="331.5" y="-22.8" font-family="Times,serif" font-size="14.00">Sites</text>
<text text-anchor="middle" x="331.5" y="-7.8" font-family="Times,serif" font-size="14.00">words.txt</text>
</g>
<!-- 2&#45;&gt;11 -->
<g id="edge12" class="edge">
<title>2&#45;&gt;11</title>
<path fill="none" stroke="black" d="M319.76,-88.97C319.63,-79.17 319.91,-66.87 321.5,-56 321.89,-53.32 322.42,-50.57 323.03,-47.82"/>
<polygon fill="black" stroke="black" points="326.43,-48.68 325.51,-38.12 319.64,-46.95 326.43,-48.68"/>
<text text-anchor="middle" x="340.5" y="-59.8" font-family="Times,serif" font-size="14.00">write</text>
</g>
<!-- 12 -->
<g id="node13" class="node">
<title>12</title>
<polygon fill="palegreen" stroke="black" points="85,-38 0,-38 0,0 85,0 85,-38"/>
<text text-anchor="middle" x="42.5" y="-22.8" font-family="Times,serif" font-size="14.00">Search</text>
<text text-anchor="middle" x="42.5" y="-7.8" font-family="Times,serif" font-size="14.00">words.txt</text>
</g>
<!-- 2&#45;&gt;12 -->
<g id="edge13" class="edge">
<title>2&#45;&gt;12</title>
<path fill="none" stroke="black" d="M290.79,-102.45C257.37,-96.88 201.71,-86.28 155.5,-71 132.11,-63.26 107.04,-52.25 86.48,-42.44"/>
<polygon fill="black" stroke="black" points="87.89,-39.23 77.37,-38.03 84.84,-45.53 87.89,-39.23"/>
<text text-anchor="middle" x="174.5" y="-59.8" font-family="Times,serif" font-size="14.00">write</text>
</g>
<!-- 13 -->
<g id="node14" class="node">
<title>13</title>
<polygon fill="palegreen" stroke="black" points="178,-38 103,-38 103,0 178,0 178,-38"/>
<text text-anchor="middle" x="140.5" y="-22.8" font-family="Times,serif" font-size="14.00">Sites</text>
<text text-anchor="middle" x="140.5" y="-7.8" font-family="Times,serif" font-size="14.00">sites.txt</text>
</g>
<!-- 2&#45;&gt;13 -->
<g id="edge14" class="edge">
<title>2&#45;&gt;13</title>
<path fill="none" stroke="black" d="M290.69,-97.81C270.92,-91.3 244.65,-81.82 222.5,-71 206.41,-63.14 189.47,-52.96 175.19,-43.76"/>
<polygon fill="black" stroke="black" points="176.96,-40.74 166.67,-38.2 173.12,-46.6 176.96,-40.74"/>
<text text-anchor="middle" x="241.5" y="-59.8" font-family="Times,serif" font-size="14.00">write</text>
</g>
<!-- 14 -->
<g id="node15" class="node">
<title>14</title>
<polygon fill="palegreen" stroke="black" points="271,-38 196,-38 196,0 271,0 271,-38"/>
<text text-anchor="middle" x="233.5" y="-22.8" font-family="Times,serif" font-size="14.00">Search</text>
<text text-anchor="middle" x="233.5" y="-7.8" font-family="Times,serif" font-size="14.00">sites.txt</text>
</g>
<!-- 2&#45;&gt;14 -->
<g id="edge15" class="edge">
<title>2&#45;&gt;14</title>
<path fill="none" stroke="black" d="M298.19,-88.87C291.67,-83.32 284.66,-77.07 278.5,-71 270.47,-63.08 262.17,-53.98 254.92,-45.67"/>
<polygon fill="black" stroke="black" points="257.51,-43.31 248.33,-38.02 252.2,-47.88 257.51,-43.31"/>
<text text-anchor="middle" x="297.5" y="-59.8" font-family="Times,serif" font-size="14.00">write</text>
</g>
<!-- 7 -->
<g id="node8" class="node">
<title>7</title>
<polygon fill="palegreen" stroke="black" points="830,-37 753,-37 753,-1 830,-1 830,-37"/>
<text text-anchor="middle" x="791.5" y="-15.3" font-family="Times,serif" font-size="14.00">Sites.dir</text>
</g>
<!-- 5&#45;&gt;7 -->
<g id="edge7" class="edge">
<title>5&#45;&gt;7</title>
<path fill="none" stroke="black" d="M799.8,-94.48C790.3,-88.78 780.81,-81.03 775.5,-71 771.44,-63.34 772.48,-54.47 775.43,-46.31"/>
<polygon fill="black" stroke="black" points="778.64,-47.71 779.58,-37.15 772.26,-44.81 778.64,-47.71"/>
<text text-anchor="middle" x="792" y="-59.8" font-family="Times,serif" font-size="14.00">read</text>
</g>
<!-- 5&#45;&gt;7 -->
<g id="edge9" class="edge">
<title>5&#45;&gt;7</title>
<path fill="none" stroke="black" d="M821.76,-88.94C818.01,-79.13 813.17,-66.83 808.5,-56 807.16,-52.89 805.71,-49.65 804.24,-46.45"/>
<polygon fill="black" stroke="black" points="807.27,-44.68 799.87,-37.11 800.93,-47.65 807.27,-44.68"/>
<text text-anchor="middle" x="834" y="-59.8" font-family="Times,serif" font-size="14.00">make</text>
</g>
<!-- 8 -->
<g id="node9" class="node">
<title>8</title>
<polygon fill="palegreen" stroke="black" points="943,-37 848,-37 848,-1 943,-1 943,-37"/>
<text text-anchor="middle" x="895.5" y="-15.3" font-family="Times,serif" font-size="14.00">Retired.dir</text>
</g>
<!-- 5&#45;&gt;8 -->
<g id="edge8" class="edge">
<title>5&#45;&gt;8</title>
<path fill="none" stroke="black" d="M843.39,-88.79C847.96,-83.13 852.98,-76.84 857.5,-71 863.93,-62.71 870.81,-53.55 876.94,-45.3"/>
<polygon fill="black" stroke="black" points="879.86,-47.24 882.99,-37.12 874.23,-43.08 879.86,-47.24"/>
<text text-anchor="middle" x="885" y="-59.8" font-family="Times,serif" font-size="14.00">read</text>
</g>
</g>
</svg>
