<?xml version="1.0" encoding="UTF-8" standalone="no"?>
<!DOCTYPE svg PUBLIC "-//W3C//DTD SVG 1.1//EN"
 "http://www.w3.org/Graphics/SVG/1.1/DTD/svg11.dtd">
<!-- Generated by graphviz version 6.0.2 (20221011.1828)
 -->
<!-- Pages: 1 -->
<svg width="1007pt" height="481pt"
 viewBox="0.00 0.00 1006.56 480.70" xmlns="http://www.w3.org/2000/svg" xmlns:xlink="http://www.w3.org/1999/xlink">
<g id="graph0" class="graph" transform="scale(1 1) rotate(0) translate(4 476.7)">
<polygon fill="white" stroke="none" points="-4,4 -4,-476.7 1002.56,-476.7 1002.56,4 -4,4"/>
<!-- 0 -->
<g id="node1" class="node">
<title>0</title>
<ellipse fill="none" stroke="black" cx="444.84" cy="-445.83" rx="31.23" ry="26.74"/>
<text text-anchor="middle" x="444.84" y="-449.63" font-family="Times,serif" font-size="14.00">Shell</text>
<text text-anchor="middle" x="444.84" y="-434.63" font-family="Times,serif" font-size="14.00">cron</text>
</g>
<!-- 1 -->
<g id="node2" class="node">
<title>1</title>
<ellipse fill="none" stroke="black" cx="806.84" cy="-341.09" rx="36.12" ry="26.74"/>
<text text-anchor="middle" x="806.84" y="-344.89" font-family="Times,serif" font-size="14.00">Ruby</text>
<text text-anchor="middle" x="806.84" y="-329.89" font-family="Times,serif" font-size="14.00">scrape</text>
</g>
<!-- 0&#45;&gt;1 -->
<g id="edge1" class="edge">
<title>0&#45;&gt;1</title>
<path fill="none" stroke="black" d="M475.85,-442.59C542.24,-437.41 695.93,-423.33 742.84,-400.96 757.34,-394.04 770.85,-382.7 781.68,-371.81"/>
<polygon fill="black" stroke="black" points="784.38,-374.06 788.73,-364.4 779.3,-369.23 784.38,-374.06"/>
<text text-anchor="middle" x="773.34" y="-389.76" font-family="Times,serif" font-size="14.00">run</text>
</g>
<!-- 2 -->
<g id="node3" class="node">
<title>2</title>
<ellipse fill="none" stroke="black" cx="801.84" cy="-131.61" rx="34.8" ry="26.74"/>
<text text-anchor="middle" x="801.84" y="-135.41" font-family="Times,serif" font-size="14.00">Ruby</text>
<text text-anchor="middle" x="801.84" y="-120.41" font-family="Times,serif" font-size="14.00">rollup</text>
</g>
<!-- 0&#45;&gt;2 -->
<g id="edge2" class="edge">
<title>0&#45;&gt;2</title>
<path fill="none" stroke="black" d="M475.98,-445.39C531.81,-444.62 649.09,-434.58 712.84,-367.96 762.92,-315.63 721.93,-275.89 750.84,-209.48 757.87,-193.34 768.26,-176.89 777.84,-163.37"/>
<polygon fill="black" stroke="black" points="780.92,-165.08 783.97,-154.94 775.26,-160.97 780.92,-165.08"/>
<text text-anchor="middle" x="748.34" y="-285.02" font-family="Times,serif" font-size="14.00">run</text>
</g>
<!-- 3 -->
<g id="node4" class="node">
<title>3</title>
<ellipse fill="none" stroke="black" cx="43.84" cy="-341.09" rx="43.68" ry="26.74"/>
<text text-anchor="middle" x="43.84" y="-344.89" font-family="Times,serif" font-size="14.00">Search</text>
<text text-anchor="middle" x="43.84" y="-329.89" font-family="Times,serif" font-size="14.00">slugs.txt</text>
</g>
<!-- 0&#45;&gt;3 -->
<g id="edge3" class="edge">
<title>0&#45;&gt;3</title>
<path fill="none" stroke="black" d="M413.78,-440.88C351.95,-432.39 209.72,-409.7 96.84,-367.96 93.16,-366.6 89.4,-365.07 85.66,-363.45"/>
<polygon fill="black" stroke="black" points="87.03,-360.22 76.47,-359.28 84.13,-366.6 87.03,-360.22"/>
<text text-anchor="middle" x="213.84" y="-389.76" font-family="Times,serif" font-size="14.00">write</text>
</g>
<!-- 4 -->
<g id="node5" class="node">
<title>4</title>
<ellipse fill="none" stroke="black" cx="149.84" cy="-341.09" rx="43.68" ry="26.74"/>
<text text-anchor="middle" x="149.84" y="-344.89" font-family="Times,serif" font-size="14.00">Sites</text>
<text text-anchor="middle" x="149.84" y="-329.89" font-family="Times,serif" font-size="14.00">slugs.txt</text>
</g>
<!-- 0&#45;&gt;4 -->
<g id="edge4" class="edge">
<title>0&#45;&gt;4</title>
<path fill="none" stroke="black" d="M415.3,-436.96C369.21,-424.34 277.73,-397.95 202.84,-367.96 199.2,-366.5 195.47,-364.9 191.74,-363.24"/>
<polygon fill="black" stroke="black" points="193.13,-360.02 182.58,-359 190.19,-366.37 193.13,-360.02"/>
<text text-anchor="middle" x="308.84" y="-389.76" font-family="Times,serif" font-size="14.00">write</text>
</g>
<!-- 5 -->
<g id="node6" class="node">
<title>5</title>
<ellipse fill="none" stroke="black" cx="255.84" cy="-341.09" rx="43.68" ry="26.74"/>
<text text-anchor="middle" x="255.84" y="-344.89" font-family="Times,serif" font-size="14.00">Ruby</text>
<text text-anchor="middle" x="255.84" y="-329.89" font-family="Times,serif" font-size="14.00">site&#45;web</text>
</g>
<!-- 0&#45;&gt;5 -->
<g id="edge5" class="edge">
<title>0&#45;&gt;5</title>
<path fill="none" stroke="black" d="M418.96,-430.76C387.55,-413.69 334.2,-384.69 297.1,-364.52"/>
<polygon fill="black" stroke="black" points="298.5,-361.3 288.04,-359.59 295.16,-367.45 298.5,-361.3"/>
<text text-anchor="middle" x="373.84" y="-389.76" font-family="Times,serif" font-size="14.00">runs</text>
</g>
<!-- 6 -->
<g id="node7" class="node">
<title>6</title>
<ellipse fill="none" stroke="black" cx="380.84" cy="-341.09" rx="62.87" ry="26.74"/>
<text text-anchor="middle" x="380.84" y="-344.89" font-family="Times,serif" font-size="14.00">Public</text>
<text text-anchor="middle" x="380.84" y="-329.89" font-family="Times,serif" font-size="14.00">site&#45;web.json</text>
</g>
<!-- 0&#45;&gt;6 -->
<g id="edge6" class="edge">
<title>0&#45;&gt;6</title>
<path fill="none" stroke="black" d="M430.48,-421.77C422.04,-408.22 411.21,-390.85 401.83,-375.78"/>
<polygon fill="black" stroke="black" points="404.76,-373.87 396.5,-367.23 398.82,-377.57 404.76,-373.87"/>
<text text-anchor="middle" x="430.84" y="-389.76" font-family="Times,serif" font-size="14.00">write</text>
</g>
<!-- 7 -->
<g id="node8" class="node">
<title>7</title>
<ellipse fill="none" stroke="black" cx="508.84" cy="-341.09" rx="46.84" ry="26.74"/>
<text text-anchor="middle" x="508.84" y="-344.89" font-family="Times,serif" font-size="14.00">Ruby</text>
<text text-anchor="middle" x="508.84" y="-329.89" font-family="Times,serif" font-size="14.00">slug&#45;web</text>
</g>
<!-- 0&#45;&gt;7 -->
<g id="edge7" class="edge">
<title>0&#45;&gt;7</title>
<path fill="none" stroke="black" d="M459.2,-421.77C467.77,-408.02 478.78,-390.34 488.26,-375.13"/>
<polygon fill="black" stroke="black" points="491.32,-376.84 493.63,-366.5 485.38,-373.14 491.32,-376.84"/>
<text text-anchor="middle" x="492.84" y="-389.76" font-family="Times,serif" font-size="14.00">runs</text>
</g>
<!-- 8 -->
<g id="node9" class="node">
<title>8</title>
<ellipse fill="none" stroke="black" cx="638.84" cy="-341.09" rx="65.11" ry="26.74"/>
<text text-anchor="middle" x="638.84" y="-344.89" font-family="Times,serif" font-size="14.00">Public</text>
<text text-anchor="middle" x="638.84" y="-329.89" font-family="Times,serif" font-size="14.00">slug&#45;web.json</text>
</g>
<!-- 0&#45;&gt;8 -->
<g id="edge8" class="edge">
<title>0&#45;&gt;8</title>
<path fill="none" stroke="black" d="M471,-430.97C501.51,-414.82 552.58,-387.77 590.39,-367.75"/>
<polygon fill="black" stroke="black" points="592.5,-370.59 599.7,-362.82 589.22,-364.41 592.5,-370.59"/>
<text text-anchor="middle" x="567.84" y="-389.76" font-family="Times,serif" font-size="14.00">write</text>
</g>
<!-- 11 -->
<g id="node12" class="node">
<title>11</title>
<ellipse fill="none" stroke="black" cx="909.84" cy="-236.35" rx="48.17" ry="26.74"/>
<text text-anchor="middle" x="909.84" y="-240.15" font-family="Times,serif" font-size="14.00">Pages</text>
<text text-anchor="middle" x="909.84" y="-225.15" font-family="Times,serif" font-size="14.00">words.txt</text>
</g>
<!-- 1&#45;&gt;11 -->
<g id="edge11" class="edge">
<title>1&#45;&gt;11</title>
<path fill="none" stroke="black" d="M828.18,-318.8C843.1,-303.92 863.24,-283.83 879.78,-267.33"/>
<polygon fill="black" stroke="black" points="882.49,-269.58 887.1,-260.04 877.55,-264.62 882.49,-269.58"/>
<text text-anchor="middle" x="877.84" y="-285.02" font-family="Times,serif" font-size="14.00">write</text>
</g>
<!-- 12 -->
<g id="node13" class="node">
<title>12</title>
<ellipse fill="none" stroke="black" cx="801.84" cy="-236.35" rx="41.94" ry="26.74"/>
<text text-anchor="middle" x="801.84" y="-240.15" font-family="Times,serif" font-size="14.00">Pages</text>
<text text-anchor="middle" x="801.84" y="-225.15" font-family="Times,serif" font-size="14.00">sites.txt</text>
</g>
<!-- 1&#45;&gt;12 -->
<g id="edge12" class="edge">
<title>1&#45;&gt;12</title>
<path fill="none" stroke="black" d="M805.58,-314.16C804.98,-301.88 804.26,-286.99 803.6,-273.6"/>
<polygon fill="black" stroke="black" points="807.08,-273.09 803.1,-263.27 800.09,-273.43 807.08,-273.09"/>
<text text-anchor="middle" x="817.84" y="-285.02" font-family="Times,serif" font-size="14.00">write</text>
</g>
<!-- 13 -->
<g id="node14" class="node">
<title>13</title>
<ellipse fill="none" stroke="black" cx="633.84" cy="-26.87" rx="48.17" ry="26.74"/>
<text text-anchor="middle" x="633.84" y="-30.67" font-family="Times,serif" font-size="14.00">Sites</text>
<text text-anchor="middle" x="633.84" y="-15.67" font-family="Times,serif" font-size="14.00">words.txt</text>
</g>
<!-- 2&#45;&gt;13 -->
<g id="edge15" class="edge">
<title>2&#45;&gt;13</title>
<path fill="none" stroke="black" d="M775.22,-114.33C748.1,-97.75 705.71,-71.82 674.41,-52.68"/>
<polygon fill="black" stroke="black" points="675.85,-49.46 665.49,-47.23 672.2,-55.43 675.85,-49.46"/>
<text text-anchor="middle" x="741.84" y="-75.54" font-family="Times,serif" font-size="14.00">write</text>
</g>
<!-- 14 -->
<g id="node15" class="node">
<title>14</title>
<ellipse fill="none" stroke="black" cx="747.84" cy="-26.87" rx="48.17" ry="26.74"/>
<text text-anchor="middle" x="747.84" y="-30.67" font-family="Times,serif" font-size="14.00">Search</text>
<text text-anchor="middle" x="747.84" y="-15.67" font-family="Times,serif" font-size="14.00">words.txt</text>
</g>
<!-- 2&#45;&gt;14 -->
<g id="edge16" class="edge">
<title>2&#45;&gt;14</title>
<path fill="none" stroke="black" d="M789.18,-106.52C782.22,-93.29 773.48,-76.65 765.83,-62.09"/>
<polygon fill="black" stroke="black" points="768.74,-60.1 760.99,-52.88 762.54,-63.36 768.74,-60.1"/>
<text text-anchor="middle" x="791.84" y="-75.54" font-family="Times,serif" font-size="14.00">write</text>
</g>
<!-- 15 -->
<g id="node16" class="node">
<title>15</title>
<ellipse fill="none" stroke="black" cx="855.84" cy="-26.87" rx="41.94" ry="26.74"/>
<text text-anchor="middle" x="855.84" y="-30.67" font-family="Times,serif" font-size="14.00">Sites</text>
<text text-anchor="middle" x="855.84" y="-15.67" font-family="Times,serif" font-size="14.00">sites.txt</text>
</g>
<!-- 2&#45;&gt;15 -->
<g id="edge17" class="edge">
<title>2&#45;&gt;15</title>
<path fill="none" stroke="black" d="M814.5,-106.52C821.51,-93.19 830.33,-76.41 838.02,-61.77"/>
<polygon fill="black" stroke="black" points="841.33,-63 842.88,-52.52 835.13,-59.74 841.33,-63"/>
<text text-anchor="middle" x="845.84" y="-75.54" font-family="Times,serif" font-size="14.00">write</text>
</g>
<!-- 16 -->
<g id="node17" class="node">
<title>16</title>
<ellipse fill="none" stroke="black" cx="956.84" cy="-26.87" rx="41.94" ry="26.74"/>
<text text-anchor="middle" x="956.84" y="-30.67" font-family="Times,serif" font-size="14.00">Search</text>
<text text-anchor="middle" x="956.84" y="-15.67" font-family="Times,serif" font-size="14.00">sites.txt</text>
</g>
<!-- 2&#45;&gt;16 -->
<g id="edge18" class="edge">
<title>2&#45;&gt;16</title>
<path fill="none" stroke="black" d="M827.78,-113.41C853.01,-96.69 891.58,-71.13 919.98,-52.3"/>
<polygon fill="black" stroke="black" points="922.04,-55.13 928.45,-46.69 918.18,-49.3 922.04,-55.13"/>
<text text-anchor="middle" x="901.84" y="-75.54" font-family="Times,serif" font-size="14.00">write</text>
</g>
<!-- 9 -->
<g id="node10" class="node">
<title>9</title>
<ellipse fill="none" stroke="black" cx="806.84" cy="-445.83" rx="30.31" ry="26.74"/>
<text text-anchor="middle" x="806.84" y="-449.63" font-family="Times,serif" font-size="14.00">Sites</text>
<text text-anchor="middle" x="806.84" y="-434.63" font-family="Times,serif" font-size="14.00">dir</text>
</g>
<!-- 9&#45;&gt;1 -->
<g id="edge9" class="edge">
<title>9&#45;&gt;1</title>
<path fill="none" stroke="black" d="M806.84,-418.9C806.84,-406.62 806.84,-391.73 806.84,-378.34"/>
<polygon fill="black" stroke="black" points="810.34,-378.01 806.84,-368.01 803.34,-378.01 810.34,-378.01"/>
<text text-anchor="middle" x="818.84" y="-389.76" font-family="Times,serif" font-size="14.00">read</text>
</g>
<!-- 10 -->
<g id="node11" class="node">
<title>10</title>
<ellipse fill="none" stroke="black" cx="896.84" cy="-445.83" rx="41.94" ry="26.74"/>
<text text-anchor="middle" x="896.84" y="-449.63" font-family="Times,serif" font-size="14.00">Wiki</text>
<text text-anchor="middle" x="896.84" y="-434.63" font-family="Times,serif" font-size="14.00">sitemap</text>
</g>
<!-- 10&#45;&gt;1 -->
<g id="edge10" class="edge">
<title>10&#45;&gt;1</title>
<path fill="none" stroke="black" d="M876.87,-422.03C863.87,-407.19 846.79,-387.7 832.76,-371.67"/>
<polygon fill="black" stroke="black" points="835.36,-369.34 826.14,-364.12 830.1,-373.95 835.36,-369.34"/>
<text text-anchor="middle" x="870.84" y="-389.76" font-family="Times,serif" font-size="14.00">fetch</text>
</g>
<!-- 11&#45;&gt;2 -->
<g id="edge13" class="edge">
<title>11&#45;&gt;2</title>
<path fill="none" stroke="black" d="M886.14,-212.8C869.88,-197.33 848.2,-176.71 830.89,-160.25"/>
<polygon fill="black" stroke="black" points="832.95,-157.37 823.29,-153.01 828.12,-162.44 832.95,-157.37"/>
<text text-anchor="middle" x="873.84" y="-180.28" font-family="Times,serif" font-size="14.00">read</text>
</g>
<!-- 12&#45;&gt;2 -->
<g id="edge14" class="edge">
<title>12&#45;&gt;2</title>
<path fill="none" stroke="black" d="M801.84,-209.42C801.84,-197.14 801.84,-182.25 801.84,-168.86"/>
<polygon fill="black" stroke="black" points="805.34,-168.53 801.84,-158.53 798.34,-168.53 805.34,-168.53"/>
<text text-anchor="middle" x="813.84" y="-180.28" font-family="Times,serif" font-size="14.00">read</text>
</g>
</g>
</svg>
