<?xml version="1.0" encoding="UTF-8" standalone="no"?>
<!DOCTYPE svg PUBLIC "-//W3C//DTD SVG 1.1//EN"
 "http://www.w3.org/Graphics/SVG/1.1/DTD/svg11.dtd">
<!-- Generated by graphviz version 2.43.0 (0)
 -->
<!-- Title: %3 Pages: 1 -->
<svg width="564pt" height="580pt"
 viewBox="0.00 0.00 564.00 580.00" xmlns="http://www.w3.org/2000/svg" xmlns:xlink="http://www.w3.org/1999/xlink">
<g id="graph0" class="graph" transform="scale(1 1) rotate(0) translate(4 576)">
<title>%3</title>
<polygon fill="white" stroke="transparent" points="-4,4 -4,-576 560,-576 560,4 -4,4"/>
<!-- 0 -->
<g id="node1" class="node">
<title>0</title>
<polygon fill="lightblue" stroke="black" points="344,-572 290,-572 290,-534 344,-534 344,-572"/>
<text text-anchor="middle" x="317" y="-556.8" font-family="Times,serif" font-size="14.00">Shell</text>
<text text-anchor="middle" x="317" y="-541.8" font-family="Times,serif" font-size="14.00">cron</text>
</g>
<!-- 1 -->
<g id="node2" class="node">
<title>1</title>
<polygon fill="lightblue" stroke="black" points="161,-483 97,-483 97,-445 161,-445 161,-483"/>
<text text-anchor="middle" x="129" y="-467.8" font-family="Times,serif" font-size="14.00">Ruby</text>
<text text-anchor="middle" x="129" y="-452.8" font-family="Times,serif" font-size="14.00">scrape</text>
</g>
<!-- 0&#45;&gt;1 -->
<g id="edge1" class="edge">
<title>0&#45;&gt;1</title>
<g id="a_edge1"><a xlink:href="https://github.com/WardCunningham/search/blob/master/cron.sh#L7" xlink:title="run">
<path fill="none" stroke="black" d="M289.73,-541.33C272.47,-534.43 249.76,-525.06 230,-516 210.23,-506.94 188.68,-496.17 170.57,-486.88"/>
<polygon fill="black" stroke="black" points="171.94,-483.64 161.45,-482.17 168.73,-489.86 171.94,-483.64"/>
</a>
</g>
<g id="a_edge1&#45;label"><a xlink:href="https://github.com/WardCunningham/search/blob/master/cron.sh#L7" xlink:title="run">
<text text-anchor="middle" x="242.5" y="-504.8" font-family="Times,serif" font-size="14.00">run</text>
</a>
</g>
</g>
<!-- 2 -->
<g id="node3" class="node">
<title>2</title>
<polygon fill="lightblue" stroke="black" points="256.5,-305 197.5,-305 197.5,-267 256.5,-267 256.5,-305"/>
<text text-anchor="middle" x="227" y="-289.8" font-family="Times,serif" font-size="14.00">Ruby</text>
<text text-anchor="middle" x="227" y="-274.8" font-family="Times,serif" font-size="14.00">rollup</text>
</g>
<!-- 0&#45;&gt;2 -->
<g id="edge2" class="edge">
<title>0&#45;&gt;2</title>
<g id="a_edge2"><a xlink:href="https://github.com/WardCunningham/search/blob/master/cron.sh#L18" xlink:title="run">
<path fill="none" stroke="black" d="M343.7,-533.72C349.51,-528.6 355.08,-522.61 359,-516 375.18,-488.73 376.82,-474.81 366,-445 345.46,-388.41 293.77,-339.2 259.54,-311.33"/>
<polygon fill="black" stroke="black" points="261.67,-308.55 251.67,-305.04 257.3,-314.02 261.67,-308.55"/>
</a>
</g>
<g id="a_edge2&#45;label"><a xlink:href="https://github.com/WardCunningham/search/blob/master/cron.sh#L18" xlink:title="run">
<text text-anchor="middle" x="369.5" y="-415.8" font-family="Times,serif" font-size="14.00">run</text>
</a>
</g>
</g>
<!-- 3 -->
<g id="node4" class="node">
<title>3</title>
<polygon fill="palegreen" stroke="black" points="259.5,-483 180.5,-483 180.5,-445 259.5,-445 259.5,-483"/>
<text text-anchor="middle" x="220" y="-467.8" font-family="Times,serif" font-size="14.00">Search</text>
<text text-anchor="middle" x="220" y="-452.8" font-family="Times,serif" font-size="14.00">slugs.txt</text>
</g>
<!-- 0&#45;&gt;3 -->
<g id="edge3" class="edge">
<title>0&#45;&gt;3</title>
<g id="a_edge3"><a xlink:href="https://github.com/WardCunningham/search/blob/master/cron.sh#L21" xlink:title="write">
<path fill="none" stroke="black" d="M295.49,-533.85C288.87,-528.18 281.59,-521.88 275,-516 265.68,-507.69 255.62,-498.45 246.69,-490.14"/>
<polygon fill="black" stroke="black" points="248.87,-487.39 239.18,-483.12 244.1,-492.51 248.87,-487.39"/>
</a>
</g>
<g id="a_edge3&#45;label"><a xlink:href="https://github.com/WardCunningham/search/blob/master/cron.sh#L21" xlink:title="write">
<text text-anchor="middle" x="294" y="-504.8" font-family="Times,serif" font-size="14.00">write</text>
</a>
</g>
</g>
<!-- 4 -->
<g id="node5" class="node">
<title>4</title>
<polygon fill="palegreen" stroke="black" points="356.5,-483 277.5,-483 277.5,-445 356.5,-445 356.5,-483"/>
<text text-anchor="middle" x="317" y="-467.8" font-family="Times,serif" font-size="14.00">Sites</text>
<text text-anchor="middle" x="317" y="-452.8" font-family="Times,serif" font-size="14.00">slugs.txt</text>
</g>
<!-- 0&#45;&gt;4 -->
<g id="edge4" class="edge">
<title>0&#45;&gt;4</title>
<g id="a_edge4"><a xlink:href="https://github.com/WardCunningham/search/blob/master/cron.sh#L21" xlink:title="write">
<path fill="none" stroke="black" d="M317,-533.97C317,-522.19 317,-506.56 317,-493.16"/>
<polygon fill="black" stroke="black" points="320.5,-493 317,-483 313.5,-493 320.5,-493"/>
</a>
</g>
<g id="a_edge4&#45;label"><a xlink:href="https://github.com/WardCunningham/search/blob/master/cron.sh#L21" xlink:title="write">
<text text-anchor="middle" x="336" y="-504.8" font-family="Times,serif" font-size="14.00">write</text>
</a>
</g>
</g>
<!-- 5 -->
<g id="node6" class="node">
<title>5</title>
<polygon fill="lightblue" stroke="black" points="284.5,-127 227.5,-127 227.5,-89 284.5,-89 284.5,-127"/>
<text text-anchor="middle" x="256" y="-111.8" font-family="Times,serif" font-size="14.00">Ruby</text>
<text text-anchor="middle" x="256" y="-96.8" font-family="Times,serif" font-size="14.00">found</text>
</g>
<!-- 0&#45;&gt;5 -->
<g id="edge5" class="edge">
<title>0&#45;&gt;5</title>
<g id="a_edge5"><a xlink:href="https://github.com/WardCunningham/search/blob/master/cron.sh#L39" xlink:title="run">
<path fill="none" stroke="black" d="M344.1,-552.85C401.69,-553.11 531,-544.81 531,-465 531,-465 531,-465 531,-196 531,-147.04 370.54,-122.11 294.76,-113.07"/>
<polygon fill="black" stroke="black" points="294.99,-109.58 284.65,-111.9 294.18,-116.53 294.99,-109.58"/>
</a>
</g>
<g id="a_edge5&#45;label"><a xlink:href="https://github.com/WardCunningham/search/blob/master/cron.sh#L39" xlink:title="run">
<text text-anchor="middle" x="543.5" y="-326.8" font-family="Times,serif" font-size="14.00">run</text>
</a>
</g>
</g>
<!-- 9 -->
<g id="node10" class="node">
<title>9</title>
<polygon fill="palegreen" stroke="black" points="171.5,-394 86.5,-394 86.5,-356 171.5,-356 171.5,-394"/>
<text text-anchor="middle" x="129" y="-378.8" font-family="Times,serif" font-size="14.00">Pages</text>
<text text-anchor="middle" x="129" y="-363.8" font-family="Times,serif" font-size="14.00">words.txt</text>
</g>
<!-- 1&#45;&gt;9 -->
<g id="edge17" class="edge">
<title>1&#45;&gt;9</title>
<g id="a_edge17"><a xlink:href="https://github.com/WardCunningham/search/blob/master/scrape.rb#L43" xlink:title="write">
<path fill="none" stroke="black" d="M129,-444.97C129,-433.19 129,-417.56 129,-404.16"/>
<polygon fill="black" stroke="black" points="132.5,-404 129,-394 125.5,-404 132.5,-404"/>
</a>
</g>
<g id="a_edge17&#45;label"><a xlink:href="https://github.com/WardCunningham/search/blob/master/scrape.rb#L43" xlink:title="write">
<text text-anchor="middle" x="148" y="-415.8" font-family="Times,serif" font-size="14.00">write</text>
</a>
</g>
</g>
<!-- 10 -->
<g id="node11" class="node">
<title>10</title>
<polygon fill="palegreen" stroke="black" points="264.5,-394 189.5,-394 189.5,-356 264.5,-356 264.5,-394"/>
<text text-anchor="middle" x="227" y="-378.8" font-family="Times,serif" font-size="14.00">Pages</text>
<text text-anchor="middle" x="227" y="-363.8" font-family="Times,serif" font-size="14.00">sites.txt</text>
</g>
<!-- 1&#45;&gt;10 -->
<g id="edge18" class="edge">
<title>1&#45;&gt;10</title>
<g id="a_edge18"><a xlink:href="https://github.com/WardCunningham/search/blob/master/scrape.rb#L43" xlink:title="write">
<path fill="none" stroke="black" d="M150.47,-444.81C157.09,-439.15 164.38,-432.85 171,-427 180.55,-418.57 190.89,-409.21 200.05,-400.84"/>
<polygon fill="black" stroke="black" points="202.42,-403.42 207.43,-394.08 197.7,-398.25 202.42,-403.42"/>
</a>
</g>
<g id="a_edge18&#45;label"><a xlink:href="https://github.com/WardCunningham/search/blob/master/scrape.rb#L43" xlink:title="write">
<text text-anchor="middle" x="206" y="-415.8" font-family="Times,serif" font-size="14.00">write</text>
</a>
</g>
</g>
<!-- 6 -->
<g id="node7" class="node">
<title>6</title>
<polygon fill="palegreen" stroke="black" points="114.5,-216 39.5,-216 39.5,-178 114.5,-178 114.5,-216"/>
<text text-anchor="middle" x="77" y="-200.8" font-family="Times,serif" font-size="14.00">Sites</text>
<text text-anchor="middle" x="77" y="-185.8" font-family="Times,serif" font-size="14.00">sites.txt</text>
</g>
<!-- 2&#45;&gt;6 -->
<g id="edge13" class="edge">
<title>2&#45;&gt;6</title>
<g id="a_edge13"><a xlink:href="https://github.com/WardCunningham/search/blob/master/rollup.rb#L6" xlink:title="write">
<path fill="none" stroke="black" d="M197.27,-270.79C184.42,-264.42 169.3,-256.64 156,-249 141.37,-240.6 125.67,-230.67 112.16,-221.81"/>
<polygon fill="black" stroke="black" points="113.9,-218.77 103.63,-216.17 110.04,-224.61 113.9,-218.77"/>
</a>
</g>
<g id="a_edge13&#45;label"><a xlink:href="https://github.com/WardCunningham/search/blob/master/rollup.rb#L6" xlink:title="write">
<text text-anchor="middle" x="175" y="-237.8" font-family="Times,serif" font-size="14.00">write</text>
</a>
</g>
</g>
<!-- 11 -->
<g id="node12" class="node">
<title>11</title>
<polygon fill="palegreen" stroke="black" points="502.5,-216 417.5,-216 417.5,-178 502.5,-178 502.5,-216"/>
<text text-anchor="middle" x="460" y="-200.8" font-family="Times,serif" font-size="14.00">Sites</text>
<text text-anchor="middle" x="460" y="-185.8" font-family="Times,serif" font-size="14.00">words.txt</text>
</g>
<!-- 2&#45;&gt;11 -->
<g id="edge11" class="edge">
<title>2&#45;&gt;11</title>
<g id="a_edge11"><a xlink:href="https://github.com/WardCunningham/search/blob/master/rollup.rb#L5" xlink:title="write">
<path fill="none" stroke="black" d="M256.51,-273.98C294.46,-259.81 361.04,-234.95 407.68,-217.54"/>
<polygon fill="black" stroke="black" points="409.16,-220.72 417.31,-213.94 406.71,-214.16 409.16,-220.72"/>
</a>
</g>
<g id="a_edge11&#45;label"><a xlink:href="https://github.com/WardCunningham/search/blob/master/rollup.rb#L5" xlink:title="write">
<text text-anchor="middle" x="376" y="-237.8" font-family="Times,serif" font-size="14.00">write</text>
</a>
</g>
</g>
<!-- 12 -->
<g id="node13" class="node">
<title>12</title>
<polygon fill="palegreen" stroke="black" points="217.5,-216 132.5,-216 132.5,-178 217.5,-178 217.5,-216"/>
<text text-anchor="middle" x="175" y="-200.8" font-family="Times,serif" font-size="14.00">Search</text>
<text text-anchor="middle" x="175" y="-185.8" font-family="Times,serif" font-size="14.00">words.txt</text>
</g>
<!-- 2&#45;&gt;12 -->
<g id="edge12" class="edge">
<title>2&#45;&gt;12</title>
<g id="a_edge12"><a xlink:href="https://github.com/WardCunningham/search/blob/master/rollup.rb#L5" xlink:title="write">
<path fill="none" stroke="black" d="M216.23,-266.97C208.97,-254.84 199.28,-238.63 191.12,-224.97"/>
<polygon fill="black" stroke="black" points="193.9,-222.79 185.76,-216 187.89,-226.38 193.9,-222.79"/>
</a>
</g>
<g id="a_edge12&#45;label"><a xlink:href="https://github.com/WardCunningham/search/blob/master/rollup.rb#L5" xlink:title="write">
<text text-anchor="middle" x="224" y="-237.8" font-family="Times,serif" font-size="14.00">write</text>
</a>
</g>
</g>
<!-- 13 -->
<g id="node14" class="node">
<title>13</title>
<polygon fill="palegreen" stroke="black" points="310.5,-216 235.5,-216 235.5,-178 310.5,-178 310.5,-216"/>
<text text-anchor="middle" x="273" y="-200.8" font-family="Times,serif" font-size="14.00">Search</text>
<text text-anchor="middle" x="273" y="-185.8" font-family="Times,serif" font-size="14.00">sites.txt</text>
</g>
<!-- 2&#45;&gt;13 -->
<g id="edge14" class="edge">
<title>2&#45;&gt;13</title>
<g id="a_edge14"><a xlink:href="https://github.com/WardCunningham/search/blob/master/rollup.rb#L6" xlink:title="write">
<path fill="none" stroke="black" d="M236.53,-266.97C242.95,-254.84 251.52,-238.63 258.74,-224.97"/>
<polygon fill="black" stroke="black" points="261.9,-226.48 263.48,-216 255.71,-223.21 261.9,-226.48"/>
</a>
</g>
<g id="a_edge14&#45;label"><a xlink:href="https://github.com/WardCunningham/search/blob/master/rollup.rb#L6" xlink:title="write">
<text text-anchor="middle" x="271" y="-237.8" font-family="Times,serif" font-size="14.00">write</text>
</a>
</g>
</g>
<!-- 8 -->
<g id="node9" class="node">
<title>8</title>
<polygon fill="palegreen" stroke="black" points="54,-38 0,-38 0,0 54,0 54,-38"/>
<text text-anchor="middle" x="27" y="-22.8" font-family="Times,serif" font-size="14.00">Sites</text>
<text text-anchor="middle" x="27" y="-7.8" font-family="Times,serif" font-size="14.00">dir</text>
</g>
<!-- 5&#45;&gt;8 -->
<g id="edge8" class="edge">
<title>5&#45;&gt;8</title>
<g id="a_edge8"><a xlink:href="https://github.com/WardCunningham/search/blob/master/found.rb#L16" xlink:title="make">
<path fill="none" stroke="black" d="M227.46,-96.16C186.02,-80.41 109.17,-51.22 63.61,-33.91"/>
<polygon fill="black" stroke="black" points="64.71,-30.58 54.11,-30.3 62.22,-37.12 64.71,-30.58"/>
</a>
</g>
<g id="a_edge8&#45;label"><a xlink:href="https://github.com/WardCunningham/search/blob/master/found.rb#L16" xlink:title="make">
<text text-anchor="middle" x="175.5" y="-59.8" font-family="Times,serif" font-size="14.00">make</text>
</a>
</g>
</g>
<!-- 6&#45;&gt;5 -->
<g id="edge6" class="edge">
<title>6&#45;&gt;5</title>
<g id="a_edge6"><a xlink:href="https://github.com/WardCunningham/search/blob/master/found.rb#L6" xlink:title="read">
<path fill="none" stroke="black" d="M123.09,-173.6C156.06,-157.57 199.41,-136.51 227.48,-122.86"/>
<polygon fill="black" stroke="black" points="121.55,-170.45 114.09,-177.97 124.61,-176.75 121.55,-170.45"/>
</a>
</g>
<g id="a_edge6&#45;label"><a xlink:href="https://github.com/WardCunningham/search/blob/master/found.rb#L6" xlink:title="read">
<text text-anchor="middle" x="194.5" y="-148.8" font-family="Times,serif" font-size="14.00">read</text>
</a>
</g>
</g>
<!-- 7 -->
<g id="node8" class="node">
<title>7</title>
<polygon fill="palegreen" stroke="black" points="399,-216 329,-216 329,-178 399,-178 399,-216"/>
<text text-anchor="middle" x="364" y="-200.8" font-family="Times,serif" font-size="14.00">Retired</text>
<text text-anchor="middle" x="364" y="-185.8" font-family="Times,serif" font-size="14.00">dir</text>
</g>
<!-- 7&#45;&gt;5 -->
<g id="edge7" class="edge">
<title>7&#45;&gt;5</title>
<g id="a_edge7"><a xlink:href="https://github.com/WardCunningham/search/blob/master/found.rb#L6" xlink:title="read">
<path fill="none" stroke="black" d="M333.39,-171.34C315.87,-157.23 294.27,-139.83 278.35,-127"/>
<polygon fill="black" stroke="black" points="331.64,-174.43 341.62,-177.97 336.03,-168.97 331.64,-174.43"/>
</a>
</g>
<g id="a_edge7&#45;label"><a xlink:href="https://github.com/WardCunningham/search/blob/master/found.rb#L6" xlink:title="read">
<text text-anchor="middle" x="332.5" y="-148.8" font-family="Times,serif" font-size="14.00">read</text>
</a>
</g>
</g>
<!-- 8&#45;&gt;1 -->
<g id="edge15" class="edge">
<title>8&#45;&gt;1</title>
<g id="a_edge15"><a xlink:href="https://github.com/WardCunningham/search/blob/master/scrape.rb#L13" xlink:title="read">
<path fill="none" stroke="black" d="M19.19,-47.97C15.13,-64.91 11,-87.03 11,-107 11,-376 11,-376 11,-376 11,-418.76 61.82,-442.87 96.76,-454.38"/>
<polygon fill="black" stroke="black" points="22.61,-48.71 21.67,-38.15 15.83,-46.99 22.61,-48.71"/>
</a>
</g>
<g id="a_edge15&#45;label"><a xlink:href="https://github.com/WardCunningham/search/blob/master/scrape.rb#L13" xlink:title="read">
<text text-anchor="middle" x="27.5" y="-237.8" font-family="Times,serif" font-size="14.00">read</text>
</a>
</g>
</g>
<!-- 9&#45;&gt;2 -->
<g id="edge9" class="edge">
<title>9&#45;&gt;2</title>
<g id="a_edge9"><a xlink:href="https://github.com/WardCunningham/search/blob/master/rollup.rb#L3" xlink:title="read">
<path fill="none" stroke="black" d="M157.21,-348.96C173.03,-334.91 192.4,-317.71 206.72,-305"/>
<polygon fill="black" stroke="black" points="154.46,-346.72 149.31,-355.97 159.11,-351.95 154.46,-346.72"/>
</a>
</g>
<g id="a_edge9&#45;label"><a xlink:href="https://github.com/WardCunningham/search/blob/master/rollup.rb#L3" xlink:title="read">
<text text-anchor="middle" x="200.5" y="-326.8" font-family="Times,serif" font-size="14.00">read</text>
</a>
</g>
</g>
<!-- 10&#45;&gt;2 -->
<g id="edge10" class="edge">
<title>10&#45;&gt;2</title>
<g id="a_edge10"><a xlink:href="https://github.com/WardCunningham/search/blob/master/rollup.rb#L4" xlink:title="read">
<path fill="none" stroke="black" d="M227,-345.82C227,-332.41 227,-316.78 227,-305"/>
<polygon fill="black" stroke="black" points="223.5,-345.97 227,-355.97 230.5,-345.97 223.5,-345.97"/>
</a>
</g>
<g id="a_edge10&#45;label"><a xlink:href="https://github.com/WardCunningham/search/blob/master/rollup.rb#L4" xlink:title="read">
<text text-anchor="middle" x="243.5" y="-326.8" font-family="Times,serif" font-size="14.00">read</text>
</a>
</g>
</g>
<!-- 14 -->
<g id="node15" class="node">
<title>14</title>
<polygon fill="palegreen" stroke="black" points="164,-572 90,-572 90,-534 164,-534 164,-572"/>
<text text-anchor="middle" x="127" y="-556.8" font-family="Times,serif" font-size="14.00">Wiki</text>
<text text-anchor="middle" x="127" y="-541.8" font-family="Times,serif" font-size="14.00">sitemap</text>
</g>
<!-- 14&#45;&gt;1 -->
<g id="edge16" class="edge">
<title>14&#45;&gt;1</title>
<g id="a_edge16"><a xlink:href="https://github.com/WardCunningham/search/blob/master/scrape.rb#L21" xlink:title="get">
<path fill="none" stroke="black" d="M127.52,-523.4C127.66,-516.1 127.83,-508.26 128,-501 128.14,-495.25 128.3,-488.98 128.46,-483.31"/>
<polygon fill="black" stroke="black" points="124.02,-523.52 127.32,-533.59 131.02,-523.66 124.02,-523.52"/>
</a>
</g>
<g id="a_edge16&#45;label"><a xlink:href="https://github.com/WardCunningham/search/blob/master/scrape.rb#L21" xlink:title="get">
<text text-anchor="middle" x="140" y="-504.8" font-family="Times,serif" font-size="14.00">get</text>
</a>
</g>
</g>
</g>
</svg>
