<?xml version="1.0" encoding="UTF-8" standalone="no"?>
<!DOCTYPE svg PUBLIC "-//W3C//DTD SVG 1.1//EN"
 "http://www.w3.org/Graphics/SVG/1.1/DTD/svg11.dtd">
<!-- Generated by graphviz version 2.43.0 (0)
 -->
<!-- Title: %3 Pages: 1 -->
<svg width="443pt" height="580pt"
 viewBox="0.00 0.00 442.50 580.00" xmlns="http://www.w3.org/2000/svg" xmlns:xlink="http://www.w3.org/1999/xlink">
<g id="graph0" class="graph" transform="scale(1 1) rotate(0) translate(4 576)">
<title>%3</title>
<polygon fill="white" stroke="transparent" points="-4,4 -4,-576 438.5,-576 438.5,4 -4,4"/>
<!-- 0 -->
<g id="node1" class="node">
<title>0</title>
<polygon fill="lightblue" stroke="black" points="219.5,-572 165.5,-572 165.5,-534 219.5,-534 219.5,-572"/>
<text text-anchor="middle" x="192.5" y="-556.8" font-family="Times,serif" font-size="14.00">Shell</text>
<text text-anchor="middle" x="192.5" y="-541.8" font-family="Times,serif" font-size="14.00">cron</text>
</g>
<!-- 1 -->
<g id="node2" class="node">
<title>1</title>
<polygon fill="lightblue" stroke="black" points="324.5,-305 260.5,-305 260.5,-267 324.5,-267 324.5,-305"/>
<text text-anchor="middle" x="292.5" y="-289.8" font-family="Times,serif" font-size="14.00">Ruby</text>
<text text-anchor="middle" x="292.5" y="-274.8" font-family="Times,serif" font-size="14.00">scrape</text>
</g>
<!-- 0&#45;&gt;1 -->
<g id="edge1" class="edge">
<title>0&#45;&gt;1</title>
<g id="a_edge1"><a xlink:href="https://github.com/WardCunningham/search/blob/master/cron.sh#L7" xlink:title="run">
<path fill="none" stroke="black" d="M218.58,-533.99C224.55,-528.79 230.35,-522.69 234.5,-516 245.16,-498.81 273.82,-372.19 286.42,-314.95"/>
<polygon fill="black" stroke="black" points="289.85,-315.63 288.57,-305.11 283.01,-314.13 289.85,-315.63"/>
</a>
</g>
<g id="a_edge1&#45;label"><a xlink:href="https://github.com/WardCunningham/search/blob/master/cron.sh#L7" xlink:title="run">
<text text-anchor="middle" x="276" y="-415.8" font-family="Times,serif" font-size="14.00">run</text>
</a>
</g>
</g>
<!-- 2 -->
<g id="node3" class="node">
<title>2</title>
<polygon fill="lightblue" stroke="black" points="224,-127 165,-127 165,-89 224,-89 224,-127"/>
<text text-anchor="middle" x="194.5" y="-111.8" font-family="Times,serif" font-size="14.00">Ruby</text>
<text text-anchor="middle" x="194.5" y="-96.8" font-family="Times,serif" font-size="14.00">rollup</text>
</g>
<!-- 0&#45;&gt;2 -->
<g id="edge2" class="edge">
<title>0&#45;&gt;2</title>
<g id="a_edge2"><a xlink:href="https://github.com/WardCunningham/search/blob/master/cron.sh#L18" xlink:title="run">
<path fill="none" stroke="black" d="M165.25,-549.9C118.39,-544.65 27.5,-526.53 27.5,-465 27.5,-465 27.5,-465 27.5,-196 27.5,-138.93 105.17,-119.24 154.57,-112.48"/>
<polygon fill="black" stroke="black" points="155.15,-115.94 164.64,-111.23 154.29,-108.99 155.15,-115.94"/>
</a>
</g>
<g id="a_edge2&#45;label"><a xlink:href="https://github.com/WardCunningham/search/blob/master/cron.sh#L18" xlink:title="run">
<text text-anchor="middle" x="40" y="-326.8" font-family="Times,serif" font-size="14.00">run</text>
</a>
</g>
</g>
<!-- 3 -->
<g id="node4" class="node">
<title>3</title>
<polygon fill="palegreen" stroke="black" points="135,-483 56,-483 56,-445 135,-445 135,-483"/>
<text text-anchor="middle" x="95.5" y="-467.8" font-family="Times,serif" font-size="14.00">Search</text>
<text text-anchor="middle" x="95.5" y="-452.8" font-family="Times,serif" font-size="14.00">slugs.txt</text>
</g>
<!-- 0&#45;&gt;3 -->
<g id="edge3" class="edge">
<title>0&#45;&gt;3</title>
<g id="a_edge3"><a xlink:href="https://github.com/WardCunningham/search/blob/master/cron.sh#L21" xlink:title="write">
<path fill="none" stroke="black" d="M170.99,-533.85C164.37,-528.18 157.09,-521.88 150.5,-516 141.18,-507.69 131.12,-498.45 122.19,-490.14"/>
<polygon fill="black" stroke="black" points="124.37,-487.39 114.68,-483.12 119.6,-492.51 124.37,-487.39"/>
</a>
</g>
<g id="a_edge3&#45;label"><a xlink:href="https://github.com/WardCunningham/search/blob/master/cron.sh#L21" xlink:title="write">
<text text-anchor="middle" x="169.5" y="-504.8" font-family="Times,serif" font-size="14.00">write</text>
</a>
</g>
</g>
<!-- 4 -->
<g id="node5" class="node">
<title>4</title>
<polygon fill="palegreen" stroke="black" points="232,-483 153,-483 153,-445 232,-445 232,-483"/>
<text text-anchor="middle" x="192.5" y="-467.8" font-family="Times,serif" font-size="14.00">Sites</text>
<text text-anchor="middle" x="192.5" y="-452.8" font-family="Times,serif" font-size="14.00">slugs.txt</text>
</g>
<!-- 0&#45;&gt;4 -->
<g id="edge4" class="edge">
<title>0&#45;&gt;4</title>
<g id="a_edge4"><a xlink:href="https://github.com/WardCunningham/search/blob/master/cron.sh#L21" xlink:title="write">
<path fill="none" stroke="black" d="M192.5,-533.97C192.5,-522.19 192.5,-506.56 192.5,-493.16"/>
<polygon fill="black" stroke="black" points="196,-493 192.5,-483 189,-493 196,-493"/>
</a>
</g>
<g id="a_edge4&#45;label"><a xlink:href="https://github.com/WardCunningham/search/blob/master/cron.sh#L21" xlink:title="write">
<text text-anchor="middle" x="211.5" y="-504.8" font-family="Times,serif" font-size="14.00">write</text>
</a>
</g>
</g>
<!-- 5 -->
<g id="node6" class="node">
<title>5</title>
<polygon fill="lightblue" stroke="black" points="380,-483 323,-483 323,-445 380,-445 380,-483"/>
<text text-anchor="middle" x="351.5" y="-467.8" font-family="Times,serif" font-size="14.00">Ruby</text>
<text text-anchor="middle" x="351.5" y="-452.8" font-family="Times,serif" font-size="14.00">found</text>
</g>
<!-- 0&#45;&gt;5 -->
<g id="edge5" class="edge">
<title>0&#45;&gt;5</title>
<g id="a_edge5"><a xlink:href="https://github.com/WardCunningham/search/blob/master/cron.sh#L39" xlink:title="run">
<path fill="none" stroke="black" d="M219.64,-541.46C235.89,-534.81 256.76,-525.68 274.5,-516 289.28,-507.94 304.89,-497.91 318.16,-488.88"/>
<polygon fill="black" stroke="black" points="320.27,-491.69 326.51,-483.13 316.29,-485.92 320.27,-491.69"/>
</a>
</g>
<g id="a_edge5&#45;label"><a xlink:href="https://github.com/WardCunningham/search/blob/master/cron.sh#L39" xlink:title="run">
<text text-anchor="middle" x="311" y="-504.8" font-family="Times,serif" font-size="14.00">run</text>
</a>
</g>
</g>
<!-- 8 -->
<g id="node9" class="node">
<title>8</title>
<polygon fill="palegreen" stroke="black" points="335,-216 250,-216 250,-178 335,-178 335,-216"/>
<text text-anchor="middle" x="292.5" y="-200.8" font-family="Times,serif" font-size="14.00">Pages</text>
<text text-anchor="middle" x="292.5" y="-185.8" font-family="Times,serif" font-size="14.00">words.txt</text>
</g>
<!-- 1&#45;&gt;8 -->
<g id="edge17" class="edge">
<title>1&#45;&gt;8</title>
<g id="a_edge17"><a xlink:href="https://github.com/WardCunningham/search/blob/master/scrape.rb#L43" xlink:title="write">
<path fill="none" stroke="black" d="M292.5,-266.97C292.5,-255.19 292.5,-239.56 292.5,-226.16"/>
<polygon fill="black" stroke="black" points="296,-226 292.5,-216 289,-226 296,-226"/>
</a>
</g>
<g id="a_edge17&#45;label"><a xlink:href="https://github.com/WardCunningham/search/blob/master/scrape.rb#L43" xlink:title="write">
<text text-anchor="middle" x="311.5" y="-237.8" font-family="Times,serif" font-size="14.00">write</text>
</a>
</g>
</g>
<!-- 9 -->
<g id="node10" class="node">
<title>9</title>
<polygon fill="palegreen" stroke="black" points="232,-216 157,-216 157,-178 232,-178 232,-216"/>
<text text-anchor="middle" x="194.5" y="-200.8" font-family="Times,serif" font-size="14.00">Pages</text>
<text text-anchor="middle" x="194.5" y="-185.8" font-family="Times,serif" font-size="14.00">sites.txt</text>
</g>
<!-- 1&#45;&gt;9 -->
<g id="edge18" class="edge">
<title>1&#45;&gt;9</title>
<g id="a_edge18"><a xlink:href="https://github.com/WardCunningham/search/blob/master/scrape.rb#L43" xlink:title="write">
<path fill="none" stroke="black" d="M271.03,-266.81C264.41,-261.15 257.12,-254.85 250.5,-249 240.95,-240.57 230.61,-231.21 221.45,-222.84"/>
<polygon fill="black" stroke="black" points="223.8,-220.25 214.07,-216.08 219.08,-225.42 223.8,-220.25"/>
</a>
</g>
<g id="a_edge18&#45;label"><a xlink:href="https://github.com/WardCunningham/search/blob/master/scrape.rb#L43" xlink:title="write">
<text text-anchor="middle" x="269.5" y="-237.8" font-family="Times,serif" font-size="14.00">write</text>
</a>
</g>
</g>
<!-- 10 -->
<g id="node11" class="node">
<title>10</title>
<polygon fill="palegreen" stroke="black" points="85,-38 0,-38 0,0 85,0 85,-38"/>
<text text-anchor="middle" x="42.5" y="-22.8" font-family="Times,serif" font-size="14.00">Sites</text>
<text text-anchor="middle" x="42.5" y="-7.8" font-family="Times,serif" font-size="14.00">words.txt</text>
</g>
<!-- 2&#45;&gt;10 -->
<g id="edge11" class="edge">
<title>2&#45;&gt;10</title>
<g id="a_edge11"><a xlink:href="https://github.com/WardCunningham/search/blob/master/rollup.rb#L5" xlink:title="write">
<path fill="none" stroke="black" d="M164.93,-92.46C152.34,-86.1 137.58,-78.41 124.5,-71 109.28,-62.37 92.85,-52.31 78.71,-43.41"/>
<polygon fill="black" stroke="black" points="80.56,-40.43 70.24,-38.04 76.82,-46.35 80.56,-40.43"/>
</a>
</g>
<g id="a_edge11&#45;label"><a xlink:href="https://github.com/WardCunningham/search/blob/master/rollup.rb#L5" xlink:title="write">
<text text-anchor="middle" x="143.5" y="-59.8" font-family="Times,serif" font-size="14.00">write</text>
</a>
</g>
</g>
<!-- 11 -->
<g id="node12" class="node">
<title>11</title>
<polygon fill="palegreen" stroke="black" points="188,-38 103,-38 103,0 188,0 188,-38"/>
<text text-anchor="middle" x="145.5" y="-22.8" font-family="Times,serif" font-size="14.00">Search</text>
<text text-anchor="middle" x="145.5" y="-7.8" font-family="Times,serif" font-size="14.00">words.txt</text>
</g>
<!-- 2&#45;&gt;11 -->
<g id="edge12" class="edge">
<title>2&#45;&gt;11</title>
<g id="a_edge12"><a xlink:href="https://github.com/WardCunningham/search/blob/master/rollup.rb#L5" xlink:title="write">
<path fill="none" stroke="black" d="M184.35,-88.97C177.51,-76.84 168.38,-60.63 160.69,-46.97"/>
<polygon fill="black" stroke="black" points="163.6,-45 155.64,-38 157.5,-48.43 163.6,-45"/>
</a>
</g>
<g id="a_edge12&#45;label"><a xlink:href="https://github.com/WardCunningham/search/blob/master/rollup.rb#L5" xlink:title="write">
<text text-anchor="middle" x="191.5" y="-59.8" font-family="Times,serif" font-size="14.00">write</text>
</a>
</g>
</g>
<!-- 12 -->
<g id="node13" class="node">
<title>12</title>
<polygon fill="palegreen" stroke="black" points="281,-38 206,-38 206,0 281,0 281,-38"/>
<text text-anchor="middle" x="243.5" y="-22.8" font-family="Times,serif" font-size="14.00">Sites</text>
<text text-anchor="middle" x="243.5" y="-7.8" font-family="Times,serif" font-size="14.00">sites.txt</text>
</g>
<!-- 2&#45;&gt;12 -->
<g id="edge13" class="edge">
<title>2&#45;&gt;12</title>
<g id="a_edge13"><a xlink:href="https://github.com/WardCunningham/search/blob/master/rollup.rb#L6" xlink:title="write">
<path fill="none" stroke="black" d="M204.65,-88.97C211.49,-76.84 220.62,-60.63 228.31,-46.97"/>
<polygon fill="black" stroke="black" points="231.5,-48.43 233.36,-38 225.4,-45 231.5,-48.43"/>
</a>
</g>
<g id="a_edge13&#45;label"><a xlink:href="https://github.com/WardCunningham/search/blob/master/rollup.rb#L6" xlink:title="write">
<text text-anchor="middle" x="240.5" y="-59.8" font-family="Times,serif" font-size="14.00">write</text>
</a>
</g>
</g>
<!-- 13 -->
<g id="node14" class="node">
<title>13</title>
<polygon fill="palegreen" stroke="black" points="374,-38 299,-38 299,0 374,0 374,-38"/>
<text text-anchor="middle" x="336.5" y="-22.8" font-family="Times,serif" font-size="14.00">Search</text>
<text text-anchor="middle" x="336.5" y="-7.8" font-family="Times,serif" font-size="14.00">sites.txt</text>
</g>
<!-- 2&#45;&gt;13 -->
<g id="edge14" class="edge">
<title>2&#45;&gt;13</title>
<g id="a_edge14"><a xlink:href="https://github.com/WardCunningham/search/blob/master/rollup.rb#L6" xlink:title="write">
<path fill="none" stroke="black" d="M224.17,-92.58C236.53,-86.3 250.91,-78.64 263.5,-71 277.14,-62.72 291.64,-52.83 304.1,-43.98"/>
<polygon fill="black" stroke="black" points="306.28,-46.72 312.36,-38.04 302.2,-41.03 306.28,-46.72"/>
</a>
</g>
<g id="a_edge14&#45;label"><a xlink:href="https://github.com/WardCunningham/search/blob/master/rollup.rb#L6" xlink:title="write">
<text text-anchor="middle" x="304.5" y="-59.8" font-family="Times,serif" font-size="14.00">write</text>
</a>
</g>
</g>
<!-- 6 -->
<g id="node7" class="node">
<title>6</title>
<polygon fill="palegreen" stroke="black" points="434.5,-394 380.5,-394 380.5,-356 434.5,-356 434.5,-394"/>
<text text-anchor="middle" x="407.5" y="-378.8" font-family="Times,serif" font-size="14.00">Sites</text>
<text text-anchor="middle" x="407.5" y="-363.8" font-family="Times,serif" font-size="14.00">dir</text>
</g>
<!-- 5&#45;&gt;6 -->
<g id="edge8" class="edge">
<title>5&#45;&gt;6</title>
<g id="a_edge8"><a xlink:href="https://github.com/WardCunningham/search/blob/master/found.rb#L16" xlink:title="make">
<path fill="none" stroke="black" d="M371.19,-444.63C376.27,-439.27 381.44,-433.18 385.5,-427 390.2,-419.86 394.28,-411.56 397.61,-403.75"/>
<polygon fill="black" stroke="black" points="400.94,-404.83 401.41,-394.25 394.44,-402.23 400.94,-404.83"/>
</a>
</g>
<g id="a_edge8&#45;label"><a xlink:href="https://github.com/WardCunningham/search/blob/master/found.rb#L16" xlink:title="make">
<text text-anchor="middle" x="413" y="-415.8" font-family="Times,serif" font-size="14.00">make</text>
</a>
</g>
</g>
<!-- 6&#45;&gt;1 -->
<g id="edge15" class="edge">
<title>6&#45;&gt;1</title>
<g id="a_edge15"><a xlink:href="https://github.com/WardCunningham/search/blob/master/scrape.rb#L13" xlink:title="read">
<path fill="none" stroke="black" d="M375.67,-349.92C356.88,-335.7 333.48,-318 316.3,-305"/>
<polygon fill="black" stroke="black" points="373.59,-352.73 383.67,-355.97 377.81,-347.15 373.59,-352.73"/>
</a>
</g>
<g id="a_edge15&#45;label"><a xlink:href="https://github.com/WardCunningham/search/blob/master/scrape.rb#L13" xlink:title="read">
<text text-anchor="middle" x="373" y="-326.8" font-family="Times,serif" font-size="14.00">read</text>
</a>
</g>
</g>
<!-- 6&#45;&gt;5 -->
<g id="edge6" class="edge">
<title>6&#45;&gt;5</title>
<g id="a_edge6"><a xlink:href="https://github.com/WardCunningham/search/blob/master/found.rb#L6" xlink:title="read">
<path fill="none" stroke="black" d="M371.52,-395.94C362.68,-401.6 355.01,-407.46 352.5,-412 347.01,-421.92 346.76,-434.67 347.88,-444.94"/>
<polygon fill="black" stroke="black" points="373.53,-398.81 380.23,-390.61 369.87,-392.84 373.53,-398.81"/>
</a>
</g>
<g id="a_edge6&#45;label"><a xlink:href="https://github.com/WardCunningham/search/blob/master/found.rb#L6" xlink:title="read">
<text text-anchor="middle" x="369" y="-415.8" font-family="Times,serif" font-size="14.00">read</text>
</a>
</g>
</g>
<!-- 7 -->
<g id="node8" class="node">
<title>7</title>
<polygon fill="palegreen" stroke="black" points="386.5,-572 316.5,-572 316.5,-534 386.5,-534 386.5,-572"/>
<text text-anchor="middle" x="351.5" y="-556.8" font-family="Times,serif" font-size="14.00">Retired</text>
<text text-anchor="middle" x="351.5" y="-541.8" font-family="Times,serif" font-size="14.00">dir</text>
</g>
<!-- 7&#45;&gt;5 -->
<g id="edge7" class="edge">
<title>7&#45;&gt;5</title>
<g id="a_edge7"><a xlink:href="https://github.com/WardCunningham/search/blob/master/found.rb#L6" xlink:title="read">
<path fill="none" stroke="black" d="M351.5,-523.82C351.5,-510.41 351.5,-494.78 351.5,-483"/>
<polygon fill="black" stroke="black" points="348,-523.97 351.5,-533.97 355,-523.97 348,-523.97"/>
</a>
</g>
<g id="a_edge7&#45;label"><a xlink:href="https://github.com/WardCunningham/search/blob/master/found.rb#L6" xlink:title="read">
<text text-anchor="middle" x="368" y="-504.8" font-family="Times,serif" font-size="14.00">read</text>
</a>
</g>
</g>
<!-- 8&#45;&gt;2 -->
<g id="edge9" class="edge">
<title>8&#45;&gt;2</title>
<g id="a_edge9"><a xlink:href="https://github.com/WardCunningham/search/blob/master/rollup.rb#L3" xlink:title="read">
<path fill="none" stroke="black" d="M264.29,-170.96C248.47,-156.91 229.1,-139.71 214.78,-127"/>
<polygon fill="black" stroke="black" points="262.39,-173.95 272.19,-177.97 267.04,-168.72 262.39,-173.95"/>
</a>
</g>
<g id="a_edge9&#45;label"><a xlink:href="https://github.com/WardCunningham/search/blob/master/rollup.rb#L3" xlink:title="read">
<text text-anchor="middle" x="265" y="-148.8" font-family="Times,serif" font-size="14.00">read</text>
</a>
</g>
</g>
<!-- 9&#45;&gt;2 -->
<g id="edge10" class="edge">
<title>9&#45;&gt;2</title>
<g id="a_edge10"><a xlink:href="https://github.com/WardCunningham/search/blob/master/rollup.rb#L4" xlink:title="read">
<path fill="none" stroke="black" d="M194.5,-167.82C194.5,-154.41 194.5,-138.78 194.5,-127"/>
<polygon fill="black" stroke="black" points="191,-167.97 194.5,-177.97 198,-167.97 191,-167.97"/>
</a>
</g>
<g id="a_edge10&#45;label"><a xlink:href="https://github.com/WardCunningham/search/blob/master/rollup.rb#L4" xlink:title="read">
<text text-anchor="middle" x="211" y="-148.8" font-family="Times,serif" font-size="14.00">read</text>
</a>
</g>
</g>
<!-- 14 -->
<g id="node15" class="node">
<title>14</title>
<polygon fill="palegreen" stroke="black" points="362.5,-394 288.5,-394 288.5,-356 362.5,-356 362.5,-394"/>
<text text-anchor="middle" x="325.5" y="-378.8" font-family="Times,serif" font-size="14.00">Wiki</text>
<text text-anchor="middle" x="325.5" y="-363.8" font-family="Times,serif" font-size="14.00">sitemap</text>
</g>
<!-- 14&#45;&gt;1 -->
<g id="edge16" class="edge">
<title>14&#45;&gt;1</title>
<g id="a_edge16"><a xlink:href="https://github.com/WardCunningham/search/blob/master/scrape.rb#L21" xlink:title="get">
<path fill="none" stroke="black" d="M315.11,-346.61C309.96,-333.03 303.88,-317.01 299.33,-305"/>
<polygon fill="black" stroke="black" points="311.84,-347.86 318.66,-355.97 318.39,-345.38 311.84,-347.86"/>
</a>
</g>
<g id="a_edge16&#45;label"><a xlink:href="https://github.com/WardCunningham/search/blob/master/scrape.rb#L21" xlink:title="get">
<text text-anchor="middle" x="322.5" y="-326.8" font-family="Times,serif" font-size="14.00">get</text>
</a>
</g>
</g>
</g>
</svg>
