<?xml version="1.0" encoding="UTF-8" standalone="no"?>
<!DOCTYPE svg PUBLIC "-//W3C//DTD SVG 1.1//EN"
 "http://www.w3.org/Graphics/SVG/1.1/DTD/svg11.dtd">
<!-- Generated by graphviz version 2.43.0 (0)
 -->
<!-- Title: %3 Pages: 1 -->
<svg width="387pt" height="135pt"
 viewBox="0.00 0.00 387.00 135.00" xmlns="http://www.w3.org/2000/svg" xmlns:xlink="http://www.w3.org/1999/xlink">
<g id="graph0" class="graph" transform="scale(1 1) rotate(0) translate(4 131)">
<title>%3</title>
<polygon fill="white" stroke="transparent" points="-4,4 -4,-131 383,-131 383,4 -4,4"/>
<!-- 0 -->
<g id="node1" class="node">
<title>0</title>
<polygon fill="lightblue" stroke="black" points="138.5,-127 76.5,-127 76.5,-89 138.5,-89 138.5,-127"/>
<text text-anchor="middle" x="107.5" y="-111.8" font-family="Times,serif" font-size="14.00">Ruby</text>
<text text-anchor="middle" x="107.5" y="-96.8" font-family="Times,serif" font-size="14.00">server</text>
</g>
<!-- 1 -->
<g id="node2" class="node">
<title>1</title>
<polygon fill="palegreen" stroke="black" points="61,-38 0,-38 0,0 61,0 61,-38"/>
<text text-anchor="middle" x="30.5" y="-22.8" font-family="Times,serif" font-size="14.00">Public</text>
<text text-anchor="middle" x="30.5" y="-7.8" font-family="Times,serif" font-size="14.00">files</text>
</g>
<!-- 0&#45;&gt;1 -->
<g id="edge1" class="edge">
<title>0&#45;&gt;1</title>
<g id="a_edge1"><a xlink:href="https://github.com/WardCunningham/search/blob/master/server.rb#L5" xlink:title="serve">
<path fill="none" stroke="black" d="M82.55,-88.83C75.98,-83.47 69.16,-77.33 63.5,-71 57.06,-63.8 51.01,-55.23 45.89,-47.19"/>
<polygon fill="black" stroke="black" points="48.74,-45.14 40.53,-38.44 42.77,-48.79 48.74,-45.14"/>
</a>
</g>
<g id="a_edge1&#45;label"><a xlink:href="https://github.com/WardCunningham/search/blob/master/server.rb#L5" xlink:title="serve">
<text text-anchor="middle" x="83.5" y="-59.8" font-family="Times,serif" font-size="14.00">serve</text>
</a>
</g>
</g>
<!-- 2 -->
<g id="node3" class="node">
<title>2</title>
<polygon fill="palegreen" stroke="black" points="266.5,-38 200.5,-38 200.5,0 266.5,0 266.5,-38"/>
<text text-anchor="middle" x="233.5" y="-22.8" font-family="Times,serif" font-size="14.00">API</text>
<text text-anchor="middle" x="233.5" y="-7.8" font-family="Times,serif" font-size="14.00">Search</text>
</g>
<!-- 0&#45;&gt;2 -->
<g id="edge2" class="edge">
<title>0&#45;&gt;2</title>
<g id="a_edge2"><a xlink:href="https://github.com/WardCunningham/search/blob/master/server.rb#L6" xlink:title="serve">
<path fill="none" stroke="black" d="M133.61,-88.97C152.53,-75.91 178.31,-58.11 198.94,-43.87"/>
<polygon fill="black" stroke="black" points="201.19,-46.57 207.43,-38 197.21,-40.81 201.19,-46.57"/>
</a>
</g>
<g id="a_edge2&#45;label"><a xlink:href="https://github.com/WardCunningham/search/blob/master/server.rb#L6" xlink:title="serve">
<text text-anchor="middle" x="198.5" y="-59.8" font-family="Times,serif" font-size="14.00">serve</text>
</a>
</g>
</g>
<!-- 3 -->
<g id="node4" class="node">
<title>3</title>
<polygon fill="palegreen" stroke="black" points="135.5,-38 79.5,-38 79.5,0 135.5,0 135.5,-38"/>
<text text-anchor="middle" x="107.5" y="-22.8" font-family="Times,serif" font-size="14.00">API</text>
<text text-anchor="middle" x="107.5" y="-7.8" font-family="Times,serif" font-size="14.00">Index</text>
</g>
<!-- 0&#45;&gt;3 -->
<g id="edge3" class="edge">
<title>0&#45;&gt;3</title>
<g id="a_edge3"><a xlink:href="https://github.com/WardCunningham/search/blob/master/server.rb#L7" xlink:title="serve">
<path fill="none" stroke="black" d="M107.5,-88.97C107.5,-77.19 107.5,-61.56 107.5,-48.16"/>
<polygon fill="black" stroke="black" points="111,-48 107.5,-38 104,-48 111,-48"/>
</a>
</g>
<g id="a_edge3&#45;label"><a xlink:href="https://github.com/WardCunningham/search/blob/master/server.rb#L7" xlink:title="serve">
<text text-anchor="middle" x="127.5" y="-59.8" font-family="Times,serif" font-size="14.00">serve</text>
</a>
</g>
</g>
<!-- 4 -->
<g id="node5" class="node">
<title>4</title>
<polygon fill="palegreen" stroke="black" points="276,-127 191,-127 191,-89 276,-89 276,-127"/>
<text text-anchor="middle" x="233.5" y="-111.8" font-family="Times,serif" font-size="14.00">Pages</text>
<text text-anchor="middle" x="233.5" y="-96.8" font-family="Times,serif" font-size="14.00">words.txt</text>
</g>
<!-- 4&#45;&gt;2 -->
<g id="edge4" class="edge">
<title>4&#45;&gt;2</title>
<g id="a_edge4"><a xlink:href="https://github.com/WardCunningham/search/blob/master/server.rb#L153" xlink:title="read">
<path fill="none" stroke="black" d="M233.5,-78.82C233.5,-65.41 233.5,-49.78 233.5,-38"/>
<polygon fill="black" stroke="black" points="230,-78.97 233.5,-88.97 237,-78.97 230,-78.97"/>
</a>
</g>
<g id="a_edge4&#45;label"><a xlink:href="https://github.com/WardCunningham/search/blob/master/server.rb#L153" xlink:title="read">
<text text-anchor="middle" x="250" y="-59.8" font-family="Times,serif" font-size="14.00">read</text>
</a>
</g>
</g>
<!-- 5 -->
<g id="node6" class="node">
<title>5</title>
<polygon fill="palegreen" stroke="black" points="379,-127 294,-127 294,-89 379,-89 379,-127"/>
<text text-anchor="middle" x="336.5" y="-111.8" font-family="Times,serif" font-size="14.00">Sites</text>
<text text-anchor="middle" x="336.5" y="-96.8" font-family="Times,serif" font-size="14.00">words.txt</text>
</g>
<!-- 5&#45;&gt;2 -->
<g id="edge5" class="edge">
<title>5&#45;&gt;2</title>
<g id="a_edge5"><a xlink:href="https://github.com/WardCunningham/search/blob/master/server.rb#L153" xlink:title="read">
<path fill="none" stroke="black" d="M307.31,-82.34C290.6,-68.23 270,-50.83 254.81,-38"/>
<polygon fill="black" stroke="black" points="305.26,-85.19 315.16,-88.97 309.78,-79.85 305.26,-85.19"/>
</a>
</g>
<g id="a_edge5&#45;label"><a xlink:href="https://github.com/WardCunningham/search/blob/master/server.rb#L153" xlink:title="read">
<text text-anchor="middle" x="307" y="-59.8" font-family="Times,serif" font-size="14.00">read</text>
</a>
</g>
</g>
</g>
</svg>
