<?xml version="1.0" encoding="UTF-8" standalone="no"?>
<!DOCTYPE svg PUBLIC "-//W3C//DTD SVG 1.1//EN"
 "http://www.w3.org/Graphics/SVG/1.1/DTD/svg11.dtd">
<!-- Generated by graphviz version 2.43.0 (0)
 -->
<!-- Title: %3 Pages: 1 -->
<svg width="303pt" height="271pt"
 viewBox="0.00 0.00 302.73 271.22" xmlns="http://www.w3.org/2000/svg" xmlns:xlink="http://www.w3.org/1999/xlink">
<g id="graph0" class="graph" transform="scale(1 1) rotate(0) translate(4 267.22)">
<title>%3</title>
<polygon fill="white" stroke="transparent" points="-4,4 -4,-267.22 298.73,-267.22 298.73,4 -4,4"/>
<!-- 0 -->
<g id="node1" class="node">
<title>0</title>
<ellipse fill="none" stroke="black" cx="151.13" cy="-236.35" rx="43.68" ry="26.74"/>
<text text-anchor="middle" x="151.13" y="-240.15" font-family="Times,serif" font-size="14.00">Ruby</text>
<text text-anchor="middle" x="151.13" y="-225.15" font-family="Times,serif" font-size="14.00">server</text>
</g>
<!-- 1 -->
<g id="node2" class="node">
<title>1</title>
<ellipse fill="none" stroke="black" cx="43.13" cy="-131.61" rx="43.27" ry="26.74"/>
<text text-anchor="middle" x="43.13" y="-135.41" font-family="Times,serif" font-size="14.00">Public</text>
<text text-anchor="middle" x="43.13" y="-120.41" font-family="Times,serif" font-size="14.00">files</text>
</g>
<!-- 0&#45;&gt;1 -->
<g id="edge1" class="edge">
<title>0&#45;&gt;1</title>
<path fill="none" stroke="black" d="M127.96,-213.31C112.16,-198.28 91.06,-178.21 73.86,-161.84"/>
<polygon fill="black" stroke="black" points="75.92,-158.97 66.26,-154.61 71.1,-164.04 75.92,-158.97"/>
<text text-anchor="middle" x="124.13" y="-180.28" font-family="Times,serif" font-size="14.00">serve</text>
</g>
<!-- 2 -->
<g id="node3" class="node">
<title>2</title>
<ellipse fill="none" stroke="black" cx="151.13" cy="-131.61" rx="46.84" ry="26.74"/>
<text text-anchor="middle" x="151.13" y="-135.41" font-family="Times,serif" font-size="14.00">API</text>
<text text-anchor="middle" x="151.13" y="-120.41" font-family="Times,serif" font-size="14.00">Search</text>
</g>
<!-- 0&#45;&gt;2 -->
<g id="edge2" class="edge">
<title>0&#45;&gt;2</title>
<path fill="none" stroke="black" d="M151.13,-209.42C151.13,-197.14 151.13,-182.25 151.13,-168.86"/>
<polygon fill="black" stroke="black" points="154.63,-168.53 151.13,-158.53 147.63,-168.53 154.63,-168.53"/>
<text text-anchor="middle" x="171.13" y="-180.28" font-family="Times,serif" font-size="14.00">serve</text>
</g>
<!-- 3 -->
<g id="node4" class="node">
<title>3</title>
<ellipse fill="none" stroke="black" cx="255.13" cy="-131.61" rx="39.7" ry="26.74"/>
<text text-anchor="middle" x="255.13" y="-135.41" font-family="Times,serif" font-size="14.00">API</text>
<text text-anchor="middle" x="255.13" y="-120.41" font-family="Times,serif" font-size="14.00">Index</text>
</g>
<!-- 0&#45;&gt;3 -->
<g id="edge3" class="edge">
<title>0&#45;&gt;3</title>
<path fill="none" stroke="black" d="M173.7,-213.06C189.03,-197.91 209.46,-177.73 226.02,-161.37"/>
<polygon fill="black" stroke="black" points="228.67,-163.67 233.32,-154.16 223.75,-158.69 228.67,-163.67"/>
<text text-anchor="middle" x="231.13" y="-180.28" font-family="Times,serif" font-size="14.00">Serve</text>
</g>
<!-- 4 -->
<g id="node5" class="node">
<title>4</title>
<ellipse fill="none" stroke="black" cx="82.13" cy="-26.87" rx="60.21" ry="26.74"/>
<text text-anchor="middle" x="82.13" y="-30.67" font-family="Times,serif" font-size="14.00">Pages</text>
<text text-anchor="middle" x="82.13" y="-15.67" font-family="Times,serif" font-size="14.00">words.txt</text>
</g>
<!-- 2&#45;&gt;4 -->
<g id="edge4" class="edge">
<title>2&#45;&gt;4</title>
<path fill="none" stroke="black" d="M134.78,-106.26C125.72,-92.77 114.32,-75.8 104.45,-61.1"/>
<polygon fill="black" stroke="black" points="107.33,-59.11 98.85,-52.76 101.52,-63.01 107.33,-59.11"/>
<text text-anchor="middle" x="137.63" y="-75.54" font-family="Times,serif" font-size="14.00">read</text>
</g>
<!-- 5 -->
<g id="node6" class="node">
<title>5</title>
<ellipse fill="none" stroke="black" cx="220.13" cy="-26.87" rx="60.21" ry="26.74"/>
<text text-anchor="middle" x="220.13" y="-30.67" font-family="Times,serif" font-size="14.00">Sites</text>
<text text-anchor="middle" x="220.13" y="-15.67" font-family="Times,serif" font-size="14.00">words.txt</text>
</g>
<!-- 2&#45;&gt;5 -->
<g id="edge5" class="edge">
<title>2&#45;&gt;5</title>
<path fill="none" stroke="black" d="M167.49,-106.26C176.55,-92.77 187.94,-75.8 197.81,-61.1"/>
<polygon fill="black" stroke="black" points="200.75,-63.01 203.42,-52.76 194.94,-59.11 200.75,-63.01"/>
<text text-anchor="middle" x="206.63" y="-75.54" font-family="Times,serif" font-size="14.00">read</text>
</g>
</g>
</svg>
