<?xml version="1.0" encoding="UTF-8" standalone="no"?>
<!DOCTYPE svg PUBLIC "-//W3C//DTD SVG 1.1//EN"
 "http://www.w3.org/Graphics/SVG/1.1/DTD/svg11.dtd">
<!-- Generated by graphviz version 6.0.2 (20221011.1828)
 -->
<!-- Pages: 1 -->
<svg width="258pt" height="271pt"
 viewBox="0.00 0.00 258.30 271.22" xmlns="http://www.w3.org/2000/svg" xmlns:xlink="http://www.w3.org/1999/xlink">
<g id="graph0" class="graph" transform="scale(1 1) rotate(0) translate(4 267.22)">
<polygon fill="white" stroke="none" points="-4,4 -4,-267.22 254.3,-267.22 254.3,4 -4,4"/>
<!-- 0 -->
<g id="node1" class="node">
<title>0</title>
<ellipse fill="none" stroke="black" cx="128.06" cy="-236.35" rx="35.21" ry="26.74"/>
<text text-anchor="middle" x="128.06" y="-240.15" font-family="Times,serif" font-size="14.00">Ruby</text>
<text text-anchor="middle" x="128.06" y="-225.15" font-family="Times,serif" font-size="14.00">server</text>
</g>
<!-- 1 -->
<g id="node2" class="node">
<title>1</title>
<ellipse fill="none" stroke="black" cx="36.06" cy="-131.61" rx="36.12" ry="26.74"/>
<text text-anchor="middle" x="36.06" y="-135.41" font-family="Times,serif" font-size="14.00">Public</text>
<text text-anchor="middle" x="36.06" y="-120.41" font-family="Times,serif" font-size="14.00">files</text>
</g>
<!-- 0&#45;&gt;1 -->
<g id="edge1" class="edge">
<title>0&#45;&gt;1</title>
<path fill="none" stroke="black" d="M108.55,-213.56C95.13,-198.58 77.16,-178.5 62.46,-162.09"/>
<polygon fill="black" stroke="black" points="64.82,-159.48 55.55,-154.37 59.61,-164.15 64.82,-159.48"/>
<text text-anchor="middle" x="102.56" y="-180.28" font-family="Times,serif" font-size="14.00">serve</text>
</g>
<!-- 2 -->
<g id="node3" class="node">
<title>2</title>
<ellipse fill="none" stroke="black" cx="128.06" cy="-131.61" rx="37.45" ry="26.74"/>
<text text-anchor="middle" x="128.06" y="-135.41" font-family="Times,serif" font-size="14.00">API</text>
<text text-anchor="middle" x="128.06" y="-120.41" font-family="Times,serif" font-size="14.00">Search</text>
</g>
<!-- 0&#45;&gt;2 -->
<g id="edge2" class="edge">
<title>0&#45;&gt;2</title>
<path fill="none" stroke="black" d="M128.06,-209.42C128.06,-197.14 128.06,-182.25 128.06,-168.86"/>
<polygon fill="black" stroke="black" points="131.56,-168.53 128.06,-158.53 124.56,-168.53 131.56,-168.53"/>
<text text-anchor="middle" x="142.56" y="-180.28" font-family="Times,serif" font-size="14.00">serve</text>
</g>
<!-- 3 -->
<g id="node4" class="node">
<title>3</title>
<ellipse fill="none" stroke="black" cx="217.06" cy="-131.61" rx="33.47" ry="26.74"/>
<text text-anchor="middle" x="217.06" y="-135.41" font-family="Times,serif" font-size="14.00">API</text>
<text text-anchor="middle" x="217.06" y="-120.41" font-family="Times,serif" font-size="14.00">Index</text>
</g>
<!-- 0&#45;&gt;3 -->
<g id="edge3" class="edge">
<title>0&#45;&gt;3</title>
<path fill="none" stroke="black" d="M146.94,-213.56C160,-198.48 177.54,-178.23 191.81,-161.76"/>
<polygon fill="black" stroke="black" points="194.62,-163.87 198.52,-154.02 189.33,-159.28 194.62,-163.87"/>
<text text-anchor="middle" x="193.56" y="-180.28" font-family="Times,serif" font-size="14.00">Serve</text>
</g>
<!-- 4 -->
<g id="node5" class="node">
<title>4</title>
<ellipse fill="none" stroke="black" cx="71.06" cy="-26.87" rx="48.17" ry="26.74"/>
<text text-anchor="middle" x="71.06" y="-30.67" font-family="Times,serif" font-size="14.00">Pages</text>
<text text-anchor="middle" x="71.06" y="-15.67" font-family="Times,serif" font-size="14.00">words.txt</text>
</g>
<!-- 2&#45;&gt;4 -->
<g id="edge4" class="edge">
<title>2&#45;&gt;4</title>
<path fill="none" stroke="black" d="M114.55,-106.26C107.14,-92.9 97.83,-76.12 89.73,-61.52"/>
<polygon fill="black" stroke="black" points="92.78,-59.8 84.87,-52.76 86.66,-63.2 92.78,-59.8"/>
<text text-anchor="middle" x="115.06" y="-75.54" font-family="Times,serif" font-size="14.00">read</text>
</g>
<!-- 5 -->
<g id="node6" class="node">
<title>5</title>
<ellipse fill="none" stroke="black" cx="185.06" cy="-26.87" rx="48.17" ry="26.74"/>
<text text-anchor="middle" x="185.06" y="-30.67" font-family="Times,serif" font-size="14.00">Sites</text>
<text text-anchor="middle" x="185.06" y="-15.67" font-family="Times,serif" font-size="14.00">words.txt</text>
</g>
<!-- 2&#45;&gt;5 -->
<g id="edge5" class="edge">
<title>2&#45;&gt;5</title>
<path fill="none" stroke="black" d="M141.57,-106.26C148.99,-92.9 158.29,-76.12 166.4,-61.52"/>
<polygon fill="black" stroke="black" points="169.46,-63.2 171.26,-52.76 163.34,-59.8 169.46,-63.2"/>
<text text-anchor="middle" x="172.06" y="-75.54" font-family="Times,serif" font-size="14.00">read</text>
</g>
</g>
</svg>
