<?xml version="1.0" encoding="UTF-8" standalone="no"?>
<!DOCTYPE svg PUBLIC "-//W3C//DTD SVG 1.1//EN"
 "http://www.w3.org/Graphics/SVG/1.1/DTD/svg11.dtd">
<!-- Generated by graphviz version 2.43.0 (0)
 -->
<!-- Title: %3 Pages: 1 -->
<svg width="228pt" height="224pt"
 viewBox="0.00 0.00 227.50 224.00" xmlns="http://www.w3.org/2000/svg" xmlns:xlink="http://www.w3.org/1999/xlink">
<g id="graph0" class="graph" transform="scale(1 1) rotate(0) translate(4 220)">
<title>%3</title>
<polygon fill="white" stroke="transparent" points="-4,4 -4,-220 223.5,-220 223.5,4 -4,4"/>
<!-- 0 -->
<g id="node1" class="node">
<title>0</title>
<polygon fill="palegreen" stroke="black" points="143.5,-216 81.5,-216 81.5,-178 143.5,-178 143.5,-216"/>
<text text-anchor="middle" x="112.5" y="-200.8" font-family="Times,serif" font-size="14.00">Ruby</text>
<text text-anchor="middle" x="112.5" y="-185.8" font-family="Times,serif" font-size="14.00">server</text>
</g>
<!-- 1 -->
<g id="node2" class="node">
<title>1</title>
<polygon fill="palegreen" stroke="black" points="61,-127 0,-127 0,-89 61,-89 61,-127"/>
<text text-anchor="middle" x="30.5" y="-111.8" font-family="Times,serif" font-size="14.00">Public</text>
<text text-anchor="middle" x="30.5" y="-96.8" font-family="Times,serif" font-size="14.00">files</text>
</g>
<!-- 0&#45;&gt;1 -->
<g id="edge1" class="edge">
<title>0&#45;&gt;1</title>
<path fill="none" stroke="black" d="M88.28,-177.95C81.58,-172.5 74.5,-166.28 68.5,-160 61.37,-152.53 54.37,-143.72 48.37,-135.53"/>
<polygon fill="black" stroke="black" points="51.17,-133.42 42.51,-127.32 45.47,-137.49 51.17,-133.42"/>
<text text-anchor="middle" x="88.5" y="-148.8" font-family="Times,serif" font-size="14.00">serve</text>
</g>
<!-- 2 -->
<g id="node3" class="node">
<title>2</title>
<polygon fill="palegreen" stroke="black" points="145.5,-127 79.5,-127 79.5,-89 145.5,-89 145.5,-127"/>
<text text-anchor="middle" x="112.5" y="-111.8" font-family="Times,serif" font-size="14.00">API</text>
<text text-anchor="middle" x="112.5" y="-96.8" font-family="Times,serif" font-size="14.00">Search</text>
</g>
<!-- 0&#45;&gt;2 -->
<g id="edge2" class="edge">
<title>0&#45;&gt;2</title>
<path fill="none" stroke="black" d="M112.5,-177.97C112.5,-166.19 112.5,-150.56 112.5,-137.16"/>
<polygon fill="black" stroke="black" points="116,-137 112.5,-127 109,-137 116,-137"/>
<text text-anchor="middle" x="132.5" y="-148.8" font-family="Times,serif" font-size="14.00">serve</text>
</g>
<!-- 3 -->
<g id="node4" class="node">
<title>3</title>
<polygon fill="palegreen" stroke="black" points="219.5,-127 163.5,-127 163.5,-89 219.5,-89 219.5,-127"/>
<text text-anchor="middle" x="191.5" y="-111.8" font-family="Times,serif" font-size="14.00">API</text>
<text text-anchor="middle" x="191.5" y="-96.8" font-family="Times,serif" font-size="14.00">Index</text>
</g>
<!-- 0&#45;&gt;3 -->
<g id="edge3" class="edge">
<title>0&#45;&gt;3</title>
<path fill="none" stroke="black" d="M137.34,-177.73C143.91,-172.36 150.76,-166.25 156.5,-160 163.22,-152.68 169.66,-143.99 175.14,-135.88"/>
<polygon fill="black" stroke="black" points="178.14,-137.68 180.67,-127.39 172.28,-133.85 178.14,-137.68"/>
<text text-anchor="middle" x="188.5" y="-148.8" font-family="Times,serif" font-size="14.00">serve</text>
</g>
<!-- 4 -->
<g id="node5" class="node">
<title>4</title>
<polygon fill="palegreen" stroke="black" points="104,-38 19,-38 19,0 104,0 104,-38"/>
<text text-anchor="middle" x="61.5" y="-22.8" font-family="Times,serif" font-size="14.00">Pages</text>
<text text-anchor="middle" x="61.5" y="-7.8" font-family="Times,serif" font-size="14.00">words.txt</text>
</g>
<!-- 2&#45;&gt;4 -->
<g id="edge4" class="edge">
<title>2&#45;&gt;4</title>
<path fill="none" stroke="black" d="M101.93,-88.97C94.82,-76.84 85.32,-60.63 77.31,-46.97"/>
<polygon fill="black" stroke="black" points="80.13,-44.86 72.05,-38 74.09,-48.4 80.13,-44.86"/>
<text text-anchor="middle" x="107" y="-59.8" font-family="Times,serif" font-size="14.00">read</text>
</g>
<!-- 5 -->
<g id="node6" class="node">
<title>5</title>
<polygon fill="palegreen" stroke="black" points="207,-38 122,-38 122,0 207,0 207,-38"/>
<text text-anchor="middle" x="164.5" y="-22.8" font-family="Times,serif" font-size="14.00">Sites</text>
<text text-anchor="middle" x="164.5" y="-7.8" font-family="Times,serif" font-size="14.00">words.txt</text>
</g>
<!-- 2&#45;&gt;5 -->
<g id="edge5" class="edge">
<title>2&#45;&gt;5</title>
<path fill="none" stroke="black" d="M123.27,-88.97C130.53,-76.84 140.22,-60.63 148.38,-46.97"/>
<polygon fill="black" stroke="black" points="151.61,-48.38 153.74,-38 145.6,-44.79 151.61,-48.38"/>
<text text-anchor="middle" x="159" y="-59.8" font-family="Times,serif" font-size="14.00">read</text>
</g>
</g>
</svg>
