<?xml version="1.0" encoding="UTF-8" standalone="no"?>
<!DOCTYPE svg PUBLIC "-//W3C//DTD SVG 1.1//EN"
 "http://www.w3.org/Graphics/SVG/1.1/DTD/svg11.dtd">
<!-- Generated by graphviz version 2.43.0 (0)
 -->
<!-- Title: %3 Pages: 1 -->
<svg width="172pt" height="135pt"
 viewBox="0.00 0.00 172.00 135.00" xmlns="http://www.w3.org/2000/svg" xmlns:xlink="http://www.w3.org/1999/xlink">
<g id="graph0" class="graph" transform="scale(1 1) rotate(0) translate(4 131)">
<title>%3</title>
<polygon fill="white" stroke="transparent" points="-4,4 -4,-131 168,-131 168,4 -4,4"/>
<!-- 0 -->
<g id="node1" class="node">
<title>0</title>
<polygon fill="palegreen" stroke="black" points="61,-127 5,-127 5,-89 61,-89 61,-127"/>
<text text-anchor="middle" x="33" y="-111.8" font-family="Times,serif" font-size="14.00">View</text>
<text text-anchor="middle" x="33" y="-96.8" font-family="Times,serif" font-size="14.00">beam</text>
</g>
<!-- 0&#45;&gt;0 -->
<g id="edge2" class="edge">
<title>0&#45;&gt;0</title>
<g id="a_edge2"><a xlink:href="https://github.com/WardCunningham/search/blob/master/README.html#L102" xlink:title="recommend">
<path fill="none" stroke="black" d="M61.3,-116.25C71.09,-116.34 79,-113.59 79,-108 79,-104.6 76.06,-102.25 71.55,-100.95"/>
<polygon fill="black" stroke="black" points="71.64,-97.43 61.3,-99.75 70.83,-104.39 71.64,-97.43"/>
</a>
</g>
<g id="a_edge2&#45;label"><a xlink:href="https://github.com/WardCunningham/search/blob/master/README.html#L102" xlink:title="recommend">
<text text-anchor="middle" x="121.5" y="-104.3" font-family="Times,serif" font-size="14.00">recommend</text>
</a>
</g>
</g>
<!-- 1 -->
<g id="node2" class="node">
<title>1</title>
<polygon fill="palegreen" stroke="black" points="66,-38 0,-38 0,0 66,0 66,-38"/>
<text text-anchor="middle" x="33" y="-22.8" font-family="Times,serif" font-size="14.00">Beam</text>
<text text-anchor="middle" x="33" y="-7.8" font-family="Times,serif" font-size="14.00">chosen</text>
</g>
<!-- 0&#45;&gt;1 -->
<g id="edge1" class="edge">
<title>0&#45;&gt;1</title>
<g id="a_edge1"><a xlink:href="https://github.com/WardCunningham/search/blob/master/README.html#L101" xlink:title="add">
<path fill="none" stroke="black" d="M33,-88.97C33,-77.19 33,-61.56 33,-48.16"/>
<polygon fill="black" stroke="black" points="36.5,-48 33,-38 29.5,-48 36.5,-48"/>
</a>
</g>
<g id="a_edge1&#45;label"><a xlink:href="https://github.com/WardCunningham/search/blob/master/README.html#L101" xlink:title="add">
<text text-anchor="middle" x="46.5" y="-59.8" font-family="Times,serif" font-size="14.00">add</text>
</a>
</g>
</g>
</g>
</svg>
