<?xml version="1.0" encoding="UTF-8" standalone="no"?>
<!DOCTYPE svg PUBLIC "-//W3C//DTD SVG 1.1//EN"
 "http://www.w3.org/Graphics/SVG/1.1/DTD/svg11.dtd">
<!-- Generated by graphviz version 6.0.2 (20221011.1828)
 -->
<!-- Pages: 1 -->
<svg width="524pt" height="166pt"
 viewBox="0.00 0.00 523.63 166.48" xmlns="http://www.w3.org/2000/svg" xmlns:xlink="http://www.w3.org/1999/xlink">
<g id="graph0" class="graph" transform="scale(1 1) rotate(0) translate(4 162.48)">
<polygon fill="white" stroke="none" points="-4,4 -4,-162.48 519.63,-162.48 519.63,4 -4,4"/>
<!-- 0 -->
<g id="node1" class="node">
<title>0</title>
<ellipse fill="none" stroke="black" cx="288.33" cy="-131.61" rx="31.23" ry="26.74"/>
<text text-anchor="middle" x="288.33" y="-135.41" font-family="Times,serif" font-size="14.00">Shell</text>
<text text-anchor="middle" x="288.33" y="-120.41" font-family="Times,serif" font-size="14.00">cron</text>
</g>
<!-- 1 -->
<g id="node2" class="node">
<title>1</title>
<ellipse fill="none" stroke="black" cx="52.33" cy="-26.87" rx="52.15" ry="26.74"/>
<text text-anchor="middle" x="52.33" y="-30.67" font-family="Times,serif" font-size="14.00">Logs</text>
<text text-anchor="middle" x="52.33" y="-15.67" font-family="Times,serif" font-size="14.00">Now&#45;0000</text>
</g>
<!-- 0&#45;&gt;1 -->
<g id="edge1" class="edge">
<title>0&#45;&gt;1</title>
<path fill="none" stroke="black" d="M260.89,-118.7C240.57,-109.89 212.22,-97.57 187.33,-86.74 158.51,-74.2 126.25,-60.13 100.49,-48.89"/>
<polygon fill="black" stroke="black" points="101.88,-45.68 91.31,-44.89 99.08,-52.09 101.88,-45.68"/>
<text text-anchor="middle" x="204.33" y="-75.54" font-family="Times,serif" font-size="14.00">writes</text>
</g>
<!-- 2 -->
<g id="node3" class="node">
<title>2</title>
<ellipse fill="none" stroke="black" cx="175.33" cy="-26.87" rx="52.15" ry="26.74"/>
<text text-anchor="middle" x="175.33" y="-30.67" font-family="Times,serif" font-size="14.00">Activity</text>
<text text-anchor="middle" x="175.33" y="-15.67" font-family="Times,serif" font-size="14.00">Now&#45;0000</text>
</g>
<!-- 0&#45;&gt;2 -->
<g id="edge2" class="edge">
<title>0&#45;&gt;2</title>
<path fill="none" stroke="black" d="M267.34,-111.53C250.73,-96.43 227.25,-75.08 208.16,-57.72"/>
<polygon fill="black" stroke="black" points="210.3,-54.94 200.55,-50.8 205.59,-60.12 210.3,-54.94"/>
<text text-anchor="middle" x="256.33" y="-75.54" font-family="Times,serif" font-size="14.00">writes</text>
</g>
<!-- 3 -->
<g id="node4" class="node">
<title>3</title>
<ellipse fill="none" stroke="black" cx="288.33" cy="-26.87" rx="43.27" ry="26.74"/>
<text text-anchor="middle" x="288.33" y="-30.67" font-family="Times,serif" font-size="14.00">Public</text>
<text text-anchor="middle" x="288.33" y="-15.67" font-family="Times,serif" font-size="14.00">sites.tgz</text>
</g>
<!-- 0&#45;&gt;3 -->
<g id="edge3" class="edge">
<title>0&#45;&gt;3</title>
<path fill="none" stroke="black" d="M288.33,-104.68C288.33,-92.4 288.33,-77.51 288.33,-64.12"/>
<polygon fill="black" stroke="black" points="291.83,-63.79 288.33,-53.79 284.83,-63.79 291.83,-63.79"/>
<text text-anchor="middle" x="305.33" y="-75.54" font-family="Times,serif" font-size="14.00">writes</text>
</g>
<!-- 4 -->
<g id="node5" class="node">
<title>4</title>
<ellipse fill="none" stroke="black" cx="383.33" cy="-26.87" rx="33.88" ry="26.74"/>
<text text-anchor="middle" x="383.33" y="-30.67" font-family="Times,serif" font-size="14.00">Ruby</text>
<text text-anchor="middle" x="383.33" y="-15.67" font-family="Times,serif" font-size="14.00">found</text>
</g>
<!-- 0&#45;&gt;4 -->
<g id="edge4" class="edge">
<title>0&#45;&gt;4</title>
<path fill="none" stroke="black" d="M307.55,-109.82C321.75,-94.46 341.25,-73.38 356.91,-56.44"/>
<polygon fill="black" stroke="black" points="359.58,-58.7 363.8,-48.98 354.44,-53.95 359.58,-58.7"/>
<text text-anchor="middle" x="354.33" y="-75.54" font-family="Times,serif" font-size="14.00">runs</text>
</g>
<!-- 5 -->
<g id="node6" class="node">
<title>5</title>
<ellipse fill="none" stroke="black" cx="475.33" cy="-26.87" rx="40.11" ry="26.74"/>
<text text-anchor="middle" x="475.33" y="-30.67" font-family="Times,serif" font-size="14.00">Ruby</text>
<text text-anchor="middle" x="475.33" y="-15.67" font-family="Times,serif" font-size="14.00">activity</text>
</g>
<!-- 0&#45;&gt;5 -->
<g id="edge5" class="edge">
<title>0&#45;&gt;5</title>
<path fill="none" stroke="black" d="M314.62,-116.71C330.74,-108.15 351.78,-96.9 370.33,-86.74 392.26,-74.72 416.63,-61.08 436.37,-49.95"/>
<polygon fill="black" stroke="black" points="438.1,-52.99 445.09,-45.03 434.66,-46.9 438.1,-52.99"/>
<text text-anchor="middle" x="409.33" y="-75.54" font-family="Times,serif" font-size="14.00">runs</text>
</g>
</g>
</svg>
