<?xml version="1.0" encoding="UTF-8" standalone="no"?>
<!DOCTYPE svg PUBLIC "-//W3C//DTD SVG 1.1//EN"
 "http://www.w3.org/Graphics/SVG/1.1/DTD/svg11.dtd">
<!-- Generated by graphviz version 2.43.0 (0)
 -->
<!-- Title: %3 Pages: 1 -->
<svg width="744pt" height="166pt"
 viewBox="0.00 0.00 743.54 166.48" xmlns="http://www.w3.org/2000/svg" xmlns:xlink="http://www.w3.org/1999/xlink">
<g id="graph0" class="graph" transform="scale(1 1) rotate(0) translate(4 162.48)">
<title>%3</title>
<polygon fill="white" stroke="transparent" points="-4,4 -4,-162.48 739.54,-162.48 739.54,4 -4,4"/>
<!-- 0 -->
<g id="node1" class="node">
<title>0</title>
<ellipse fill="none" stroke="black" cx="347.93" cy="-131.61" rx="37.45" ry="26.74"/>
<text text-anchor="middle" x="347.93" y="-135.41" font-family="Times,serif" font-size="14.00">Shell</text>
<text text-anchor="middle" x="347.93" y="-120.41" font-family="Times,serif" font-size="14.00">cron</text>
</g>
<!-- 1 -->
<g id="node2" class="node">
<title>1</title>
<ellipse fill="none" stroke="black" cx="62.93" cy="-26.87" rx="62.87" ry="26.74"/>
<text text-anchor="middle" x="62.93" y="-30.67" font-family="Times,serif" font-size="14.00">Activity</text>
<text text-anchor="middle" x="62.93" y="-15.67" font-family="Times,serif" font-size="14.00">Now&#45;0000</text>
</g>
<!-- 0&#45;&gt;1 -->
<g id="edge1" class="edge">
<title>0&#45;&gt;1</title>
<path fill="none" stroke="black" d="M313.88,-119.9C286.91,-111.3 248.35,-98.71 214.93,-86.74 182.26,-75.03 146.01,-61.03 117.11,-49.62"/>
<polygon fill="black" stroke="black" points="118.19,-46.29 107.6,-45.86 115.61,-52.8 118.19,-46.29"/>
<text text-anchor="middle" x="237.93" y="-75.54" font-family="Times,serif" font-size="14.00">writes</text>
</g>
<!-- 2 -->
<g id="node3" class="node">
<title>2</title>
<ellipse fill="none" stroke="black" cx="197.93" cy="-26.87" rx="54.39" ry="26.74"/>
<text text-anchor="middle" x="197.93" y="-30.67" font-family="Times,serif" font-size="14.00">Ruby</text>
<text text-anchor="middle" x="197.93" y="-15.67" font-family="Times,serif" font-size="14.00">site&#45;web</text>
</g>
<!-- 0&#45;&gt;2 -->
<g id="edge2" class="edge">
<title>0&#45;&gt;2</title>
<path fill="none" stroke="black" d="M321.46,-112.48C298.09,-96.47 263.69,-72.91 237.13,-54.71"/>
<polygon fill="black" stroke="black" points="239.03,-51.78 228.8,-49.01 235.07,-57.55 239.03,-51.78"/>
<text text-anchor="middle" x="294.43" y="-75.54" font-family="Times,serif" font-size="14.00">run</text>
</g>
<!-- 3 -->
<g id="node4" class="node">
<title>3</title>
<ellipse fill="none" stroke="black" cx="347.93" cy="-26.87" rx="77.56" ry="26.74"/>
<text text-anchor="middle" x="347.93" y="-30.67" font-family="Times,serif" font-size="14.00">Public</text>
<text text-anchor="middle" x="347.93" y="-15.67" font-family="Times,serif" font-size="14.00">site&#45;web.json</text>
</g>
<!-- 0&#45;&gt;3 -->
<g id="edge3" class="edge">
<title>0&#45;&gt;3</title>
<path fill="none" stroke="black" d="M347.93,-104.68C347.93,-92.4 347.93,-77.51 347.93,-64.12"/>
<polygon fill="black" stroke="black" points="351.43,-63.79 347.93,-53.79 344.43,-63.79 351.43,-63.79"/>
<text text-anchor="middle" x="366.93" y="-75.54" font-family="Times,serif" font-size="14.00">write</text>
</g>
<!-- 4 -->
<g id="node5" class="node">
<title>4</title>
<ellipse fill="none" stroke="black" cx="499.93" cy="-26.87" rx="56.64" ry="26.74"/>
<text text-anchor="middle" x="499.93" y="-30.67" font-family="Times,serif" font-size="14.00">Ruby</text>
<text text-anchor="middle" x="499.93" y="-15.67" font-family="Times,serif" font-size="14.00">slug&#45;web</text>
</g>
<!-- 0&#45;&gt;4 -->
<g id="edge4" class="edge">
<title>0&#45;&gt;4</title>
<path fill="none" stroke="black" d="M374.76,-112.48C398.37,-96.52 433.07,-73.06 459.95,-54.89"/>
<polygon fill="black" stroke="black" points="462.06,-57.69 468.38,-49.19 458.14,-51.89 462.06,-57.69"/>
<text text-anchor="middle" x="445.43" y="-75.54" font-family="Times,serif" font-size="14.00">run</text>
</g>
<!-- 5 -->
<g id="node6" class="node">
<title>5</title>
<ellipse fill="none" stroke="black" cx="654.93" cy="-26.87" rx="80.72" ry="26.74"/>
<text text-anchor="middle" x="654.93" y="-30.67" font-family="Times,serif" font-size="14.00">Public</text>
<text text-anchor="middle" x="654.93" y="-15.67" font-family="Times,serif" font-size="14.00">slug&#45;web.json</text>
</g>
<!-- 0&#45;&gt;5 -->
<g id="edge5" class="edge">
<title>0&#45;&gt;5</title>
<path fill="none" stroke="black" d="M381.37,-119.42C431.26,-102.72 526.13,-70.97 589.97,-49.61"/>
<polygon fill="black" stroke="black" points="591.17,-52.9 599.54,-46.41 588.95,-46.26 591.17,-52.9"/>
<text text-anchor="middle" x="537.93" y="-75.54" font-family="Times,serif" font-size="14.00">write</text>
</g>
</g>
</svg>
