<?xml version="1.0" encoding="UTF-8" standalone="no"?>
<!DOCTYPE svg PUBLIC "-//W3C//DTD SVG 1.1//EN"
 "http://www.w3.org/Graphics/SVG/1.1/DTD/svg11.dtd">
<!-- Generated by graphviz version 2.43.0 (0)
 -->
<!-- Title: %3 Pages: 1 -->
<svg width="620pt" height="166pt"
 viewBox="0.00 0.00 620.43 166.48" xmlns="http://www.w3.org/2000/svg" xmlns:xlink="http://www.w3.org/1999/xlink">
<g id="graph0" class="graph" transform="scale(1 1) rotate(0) translate(4 162.48)">
<title>%3</title>
<polygon fill="white" stroke="transparent" points="-4,4 -4,-162.48 616.43,-162.48 616.43,4 -4,4"/>
<!-- 0 -->
<g id="node1" class="node">
<title>0</title>
<ellipse fill="none" stroke="black" cx="341.93" cy="-131.61" rx="37.45" ry="26.74"/>
<text text-anchor="middle" x="341.93" y="-135.41" font-family="Times,serif" font-size="14.00">Shell</text>
<text text-anchor="middle" x="341.93" y="-120.41" font-family="Times,serif" font-size="14.00">cron</text>
</g>
<!-- 1 -->
<g id="node2" class="node">
<title>1</title>
<ellipse fill="none" stroke="black" cx="62.93" cy="-26.87" rx="62.87" ry="26.74"/>
<text text-anchor="middle" x="62.93" y="-30.67" font-family="Times,serif" font-size="14.00">Logs</text>
<text text-anchor="middle" x="62.93" y="-15.67" font-family="Times,serif" font-size="14.00">Now&#45;0000</text>
</g>
<!-- 0&#45;&gt;1 -->
<g id="edge1" class="edge">
<title>0&#45;&gt;1</title>
<path fill="none" stroke="black" d="M308.42,-119.13C283.2,-110.42 247.81,-98.06 216.93,-86.74 183.97,-74.66 147.25,-60.64 117.94,-49.32"/>
<polygon fill="black" stroke="black" points="118.88,-45.93 108.29,-45.59 116.36,-52.46 118.88,-45.93"/>
<text text-anchor="middle" x="239.93" y="-75.54" font-family="Times,serif" font-size="14.00">writes</text>
</g>
<!-- 2 -->
<g id="node3" class="node">
<title>2</title>
<ellipse fill="none" stroke="black" cx="206.93" cy="-26.87" rx="62.87" ry="26.74"/>
<text text-anchor="middle" x="206.93" y="-30.67" font-family="Times,serif" font-size="14.00">Activity</text>
<text text-anchor="middle" x="206.93" y="-15.67" font-family="Times,serif" font-size="14.00">Now&#45;0000</text>
</g>
<!-- 0&#45;&gt;2 -->
<g id="edge2" class="edge">
<title>0&#45;&gt;2</title>
<path fill="none" stroke="black" d="M316.86,-111.53C296.75,-96.23 268.21,-74.51 245.25,-57.03"/>
<polygon fill="black" stroke="black" points="247.14,-54.07 237.07,-50.8 242.9,-59.64 247.14,-54.07"/>
<text text-anchor="middle" x="305.93" y="-75.54" font-family="Times,serif" font-size="14.00">writes</text>
</g>
<!-- 3 -->
<g id="node4" class="node">
<title>3</title>
<ellipse fill="none" stroke="black" cx="341.93" cy="-26.87" rx="54.39" ry="26.74"/>
<text text-anchor="middle" x="341.93" y="-30.67" font-family="Times,serif" font-size="14.00">Public</text>
<text text-anchor="middle" x="341.93" y="-15.67" font-family="Times,serif" font-size="14.00">sites.tgz</text>
</g>
<!-- 0&#45;&gt;3 -->
<g id="edge3" class="edge">
<title>0&#45;&gt;3</title>
<path fill="none" stroke="black" d="M341.93,-104.68C341.93,-92.4 341.93,-77.51 341.93,-64.12"/>
<polygon fill="black" stroke="black" points="345.43,-63.79 341.93,-53.79 338.43,-63.79 345.43,-63.79"/>
<text text-anchor="middle" x="364.93" y="-75.54" font-family="Times,serif" font-size="14.00">writes</text>
</g>
<!-- 4 -->
<g id="node5" class="node">
<title>4</title>
<ellipse fill="none" stroke="black" cx="454.93" cy="-26.87" rx="40.11" ry="26.74"/>
<text text-anchor="middle" x="454.93" y="-30.67" font-family="Times,serif" font-size="14.00">Ruby</text>
<text text-anchor="middle" x="454.93" y="-15.67" font-family="Times,serif" font-size="14.00">found</text>
</g>
<!-- 0&#45;&gt;4 -->
<g id="edge4" class="edge">
<title>0&#45;&gt;4</title>
<path fill="none" stroke="black" d="M365.22,-110.45C373.68,-103.05 383.29,-94.57 391.93,-86.74 402.83,-76.88 414.63,-65.92 425.04,-56.16"/>
<polygon fill="black" stroke="black" points="427.46,-58.7 432.35,-49.3 422.66,-53.59 427.46,-58.7"/>
<text text-anchor="middle" x="424.43" y="-75.54" font-family="Times,serif" font-size="14.00">runs</text>
</g>
<!-- 5 -->
<g id="node6" class="node">
<title>5</title>
<ellipse fill="none" stroke="black" cx="562.93" cy="-26.87" rx="49.49" ry="26.74"/>
<text text-anchor="middle" x="562.93" y="-30.67" font-family="Times,serif" font-size="14.00">Ruby</text>
<text text-anchor="middle" x="562.93" y="-15.67" font-family="Times,serif" font-size="14.00">activity</text>
</g>
<!-- 0&#45;&gt;5 -->
<g id="edge5" class="edge">
<title>0&#45;&gt;5</title>
<path fill="none" stroke="black" d="M374.16,-117.47C394.58,-109 421.46,-97.58 444.93,-86.74 469.57,-75.36 496.7,-61.89 518.73,-50.71"/>
<polygon fill="black" stroke="black" points="520.51,-53.73 527.83,-46.07 517.33,-47.5 520.51,-53.73"/>
<text text-anchor="middle" x="491.43" y="-75.54" font-family="Times,serif" font-size="14.00">runs</text>
</g>
</g>
</svg>
