<?xml version="1.0" encoding="UTF-8" standalone="no"?>
<!DOCTYPE svg PUBLIC "-//W3C//DTD SVG 1.1//EN"
 "http://www.w3.org/Graphics/SVG/1.1/DTD/svg11.dtd">
<!-- Generated by graphviz version 2.43.0 (0)
 -->
<!-- Title: %3 Pages: 1 -->
<svg width="729pt" height="224pt"
 viewBox="0.00 0.00 728.50 224.00" xmlns="http://www.w3.org/2000/svg" xmlns:xlink="http://www.w3.org/1999/xlink">
<g id="graph0" class="graph" transform="scale(1 1) rotate(0) translate(4 220)">
<title>%3</title>
<polygon fill="white" stroke="transparent" points="-4,4 -4,-220 724.5,-220 724.5,4 -4,4"/>
<!-- 0 -->
<g id="node1" class="node">
<title>0</title>
<polygon fill="lightblue" stroke="black" points="350.5,-216 296.5,-216 296.5,-178 350.5,-178 350.5,-216"/>
<text text-anchor="middle" x="323.5" y="-200.8" font-family="Times,serif" font-size="14.00">Shell</text>
<text text-anchor="middle" x="323.5" y="-185.8" font-family="Times,serif" font-size="14.00">cron</text>
</g>
<!-- 1 -->
<g id="node2" class="node">
<title>1</title>
<polygon fill="palegreen" stroke="black" points="89,-127 0,-127 0,-89 89,-89 89,-127"/>
<text text-anchor="middle" x="44.5" y="-111.8" font-family="Times,serif" font-size="14.00">Activity</text>
<text text-anchor="middle" x="44.5" y="-96.8" font-family="Times,serif" font-size="14.00">Now&#45;0000</text>
</g>
<!-- 0&#45;&gt;1 -->
<g id="edge1" class="edge">
<title>0&#45;&gt;1</title>
<g id="a_edge1"><a xlink:href="https://github.com/WardCunningham/search/blob/master/cron.sh#L12" xlink:title="write">
<path fill="none" stroke="black" d="M296.39,-192.67C261.33,-187.86 198.68,-177.57 147.5,-160 125.93,-152.59 103.09,-141.63 84.41,-131.77"/>
<polygon fill="black" stroke="black" points="86.07,-128.69 75.6,-127.04 82.75,-134.85 86.07,-128.69"/>
</a>
</g>
<g id="a_edge1&#45;label"><a xlink:href="https://github.com/WardCunningham/search/blob/master/cron.sh#L12" xlink:title="write">
<text text-anchor="middle" x="166.5" y="-148.8" font-family="Times,serif" font-size="14.00">write</text>
</a>
</g>
</g>
<!-- 2 -->
<g id="node3" class="node">
<title>2</title>
<polygon fill="palegreen" stroke="black" points="178,-127 107,-127 107,-89 178,-89 178,-127"/>
<text text-anchor="middle" x="142.5" y="-111.8" font-family="Times,serif" font-size="14.00">Activity</text>
<text text-anchor="middle" x="142.5" y="-96.8" font-family="Times,serif" font-size="14.00">dir</text>
</g>
<!-- 0&#45;&gt;2 -->
<g id="edge2" class="edge">
<title>0&#45;&gt;2</title>
<g id="a_edge2"><a xlink:href="https://github.com/WardCunningham/search/blob/master/cron.sh#L37" xlink:title="remove">
<path fill="none" stroke="black" d="M296.18,-189.41C273.58,-183.39 241.01,-173.39 214.5,-160 199.95,-152.65 185.05,-142.6 172.61,-133.36"/>
<polygon fill="black" stroke="black" points="174.5,-130.4 164.42,-127.13 170.27,-135.97 174.5,-130.4"/>
</a>
</g>
<g id="a_edge2&#45;label"><a xlink:href="https://github.com/WardCunningham/search/blob/master/cron.sh#L37" xlink:title="remove">
<text text-anchor="middle" x="241.5" y="-148.8" font-family="Times,serif" font-size="14.00">remove</text>
</a>
</g>
</g>
<!-- 3 -->
<g id="node4" class="node">
<title>3</title>
<polygon fill="lightblue" stroke="black" points="266.5,-127 196.5,-127 196.5,-89 266.5,-89 266.5,-127"/>
<text text-anchor="middle" x="231.5" y="-111.8" font-family="Times,serif" font-size="14.00">Ruby</text>
<text text-anchor="middle" x="231.5" y="-96.8" font-family="Times,serif" font-size="14.00">activity</text>
</g>
<!-- 0&#45;&gt;3 -->
<g id="edge3" class="edge">
<title>0&#45;&gt;3</title>
<g id="a_edge3"><a xlink:href="https://github.com/WardCunningham/search/blob/master/cron.sh#L41" xlink:title="runs">
<path fill="none" stroke="black" d="M304.44,-177.97C290.99,-165.26 272.81,-148.06 257.96,-134.02"/>
<polygon fill="black" stroke="black" points="260.21,-131.33 250.54,-127 255.4,-136.42 260.21,-131.33"/>
</a>
</g>
<g id="a_edge3&#45;label"><a xlink:href="https://github.com/WardCunningham/search/blob/master/cron.sh#L41" xlink:title="runs">
<text text-anchor="middle" x="300" y="-148.8" font-family="Times,serif" font-size="14.00">runs</text>
</a>
</g>
</g>
<!-- 4 -->
<g id="node5" class="node">
<title>4</title>
<polygon fill="lightblue" stroke="black" points="362,-127 285,-127 285,-89 362,-89 362,-127"/>
<text text-anchor="middle" x="323.5" y="-111.8" font-family="Times,serif" font-size="14.00">Ruby</text>
<text text-anchor="middle" x="323.5" y="-96.8" font-family="Times,serif" font-size="14.00">site&#45;web</text>
</g>
<!-- 0&#45;&gt;4 -->
<g id="edge4" class="edge">
<title>0&#45;&gt;4</title>
<g id="a_edge4"><a xlink:href="https://github.com/WardCunningham/search/blob/master/cron.sh#L44" xlink:title="run">
<path fill="none" stroke="black" d="M323.5,-177.97C323.5,-166.19 323.5,-150.56 323.5,-137.16"/>
<polygon fill="black" stroke="black" points="327,-137 323.5,-127 320,-137 327,-137"/>
</a>
</g>
<g id="a_edge4&#45;label"><a xlink:href="https://github.com/WardCunningham/search/blob/master/cron.sh#L44" xlink:title="run">
<text text-anchor="middle" x="336" y="-148.8" font-family="Times,serif" font-size="14.00">run</text>
</a>
</g>
</g>
<!-- 5 -->
<g id="node6" class="node">
<title>5</title>
<polygon fill="palegreen" stroke="black" points="490.5,-127 380.5,-127 380.5,-89 490.5,-89 490.5,-127"/>
<text text-anchor="middle" x="435.5" y="-111.8" font-family="Times,serif" font-size="14.00">Public</text>
<text text-anchor="middle" x="435.5" y="-96.8" font-family="Times,serif" font-size="14.00">site&#45;web.json</text>
</g>
<!-- 0&#45;&gt;5 -->
<g id="edge5" class="edge">
<title>0&#45;&gt;5</title>
<g id="a_edge5"><a xlink:href="https://github.com/WardCunningham/search/blob/master/cron.sh#L44" xlink:title="write">
<path fill="none" stroke="black" d="M346.71,-177.97C363.38,-165.03 386.03,-147.43 404.28,-133.25"/>
<polygon fill="black" stroke="black" points="406.57,-135.9 412.32,-127 402.28,-130.37 406.57,-135.9"/>
</a>
</g>
<g id="a_edge5&#45;label"><a xlink:href="https://github.com/WardCunningham/search/blob/master/cron.sh#L44" xlink:title="write">
<text text-anchor="middle" x="405.5" y="-148.8" font-family="Times,serif" font-size="14.00">write</text>
</a>
</g>
</g>
<!-- 6 -->
<g id="node7" class="node">
<title>6</title>
<polygon fill="lightblue" stroke="black" points="588.5,-127 508.5,-127 508.5,-89 588.5,-89 588.5,-127"/>
<text text-anchor="middle" x="548.5" y="-111.8" font-family="Times,serif" font-size="14.00">Ruby</text>
<text text-anchor="middle" x="548.5" y="-96.8" font-family="Times,serif" font-size="14.00">slug&#45;web</text>
</g>
<!-- 0&#45;&gt;6 -->
<g id="edge6" class="edge">
<title>0&#45;&gt;6</title>
<g id="a_edge6"><a xlink:href="https://github.com/WardCunningham/search/blob/master/cron.sh#L48" xlink:title="run">
<path fill="none" stroke="black" d="M350.89,-187.21C372.19,-180.22 402.41,-170 428.5,-160 451.88,-151.04 477.47,-140.29 498.98,-130.99"/>
<polygon fill="black" stroke="black" points="500.47,-134.16 508.25,-126.96 497.68,-127.74 500.47,-134.16"/>
</a>
</g>
<g id="a_edge6&#45;label"><a xlink:href="https://github.com/WardCunningham/search/blob/master/cron.sh#L48" xlink:title="run">
<text text-anchor="middle" x="478" y="-148.8" font-family="Times,serif" font-size="14.00">run</text>
</a>
</g>
</g>
<!-- 7 -->
<g id="node8" class="node">
<title>7</title>
<polygon fill="palegreen" stroke="black" points="720.5,-127 606.5,-127 606.5,-89 720.5,-89 720.5,-127"/>
<text text-anchor="middle" x="663.5" y="-111.8" font-family="Times,serif" font-size="14.00">Public</text>
<text text-anchor="middle" x="663.5" y="-96.8" font-family="Times,serif" font-size="14.00">slug&#45;web.json</text>
</g>
<!-- 0&#45;&gt;7 -->
<g id="edge7" class="edge">
<title>0&#45;&gt;7</title>
<g id="a_edge7"><a xlink:href="https://github.com/WardCunningham/search/blob/master/cron.sh#L48" xlink:title="write">
<path fill="none" stroke="black" d="M350.62,-191.03C384.48,-184.66 444.09,-172.89 494.5,-160 528.93,-151.2 566.84,-139.91 598.02,-130.19"/>
<polygon fill="black" stroke="black" points="599.39,-133.42 607.89,-127.09 597.3,-126.74 599.39,-133.42"/>
</a>
</g>
<g id="a_edge7&#45;label"><a xlink:href="https://github.com/WardCunningham/search/blob/master/cron.sh#L48" xlink:title="write">
<text text-anchor="middle" x="565.5" y="-148.8" font-family="Times,serif" font-size="14.00">write</text>
</a>
</g>
</g>
<!-- 8 -->
<g id="node9" class="node">
<title>8</title>
<polygon fill="palegreen" stroke="black" points="302,-38 161,-38 161,0 302,0 302,-38"/>
<text text-anchor="middle" x="231.5" y="-22.8" font-family="Times,serif" font-size="14.00">Pages</text>
<text text-anchor="middle" x="231.5" y="-7.8" font-family="Times,serif" font-size="14.00">visible&#45;federation</text>
</g>
<!-- 3&#45;&gt;8 -->
<g id="edge8" class="edge">
<title>3&#45;&gt;8</title>
<g id="a_edge8"><a xlink:href="https://github.com/WardCunningham/search/blob/master/activity.rb#L47" xlink:title="write">
<path fill="none" stroke="black" d="M231.5,-88.97C231.5,-77.19 231.5,-61.56 231.5,-48.16"/>
<polygon fill="black" stroke="black" points="235,-48 231.5,-38 228,-48 235,-48"/>
</a>
</g>
<g id="a_edge8&#45;label"><a xlink:href="https://github.com/WardCunningham/search/blob/master/activity.rb#L47" xlink:title="write">
<text text-anchor="middle" x="250.5" y="-59.8" font-family="Times,serif" font-size="14.00">write</text>
</a>
</g>
</g>
</g>
</svg>
