<?xml version="1.0" encoding="UTF-8" standalone="no"?>
<!DOCTYPE svg PUBLIC "-//W3C//DTD SVG 1.1//EN"
 "http://www.w3.org/Graphics/SVG/1.1/DTD/svg11.dtd">
<!-- Generated by graphviz version 2.43.0 (0)
 -->
<!-- Title: %3 Pages: 1 -->
<svg width="710pt" height="135pt"
 viewBox="0.00 0.00 710.00 135.00" xmlns="http://www.w3.org/2000/svg" xmlns:xlink="http://www.w3.org/1999/xlink">
<g id="graph0" class="graph" transform="scale(1 1) rotate(0) translate(4 131)">
<title>%3</title>
<polygon fill="white" stroke="transparent" points="-4,4 -4,-131 706,-131 706,4 -4,4"/>
<!-- 0 -->
<g id="node1" class="node">
<title>0</title>
<polygon fill="palegreen" stroke="black" points="284.5,-127 230.5,-127 230.5,-89 284.5,-89 284.5,-127"/>
<text text-anchor="middle" x="257.5" y="-111.8" font-family="Times,serif" font-size="14.00">Shell</text>
<text text-anchor="middle" x="257.5" y="-96.8" font-family="Times,serif" font-size="14.00">cron</text>
</g>
<!-- 1 -->
<g id="node2" class="node">
<title>1</title>
<polygon fill="palegreen" stroke="black" points="89,-38 0,-38 0,0 89,0 89,-38"/>
<text text-anchor="middle" x="44.5" y="-22.8" font-family="Times,serif" font-size="14.00">Activity</text>
<text text-anchor="middle" x="44.5" y="-7.8" font-family="Times,serif" font-size="14.00">Now&#45;0000</text>
</g>
<!-- 0&#45;&gt;1 -->
<g id="edge1" class="edge">
<title>0&#45;&gt;1</title>
<path fill="none" stroke="black" d="M230.37,-99.58C207.42,-92.99 173.84,-82.63 145.5,-71 125.54,-62.81 104.11,-52.26 86.15,-42.88"/>
<polygon fill="black" stroke="black" points="87.58,-39.68 77.1,-38.1 84.31,-45.87 87.58,-39.68"/>
<text text-anchor="middle" x="168.5" y="-59.8" font-family="Times,serif" font-size="14.00">writes</text>
</g>
<!-- 2 -->
<g id="node3" class="node">
<title>2</title>
<polygon fill="palegreen" stroke="black" points="184,-38 107,-38 107,0 184,0 184,-38"/>
<text text-anchor="middle" x="145.5" y="-22.8" font-family="Times,serif" font-size="14.00">Ruby</text>
<text text-anchor="middle" x="145.5" y="-7.8" font-family="Times,serif" font-size="14.00">site&#45;web</text>
</g>
<!-- 0&#45;&gt;2 -->
<g id="edge2" class="edge">
<title>0&#45;&gt;2</title>
<path fill="none" stroke="black" d="M234.29,-88.97C217.62,-76.03 194.97,-58.43 176.72,-44.25"/>
<polygon fill="black" stroke="black" points="178.72,-41.37 168.68,-38 174.43,-46.9 178.72,-41.37"/>
<text text-anchor="middle" x="221" y="-59.8" font-family="Times,serif" font-size="14.00">run</text>
</g>
<!-- 3 -->
<g id="node4" class="node">
<title>3</title>
<polygon fill="palegreen" stroke="black" points="312.5,-38 202.5,-38 202.5,0 312.5,0 312.5,-38"/>
<text text-anchor="middle" x="257.5" y="-22.8" font-family="Times,serif" font-size="14.00">Public</text>
<text text-anchor="middle" x="257.5" y="-7.8" font-family="Times,serif" font-size="14.00">site&#45;web.json</text>
</g>
<!-- 0&#45;&gt;3 -->
<g id="edge3" class="edge">
<title>0&#45;&gt;3</title>
<path fill="none" stroke="black" d="M257.5,-88.97C257.5,-77.19 257.5,-61.56 257.5,-48.16"/>
<polygon fill="black" stroke="black" points="261,-48 257.5,-38 254,-48 261,-48"/>
<text text-anchor="middle" x="276.5" y="-59.8" font-family="Times,serif" font-size="14.00">write</text>
</g>
<!-- 4 -->
<g id="node5" class="node">
<title>4</title>
<polygon fill="palegreen" stroke="black" points="410.5,-38 330.5,-38 330.5,0 410.5,0 410.5,-38"/>
<text text-anchor="middle" x="370.5" y="-22.8" font-family="Times,serif" font-size="14.00">Ruby</text>
<text text-anchor="middle" x="370.5" y="-7.8" font-family="Times,serif" font-size="14.00">slug&#45;web</text>
</g>
<!-- 0&#45;&gt;4 -->
<g id="edge4" class="edge">
<title>0&#45;&gt;4</title>
<path fill="none" stroke="black" d="M280.91,-88.97C297.73,-76.03 320.59,-58.43 339,-44.25"/>
<polygon fill="black" stroke="black" points="341.33,-46.88 347.12,-38 337.06,-41.33 341.33,-46.88"/>
<text text-anchor="middle" x="334" y="-59.8" font-family="Times,serif" font-size="14.00">run</text>
</g>
<!-- 5 -->
<g id="node6" class="node">
<title>5</title>
<polygon fill="palegreen" stroke="black" points="542.5,-38 428.5,-38 428.5,0 542.5,0 542.5,-38"/>
<text text-anchor="middle" x="485.5" y="-22.8" font-family="Times,serif" font-size="14.00">Public</text>
<text text-anchor="middle" x="485.5" y="-7.8" font-family="Times,serif" font-size="14.00">slug&#45;web.json</text>
</g>
<!-- 0&#45;&gt;5 -->
<g id="edge5" class="edge">
<title>0&#45;&gt;5</title>
<path fill="none" stroke="black" d="M284.55,-96.68C319.9,-83.19 382.71,-59.22 428.73,-41.66"/>
<polygon fill="black" stroke="black" points="430.18,-44.85 438.28,-38.02 427.69,-38.31 430.18,-44.85"/>
<text text-anchor="middle" x="404.5" y="-59.8" font-family="Times,serif" font-size="14.00">write</text>
</g>
<!-- 6 -->
<g id="node7" class="node">
<title>6</title>
<polygon fill="palegreen" stroke="black" points="666.5,-127 596.5,-127 596.5,-89 666.5,-89 666.5,-127"/>
<text text-anchor="middle" x="631.5" y="-111.8" font-family="Times,serif" font-size="14.00">Ruby</text>
<text text-anchor="middle" x="631.5" y="-96.8" font-family="Times,serif" font-size="14.00">activity</text>
</g>
<!-- 7 -->
<g id="node8" class="node">
<title>7</title>
<polygon fill="palegreen" stroke="black" points="702,-38 561,-38 561,0 702,0 702,-38"/>
<text text-anchor="middle" x="631.5" y="-22.8" font-family="Times,serif" font-size="14.00">Pages</text>
<text text-anchor="middle" x="631.5" y="-7.8" font-family="Times,serif" font-size="14.00">visible&#45;federation</text>
</g>
<!-- 6&#45;&gt;7 -->
<g id="edge6" class="edge">
<title>6&#45;&gt;7</title>
<path fill="none" stroke="black" d="M631.5,-88.97C631.5,-77.19 631.5,-61.56 631.5,-48.16"/>
<polygon fill="black" stroke="black" points="635,-48 631.5,-38 628,-48 635,-48"/>
<text text-anchor="middle" x="654.5" y="-59.8" font-family="Times,serif" font-size="14.00">writes</text>
</g>
</g>
</svg>
