<?xml version="1.0" encoding="UTF-8" standalone="no"?>
<!DOCTYPE svg PUBLIC "-//W3C//DTD SVG 1.1//EN"
 "http://www.w3.org/Graphics/SVG/1.1/DTD/svg11.dtd">
<!-- Generated by graphviz version 2.43.0 (0)
 -->
<!-- Title: %3 Pages: 1 -->
<svg width="960pt" height="166pt"
 viewBox="0.00 0.00 959.54 166.48" xmlns="http://www.w3.org/2000/svg" xmlns:xlink="http://www.w3.org/1999/xlink">
<g id="graph0" class="graph" transform="scale(1 1) rotate(0) translate(4 162.48)">
<title>%3</title>
<polygon fill="white" stroke="transparent" points="-4,4 -4,-162.48 955.54,-162.48 955.54,4 -4,4"/>
<!-- 0 -->
<g id="node1" class="node">
<title>0</title>
<ellipse fill="none" stroke="black" cx="413.93" cy="-131.61" rx="37.45" ry="26.74"/>
<text text-anchor="middle" x="413.93" y="-135.41" font-family="Times,serif" font-size="14.00">Shell</text>
<text text-anchor="middle" x="413.93" y="-120.41" font-family="Times,serif" font-size="14.00">cron</text>
</g>
<!-- 1 -->
<g id="node2" class="node">
<title>1</title>
<ellipse fill="none" stroke="black" cx="62.93" cy="-26.87" rx="62.87" ry="26.74"/>
<text text-anchor="middle" x="62.93" y="-30.67" font-family="Times,serif" font-size="14.00">Activity</text>
<text text-anchor="middle" x="62.93" y="-15.67" font-family="Times,serif" font-size="14.00">Now&#45;0000</text>
</g>
<!-- 0&#45;&gt;1 -->
<g id="edge1" class="edge">
<title>0&#45;&gt;1</title>
<path fill="none" stroke="black" d="M377.97,-123.35C340.28,-115.45 279.49,-101.92 227.93,-86.74 185.86,-74.35 176.24,-68.49 134.93,-53.74 130.05,-52 124.99,-50.19 119.91,-48.37"/>
<polygon fill="black" stroke="black" points="120.77,-44.96 110.17,-44.87 118.4,-51.54 120.77,-44.96"/>
<text text-anchor="middle" x="250.93" y="-75.54" font-family="Times,serif" font-size="14.00">writes</text>
</g>
<!-- 2 -->
<g id="node3" class="node">
<title>2</title>
<ellipse fill="none" stroke="black" cx="183.93" cy="-26.87" rx="40.11" ry="26.74"/>
<text text-anchor="middle" x="183.93" y="-30.67" font-family="Times,serif" font-size="14.00">Ruby</text>
<text text-anchor="middle" x="183.93" y="-15.67" font-family="Times,serif" font-size="14.00">found</text>
</g>
<!-- 0&#45;&gt;2 -->
<g id="edge2" class="edge">
<title>0&#45;&gt;2</title>
<path fill="none" stroke="black" d="M381.7,-117.81C345.4,-103.17 284.82,-78.07 233.93,-53.74 230.75,-52.22 227.47,-50.61 224.19,-48.97"/>
<polygon fill="black" stroke="black" points="225.49,-45.71 214.99,-44.32 222.33,-51.96 225.49,-45.71"/>
<text text-anchor="middle" x="319.43" y="-75.54" font-family="Times,serif" font-size="14.00">runs</text>
</g>
<!-- 3 -->
<g id="node4" class="node">
<title>3</title>
<ellipse fill="none" stroke="black" cx="291.93" cy="-26.87" rx="49.49" ry="26.74"/>
<text text-anchor="middle" x="291.93" y="-30.67" font-family="Times,serif" font-size="14.00">Ruby</text>
<text text-anchor="middle" x="291.93" y="-15.67" font-family="Times,serif" font-size="14.00">activity</text>
</g>
<!-- 0&#45;&gt;3 -->
<g id="edge3" class="edge">
<title>0&#45;&gt;3</title>
<path fill="none" stroke="black" d="M390.12,-110.56C371.88,-95.19 346.46,-73.79 326.05,-56.61"/>
<polygon fill="black" stroke="black" points="328.13,-53.77 318.22,-50.01 323.62,-59.13 328.13,-53.77"/>
<text text-anchor="middle" x="377.43" y="-75.54" font-family="Times,serif" font-size="14.00">runs</text>
</g>
<!-- 4 -->
<g id="node5" class="node">
<title>4</title>
<ellipse fill="none" stroke="black" cx="413.93" cy="-26.87" rx="54.39" ry="26.74"/>
<text text-anchor="middle" x="413.93" y="-30.67" font-family="Times,serif" font-size="14.00">Ruby</text>
<text text-anchor="middle" x="413.93" y="-15.67" font-family="Times,serif" font-size="14.00">site&#45;web</text>
</g>
<!-- 0&#45;&gt;4 -->
<g id="edge4" class="edge">
<title>0&#45;&gt;4</title>
<path fill="none" stroke="black" d="M413.93,-104.68C413.93,-92.4 413.93,-77.51 413.93,-64.12"/>
<polygon fill="black" stroke="black" points="417.43,-63.79 413.93,-53.79 410.43,-63.79 417.43,-63.79"/>
<text text-anchor="middle" x="430.43" y="-75.54" font-family="Times,serif" font-size="14.00">runs</text>
</g>
<!-- 5 -->
<g id="node6" class="node">
<title>5</title>
<ellipse fill="none" stroke="black" cx="563.93" cy="-26.87" rx="77.56" ry="26.74"/>
<text text-anchor="middle" x="563.93" y="-30.67" font-family="Times,serif" font-size="14.00">Public</text>
<text text-anchor="middle" x="563.93" y="-15.67" font-family="Times,serif" font-size="14.00">site&#45;web.json</text>
</g>
<!-- 0&#45;&gt;5 -->
<g id="edge5" class="edge">
<title>0&#45;&gt;5</title>
<path fill="none" stroke="black" d="M440.4,-112.48C462.77,-97.16 495.23,-74.93 521.26,-57.1"/>
<polygon fill="black" stroke="black" points="523.55,-59.77 529.82,-51.24 519.59,-54 523.55,-59.77"/>
<text text-anchor="middle" x="516.93" y="-75.54" font-family="Times,serif" font-size="14.00">write</text>
</g>
<!-- 6 -->
<g id="node7" class="node">
<title>6</title>
<ellipse fill="none" stroke="black" cx="715.93" cy="-26.87" rx="56.64" ry="26.74"/>
<text text-anchor="middle" x="715.93" y="-30.67" font-family="Times,serif" font-size="14.00">Ruby</text>
<text text-anchor="middle" x="715.93" y="-15.67" font-family="Times,serif" font-size="14.00">slug&#45;web</text>
</g>
<!-- 0&#45;&gt;6 -->
<g id="edge6" class="edge">
<title>0&#45;&gt;6</title>
<path fill="none" stroke="black" d="M448.32,-120.23C494.64,-106.07 579.52,-79.5 650.93,-53.74 655.41,-52.13 660.04,-50.4 664.67,-48.63"/>
<polygon fill="black" stroke="black" points="666.06,-51.85 674.13,-44.97 663.54,-45.32 666.06,-51.85"/>
<text text-anchor="middle" x="616.43" y="-75.54" font-family="Times,serif" font-size="14.00">runs</text>
</g>
<!-- 7 -->
<g id="node8" class="node">
<title>7</title>
<ellipse fill="none" stroke="black" cx="870.93" cy="-26.87" rx="80.72" ry="26.74"/>
<text text-anchor="middle" x="870.93" y="-30.67" font-family="Times,serif" font-size="14.00">Public</text>
<text text-anchor="middle" x="870.93" y="-15.67" font-family="Times,serif" font-size="14.00">slug&#45;web.json</text>
</g>
<!-- 0&#45;&gt;7 -->
<g id="edge7" class="edge">
<title>0&#45;&gt;7</title>
<path fill="none" stroke="black" d="M450.24,-124.21C516.56,-112.25 661.57,-84.9 781.93,-53.74 788.53,-52.03 795.37,-50.18 802.21,-48.28"/>
<polygon fill="black" stroke="black" points="803.5,-51.56 812.18,-45.48 801.61,-44.82 803.5,-51.56"/>
<text text-anchor="middle" x="720.93" y="-75.54" font-family="Times,serif" font-size="14.00">write</text>
</g>
</g>
</svg>
